{
.appVersion = "3151";
.formatVersion = 3;
axes = (
{
name = Weight;
tag = wght;
},
{
name = Width;
tag = wdth;
}
);
customParameters = (
{
name = "Use Typo Metrics";
value = 1;
},
{
name = fsType;
value = (
);
}
);
date = "2022-07-30 15:19:26 +0000";
familyName = "Duyet Serif";
featurePrefixes = (
{
automatic = 1;
code = "languagesystem DFLT dflt;

languagesystem latn dflt;
languagesystem latn AZE;
languagesystem latn CRT;
languagesystem latn KAZ;
languagesystem latn TAT;
languagesystem latn TRK;
languagesystem latn ROM;
languagesystem latn MOL;
languagesystem latn CAT;
";
name = Languagesystems;
}
);
features = (
{
automatic = 1;
code = "feature locl;
feature ordn;
feature case;
feature ss01;
";
tag = aalt;
},
{
code = "lookup ccmp_Other_1 {
	@CombiningTopAccents = [acutecomb brevecomb caroncomb circumflexcomb commaturnedabovecomb dieresiscomb dotaccentcomb gravecomb hungarumlautcomb macroncomb ringcomb tildecomb];
	@CombiningNonTopAccents = [cedillacomb ogonekcomb];
	sub [i j]' @CombiningTopAccents by [idotless jdotless];
	sub [i j]' @CombiningNonTopAccents @CombiningTopAccents by [idotless jdotless];
	sub iogonek' @CombiningTopAccents by idotless ogonekcomb;
} ccmp_Other_1;
";
tag = ccmp;
},
{
automatic = 1;
code = "lookup locl_latn_0 {
	script latn;
	language AZE;
	sub i by idotaccent;
	language CRT;
	sub i by idotaccent;
	language KAZ;
	sub i by idotaccent;
	language TAT;
	sub i by idotaccent;
	language TRK;
	sub i by idotaccent;
} locl_latn_0;

lookup locl_latn_1 {
	script latn;
	language ROM;
	sub Scedilla by Scommaaccent;
	sub scedilla by scommaaccent;
	language MOL;
	sub Scedilla by Scommaaccent;
	sub scedilla by scommaaccent;
} locl_latn_1;

lookup locl_latn_2 {
	script latn;
	language CAT;
	sub l periodcentered' l by periodcentered.loclCAT;
	sub L periodcentered' L by periodcentered.loclCAT.case;
} locl_latn_2;
";
tag = locl;
},
{
automatic = 1;
code = "sub [zero one two three four five six seven eight nine] [A a]' by ordfeminine;

glyphs = (
{
glyphname = horncomb;
layers = (
{
anchors = (
{
name = _topright;
pos = "(125, 450)";
}
);
layerId = m01;
shapes = (
{
closed = 1;
nodes = (
(216,626,ls),
(223,621,o),
(229,613,o),
(232,604,cs),
(235,595,o),
(237,583,o),
(237,568,cs),
(237,552,o),
(232,535,o),
(221,519,cs),
(211,502,o),
(195,487,o),
(174,476,cs),
(152,464,o),
(124,458,o),
(89,458,cs),
(88,458,ls),
(127,459,o),
(160,461,o),
(186,466,cs),
(212,471,o),
(232,477,o),
(247,485,cs),
(262,493,o),
(273,501,o),
(279,511,cs),
(285,521,o),
(289,531,o),
(289,542,cs),
(289,563,o),
(281,580,o),
(267,594,cs),
(253,608,o),
(236,619,o),
(217,626,cs)
);
}
);
width = 600;
}
);
unicode = 795;
},
{
glyphname = dotbelowcomb;
layers = (
{
anchors = (
{
name = _bottom;
pos = "(-28, 0)";
}
);
layerId = m01;
shapes = (
{
closed = 1;
nodes = (
(-29,-176,ls),
(-20,-176,o),
(-13,-174,o),
(-6,-170,cs),
(1,-166,o),
(6,-161,o),
(10,-154,cs),
(14,-148,o),
(16,-141,o),
(16,-133,cs),
(15,-122,o),
(11,-112,o),
(3,-104,cs),
(-6,-95,o),
(-16,-91,o),
(-28,-91,cs),
(-41,-91,o),
(-51,-95,o),
(-60,-104,cs),
(-68,-112,o),
(-73,-122,o),
(-73,-133,cs),
(-72,-145,o),
(-68,-155,o),
(-60,-163,cs),
(-51,-171,o),
(-41,-176,o),
(-29,-176,cs)
);
}
);
width = 600;
}
);
unicode = 803;
},
{
glyphname = hookabovecomb;
layers = (
{
anchors = (
{
name = _top;
pos = "(127, 510)";
}
);
layerId = m01;
shapes = (
{
closed = 1;
nodes = (
(140,669,ls),
(121,669,o),
(104,664,o),
(88,653,cs),
(72,642,o),
(60,628,o),
(51,609,cs),
(51,609,ls),
(59,616,o),
(67,622,o),
(76,626,cs),
(85,630,o),
(94,632,o),
(104,632,cs),
(117,632,o),
(128,628,o),
(137,621,cs),
(146,613,o),
(150,602,o),
(150,589,cs),
(150,575,o),
(144,561,o),
(132,547,cs),
(120,532,o),
(102,519,o),
(77,506,cs),
(78,506,ls),
(121,518,o),
(152,533,o),
(173,551,cs),
(193,569,o),
(204,589,o),
(204,610,cs),
(204,628,o),
(198,642,o),
(185,653,cs),
(173,664,o),
(158,669,o),
(140,669,cs)
);
}
);
width = 600;
}
);
unicode = 777;
},
{
glyphname = A;
kernLeft = A;
kernRight = A;
lastChange = "2022-09-01 21:01:03 +0000";
layers = (
{
anchors = (
{
name = bottom;
pos = (229,0);
},
{
name = ogonek;
pos = (421,0);
},
{
name = top;
pos = (229,720);
}
);
layerId = m01;
shapes = (
{
closed = 1;
nodes = (
(158,0,ls),
(168,0,o),
(174,3,o),
(174,9,cs),
(174,14,o),
(168,18,o),
(154,20,cs),
(137,21,ls),
(101,25,o),
(91,42,o),
(102,75,cs),
(141,189,ls),
(147,204,o),
(159,211,o),
(179,211,cs),
(300,211,ls),
(321,211,o),
(334,203,o),
(338,189,cs),
(382,57,ls),
(390,32,o),
(384,23,o),
(358,21,cs),
(336,20,ls),
(322,19,o),
(316,14,o),
(316,9,cs),
(316,3,o),
(322,0,o),
(332,0,cs),
(529,0,ls),
(539,0,o),
(546,3,o),
(546,8,cs),
(546,14,o),
(540,18,o),
(530,20,cs),
(513,22,ls),
(483,26,o),
(473,37,o),
(462,68,cs),
(281,607,ls),
(277,618,o),
(269,620,o),
(262,620,cs),
(256,620,o),
(248,618,o),
(245,607,cs),
(67,76,ls),
(56,44,o),
(43,26,o),
(13,22,cs),
(-4,23,ls),
(-13,21,o),
(-18,17,o),
(-18,10,cs),
(-18,3,o),
(-12,0,o),
(-3,0,cs)
);
},
{
closed = 1;
nodes = (
(164,236,o),
(159,242,o),
(161,251,cs),
(238,479,l),
(244,479,l),
(317,251,ls),
(320,242,o),
(314,236,o),
(302,236,cs),
(176,236,ls)
);
}
);
width = 526;
}
);
unicode = 65;
},
{
glyphname = AE;
kernRight = E;
lastChange = "2022-08-23 19:51:09 +0000";
layers = (
{
background = {
shapes = (
{
closed = 1;
nodes = (
(176,0,ls),
(186,0,o),
(192,3,o),
(192,9,cs),
(192,14,o),
(186,18,o),
(172,20,cs),
(155,21,ls),
(120,25,o),
(109,42,o),
(121,75,cs),
(160,189,ls),
(166,204,o),
(177,211,o),
(198,211,cs),
(319,211,ls),
(339,211,o),
(352,203,o),
(356,189,cs),
(400,57,l),
(481,68,l),
(299,607,ls),
(296,618,o),
(288,620,o),
(281,620,cs),
(275,620,o),
(267,618,o),
(263,607,cs),
(85,76,ls),
(75,44,o),
(61,26,o),
(31,22,cs),
(14,20,ls),
(3,18,o),
(-2,17,o),
(-2,10,cs),
(-2,3,o),
(5,0,o),
(15,0,cs)
);
},
{
closed = 1;
nodes = (
(183,236,o),
(177,242,o),
(179,251,cs),
(256,479,l),
(262,479,l),
(336,251,ls),
(338,242,o),
(332,236,o),
(321,236,cs),
(194,236,ls)
);
},
{
closed = 1;
nodes = (
(816,0,ls),
(834,0,o),
(844,7,o),
(845,20,cs),
(857,171,ls),
(858,180,o),
(851,185,o),
(843,185,cs),
(834,185,o),
(828,181,o),
(826,174,cs),
(812,124,ls),
(790,45,o),
(734,21,o),
(657,21,cs),
(582,21,o),
(558,38,o),
(558,79,cs),
(558,292,ls),
(558,300,o),
(564,304,o),
(574,304,cs),
(630,304,ls),
(665,304,o),
(683,295,o),
(693,256,cs),
(705,214,ls),
(707,207,o),
(715,202,o),
(724,203,cs),
(733,204,o),
(737,208,o),
(737,218,cs),
(737,409,ls),
(737,418,o),
(733,422,o),
(724,423,cs),
(715,424,o),
(707,419,o),
(705,412,cs),
(693,370,ls),
(685,342,o),
(666,330,o),
(631,330,cs),
(574,330,ls),
(564,330,o),
(558,334,o),
(558,342,cs),
(558,547,ls),
(558,579,o),
(577,591,o),
(639,591,cs),
(731,591,o),
(782,556,o),
(799,479,cs),
(806,448,ls),
(807,441,o),
(813,437,o),
(822,437,cs),
(831,437,o),
(838,442,o),
(837,451,cs),
(828,592,ls),
(827,605,o),
(816,612,o),
(799,612,cs),
(413,612,ls),
(401,612,o),
(396,609,o),
(396,603,cs),
(396,598,o),
(400,594,o),
(411,592,cs),
(437,589,ls),
(469,585,o),
(476,580,o),
(476,556,cs),
(476,56,ls),
(476,32,o),
(469,27,o),
(437,23,cs),
(411,20,ls),
(400,18,o),
(396,14,o),
(396,9,cs),
(396,3,o),
(401,0,o),
(413,0,cs)
);
}
);
};
layerId = m01;
shapes = (
{
closed = 1;
nodes = (
(169,0,ls),
(182,0,o),
(187,3,o),
(187,9,cs),
(187,14,o),
(182,18,o),
(168,20,cs),
(150,21,ls),
(114,25,o),
(107,45,o),
(128,75,cs),
(277,296,ls),
(281,302,o),
(288,304,o),
(296,304,cs),
(460,304,ls),
(470,304,o),
(476,300,o),
(476,292,cs),
(476,56,ls),
(476,32,o),
(469,27,o),
(437,23,cs),
(411,20,ls),
(400,18,o),
(396,14,o),
(396,9,cs),
(396,3,o),
(401,0,o),
(413,0,cs),
(816,0,ls),
(834,0,o),
(844,7,o),
(845,20,cs),
(857,171,ls),
(858,180,o),
(851,185,o),
(843,185,cs),
(834,185,o),
(828,181,o),
(826,174,cs),
(812,124,ls),
(790,45,o),
(734,21,o),
(657,21,cs),
(582,21,o),
(558,38,o),
(558,79,cs),
(558,292,ls),
(558,300,o),
(564,304,o),
(574,304,cs),
(630,304,ls),
(665,304,o),
(683,295,o),
(693,256,cs),
(705,214,ls),
(707,207,o),
(715,202,o),
(724,203,cs),
(733,204,o),
(737,208,o),
(737,218,cs),
(737,409,ls),
(737,418,o),
(733,422,o),
(724,423,cs),
(715,424,o),
(707,419,o),
(705,412,cs),
(693,370,ls),
(685,342,o),
(666,330,o),
(631,330,cs),
(574,330,ls),
(564,330,o),
(558,334,o),
(558,342,cs),
(558,547,ls),
(558,579,o),
(577,591,o),
(639,591,cs),
(731,591,o),
(782,556,o),
(799,479,cs),
(806,448,ls),
(807,441,o),
(813,437,o),
(822,437,cs),
(831,437,o),
(838,442,o),
(837,451,cs),
(828,592,ls),
(827,605,o),
(816,612,o),
(799,612,cs),
(362,612,ls),
(351,612,o),
(345,609,o),
(345,603,cs),
(345,598,o),
(350,594,o),
(360,592,cs),
(386,588,ls),
(419,583,o),
(430,580,o),
(414,556,cs),
(90,76,ls),
(70,46,o),
(43,26,o),
(13,22,cs),
(-4,23,ls),
(-13,21,o),
(-18,18,o),
(-18,11,cs),
(-18,4,o),
(-12,0,o),
(-3,0,cs)
);
},
{
closed = 1;
nodes = (
(460,567,ls),
(466,576,o),
(476,575,o),
(476,564,cs),
(476,342,ls),
(476,334,o),
(470,330,o),
(460,330,cs),
(321,330,ls),
(309,330,o),
(305,337,o),
(309,344,cs)
);
}
);
width = 895;
}
);
metricLeft = A;
metricRight = E;
unicode = 198;
},
{
glyphname = B;
kernLeft = H;
lastChange = "2022-09-01 21:00:59 +0000";
layers = (
{
background = {
shapes = (
{
closed = 1;
nodes = (
(277,0,ls),
(415,0,o),
(518,72,o),
(518,173,cs),
(518,257,o),
(446,320,o),
(338,341,c),
(338,345,l),
(421,371,o),
(471,421,o),
(471,476,cs),
(471,554,o),
(388,612,o),
(273,612,cs),
(39,612,ls),
(28,612,o),
(22,609,o),
(22,603,cs),
(22,597,o),
(26,594,o),
(37,592,cs),
(63,589,ls),
(95,585,o),
(102,580,o),
(102,556,cs),
(102,56,ls),
(102,32,o),
(95,27,o),
(63,23,cs),
(37,20,ls),
(26,18,o),
(22,15,o),
(22,9,cs),
(22,3,o),
(28,0,o),
(39,0,cs)
);
},
{
closed = 1;
nodes = (
(208,21,o),
(184,40,o),
(184,80,cs),
(184,286,ls),
(184,315,o),
(206,328,o),
(255,328,cs),
(362,328,o),
(431,270,o),
(431,176,cs),
(431,82,o),
(362,21,o),
(262,21,cs)
);
},
{
closed = 1;
nodes = (
(202,349,o),
(184,363,o),
(184,396,cs),
(184,557,ls),
(184,580,o),
(204,591,o),
(245,591,cs),
(330,591,o),
(388,543,o),
(388,473,cs),
(388,402,o),
(327,349,o),
(245,349,cs)
);
}
);
};
layerId = m01;
shapes = (
{
closed = 1;
nodes = (
(277,0,ls),
(415,0,o),
(518,72,o),
(518,173,cs),
(518,252,o),
(458,311,o),
(354,337,cs),
(343,340,o),
(344,347,o),
(353,350,cs),
(429,379,o),
(471,425,o),
(471,476,cs),
(471,554,o),
(388,612,o),
(273,612,cs),
(39,612,ls),
(28,612,o),
(22,609,o),
(22,603,cs),
(22,597,o),
(26,594,o),
(37,592,cs),
(63,589,ls),
(95,585,o),
(102,580,o),
(102,556,cs),
(102,56,ls),
(102,32,o),
(95,27,o),
(63,23,cs),
(37,20,ls),
(26,18,o),
(22,15,o),
(22,9,cs),
(22,3,o),
(28,0,o),
(39,0,cs)
);
},
{
closed = 1;
nodes = (
(208,21,o),
(184,40,o),
(184,80,cs),
(184,286,ls),
(184,315,o),
(206,328,o),
(255,328,cs),
(362,328,o),
(431,270,o),
(431,176,cs),
(431,82,o),
(362,21,o),
(262,21,cs)
);
},
{
closed = 1;
nodes = (
(202,349,o),
(184,363,o),
(184,396,cs),
(184,557,ls),
(184,580,o),
(204,591,o),
(245,591,cs),
(330,591,o),
(388,543,o),
(388,473,cs),
(388,402,o),
(327,349,o),
(245,349,cs)
);
}
);
width = 550;
}
);
unicode = 66;
},
{
glyphname = C;
kernLeft = O;
kernRight = C;
lastChange = "2022-09-01 20:50:49 +0000";
layers = (
{
anchors = (
{
name = bottom;
pos = (276,0);
},
{
name = top;
pos = (280,720);
}
);
background = {
shapes = (
{
closed = 1;
nodes = (
(402,-8,o),
(450,2,o),
(486,15,cs),
(497,20,o),
(498,24,o),
(499,33,cs),
(508,171,ls),
(509,180,o),
(504,184,o),
(496,185,cs),
(486,186,o),
(480,182,o),
(477,174,cs),
(467,133,ls),
(444,42,o),
(398,15,o),
(329,15,cs),
(228,15,o),
(136,118,o),
(136,309,cs),
(136,495,o),
(216,598,o),
(329,598,cs),
(386,598,o),
(431,570,o),
(457,480,cs),
(466,447,ls),
(468,439,o),
(475,435,o),
(484,436,cs),
(492,437,o),
(497,441,o),
(497,450,cs),
(491,580,ls),
(491,589,o),
(489,593,o),
(478,598,cs),
(442,611,o),
(394,620,o),
(332,620,cs),
(172,620,o),
(46,496,o),
(46,309,cs),
(46,116,o),
(159,-8,o),
(329,-8,cs)
);
}
);
};
layerId = m01;
shapes = (
{
closed = 1;
nodes = (
(402,-8,o),
(450,2,o),
(486,15,cs),
(497,20,o),
(501,24,o),
(501,33,cs),
(506,171,ls),
(506,180,o),
(501,184,o),
(493,185,cs),
(484,186,o),
(477,182,o),
(475,174,cs),
(461,133,ls),
(431,42,o),
(393,17,o),
(324,17,cs),
(228,17,o),
(136,118,o),
(136,309,cs),
(136,495,o),
(216,596,o),
(323,596,cs),
(381,596,o),
(422,567,o),
(454,479,cs),
(466,447,ls),
(468,439,o),
(473,436,o),
(482,436,cs),
(491,436,o),
(496,441,o),
(496,450,cs),
(492,580,ls),
(492,589,o),
(489,593,o),
(478,598,cs),
(442,611,o),
(394,620,o),
(332,620,cs),
(172,620,o),
(46,496,o),
(46,309,cs),
(46,116,o),
(159,-8,o),
(329,-8,cs)
);
}
);
width = 552;
}
);
unicode = 67;
},
{
glyphname = D;
kernLeft = H;
kernRight = O;
lastChange = "2022-09-01 20:50:56 +0000";
layers = (
{
anchors = (
{
name = bottom;
pos = (265,0);
},
{
name = center;
pos = (265,360);
},
{
name = top;
pos = (255,720);
}
);
background = {
shapes = (
{
closed = 0;
nodes = (
(254,23,l),
(223,23,ls),
(191,23,o),
(184,33,o),
(184,57,cs),
(184,555,ls),
(184,579,o),
(191,586,o),
(223,589,cs),
(254,592,ls),
(262,593,o),
(267,597,o),
(267,602,cs),
(267,609,o),
(261,612,o),
(250,612,cs),
(39,612,ls),
(28,612,o),
(22,609,o),
(22,603,cs),
(22,598,o),
(26,594,o),
(37,592,cs),
(63,589,ls),
(95,585,o),
(102,580,o),
(102,556,cs),
(102,56,ls),
(102,32,o),
(95,27,o),
(63,23,cs),
(37,20,ls),
(26,18,o),
(22,14,o),
(22,9,cs),
(22,3,o),
(28,0,o),
(39,0,cs),
(310,0,ls),
(458,0,o),
(575,129,o),
(575,307,cs),
(575,483,o),
(458,612,o),
(310,612,cs)
);
},
{
closed = 0;
nodes = (
(310,589,l),
(419,589,o),
(485,502,o),
(485,307,cs),
(485,110,o),
(419,23,o),
(310,23,cs)
);
}
);
};
layerId = m01;
shapes = (
{
closed = 1;
nodes = (
(260,0,ls),
(445,0,o),
(564,118,o),
(564,303,cs),
(564,487,o),
(451,612,o),
(271,612,cs),
(39,612,ls),
(28,612,o),
(22,609,o),
(22,603,cs),
(22,597,o),
(26,594,o),
(37,592,cs),
(63,589,ls),
(95,585,o),
(102,580,o),
(102,556,cs),
(102,56,ls),
(102,36,o),
(91,26,o),
(63,23,cs),
(37,20,ls),
(26,18,o),
(22,15,o),
(22,9,cs),
(22,3,o),
(28,0,o),
(39,0,cs)
);
},
{
closed = 1;
nodes = (
(207,22,o),
(184,39,o),
(184,84,cs),
(184,528,ls),
(184,569,o),
(215,590,o),
(271,590,cs),
(405,590,o),
(474,484,o),
(474,303,cs),
(474,121,o),
(400,22,o),
(264,22,cs)
);
}
);
width = 610;
}
);
unicode = 68;
},
{
glyphname = Eth;
kernLeft = H;
kernRight = O;
lastChange = "2022-08-23 19:52:33 +0000";
layers = (
{
layerId = m01;
shapes = (
{
ref = D;
},
{
closed = 1;
nodes = (
(327,304,ls),
(334,304,o),
(338,308,o),
(338,313,cs),
(338,320,ls),
(338,325,o),
(334,328,o),
(327,328,cs),
(33,328,ls),
(26,328,o),
(22,325,o),
(22,320,cs),
(22,313,ls),
(22,308,o),
(26,304,o),
(33,304,cs)
);
}
);
width = 610;
}
);
unicode = 208;
},
{
glyphname = E;
kernLeft = H;
kernRight = E;
lastChange = "2022-09-01 20:51:22 +0000";
layers = (
{
anchors = (
{
name = bottom;
pos = (227,0);
},
{
name = ogonek;
pos = (385,0);
},
{
name = top;
pos = (227,720);
},
{
name = topleft;
pos = (20,720);
}
);
background = {
shapes = (
{
closed = 1;
nodes = (
(443,0,ls),
(460,0,o),
(470,7,o),
(471,20,cs),
(483,171,ls),
(484,180,o),
(477,185,o),
(469,185,cs),
(460,185,o),
(454,181,o),
(452,174,cs),
(435,109,ls),
(416,38,o),
(363,21,o),
(283,21,cs),
(208,21,o),
(184,38,o),
(184,79,cs),
(184,292,ls),
(184,300,o),
(190,304,o),
(200,304,cs),
(260,304,ls),
(294,304,o),
(314,295,o),
(323,256,cs),
(332,214,ls),
(334,207,o),
(342,202,o),
(351,203,cs),
(359,204,o),
(363,208,o),
(363,218,cs),
(363,409,ls),
(363,418,o),
(359,422,o),
(351,423,cs),
(342,424,o),
(334,419,o),
(332,412,cs),
(323,370,ls),
(317,342,o),
(296,330,o),
(261,330,cs),
(200,330,ls),
(190,330,o),
(184,334,o),
(184,342,cs),
(184,547,ls),
(184,579,o),
(204,591,o),
(266,591,cs),
(346,591,o),
(411,573,o),
(424,495,cs),
(432,448,ls),
(434,441,o),
(439,437,o),
(448,437,cs),
(458,437,o),
(465,442,o),
(463,451,cs),
(454,592,ls),
(453,605,o),
(443,612,o),
(425,612,cs),
(39,612,ls),
(28,612,o),
(22,609,o),
(22,603,cs),
(22,598,o),
(26,594,o),
(37,592,cs),
(63,589,ls),
(95,585,o),
(102,580,o),
(102,556,cs),
(102,56,ls),
(102,32,o),
(95,27,o),
(63,23,cs),
(37,20,ls),
(26,18,o),
(22,14,o),
(22,9,cs),
(22,3,o),
(28,0,o),
(39,0,cs)
);
}
);
};
layerId = m01;
shapes = (
{
closed = 1;
nodes = (
(443,0,ls),
(460,0,o),
(470,7,o),
(471,20,cs),
(483,171,ls),
(484,180,o),
(477,185,o),
(469,185,cs),
(460,185,o),
(454,181,o),
(452,174,cs),
(438,124,ls),
(416,45,o),
(360,21,o),
(283,21,cs),
(208,21,o),
(184,38,o),
(184,79,cs),
(184,292,ls),
(184,300,o),
(190,304,o),
(200,304,cs),
(256,304,ls),
(291,304,o),
(309,295,o),
(320,256,cs),
(331,214,ls),
(334,207,o),
(342,202,o),
(351,203,cs),
(359,204,o),
(363,208,o),
(363,218,cs),
(363,409,ls),
(363,418,o),
(359,422,o),
(351,423,cs),
(342,424,o),
(334,419,o),
(331,412,cs),
(320,370,ls),
(312,342,o),
(292,330,o),
(258,330,cs),
(200,330,ls),
(190,330,o),
(184,334,o),
(184,342,cs),
(184,547,ls),
(184,579,o),
(204,591,o),
(266,591,cs),
(358,591,o),
(408,556,o),
(425,479,cs),
(432,448,ls),
(434,441,o),
(439,437,o),
(448,437,cs),
(458,437,o),
(465,442,o),
(463,451,cs),
(454,592,ls),
(453,605,o),
(443,612,o),
(425,612,cs),
(39,612,ls),
(28,612,o),
(22,609,o),
(22,603,cs),
(22,598,o),
(26,594,o),
(37,592,cs),
(63,589,ls),
(95,585,o),
(102,580,o),
(102,556,cs),
(102,56,ls),
(102,32,o),
(95,27,o),
(63,23,cs),
(37,20,ls),
(26,18,o),
(22,14,o),
(22,9,cs),
(22,3,o),
(28,0,o),
(39,0,cs)
);
}
);
width = 521;
}
);
unicode = 69;
},
{
glyphname = F;
kernLeft = H;
lastChange = "2022-09-01 20:52:39 +0000";
layers = (
{
background = {
shapes = (
{
closed = 1;
nodes = (
(273,0,ls),
(284,0,o),
(290,3,o),
(290,10,cs),
(290,15,o),
(285,19,o),
(277,20,cs),
(223,26,ls),
(191,29,o),
(184,37,o),
(184,60,cs),
(184,292,ls),
(184,300,o),
(190,304,o),
(200,304,cs),
(243,304,ls),
(277,304,o),
(297,295,o),
(306,256,cs),
(315,215,ls),
(316,208,o),
(324,203,o),
(334,204,cs),
(342,205,o),
(346,209,o),
(346,218,cs),
(346,408,ls),
(346,417,o),
(342,422,o),
(334,422,cs),
(324,423,o),
(316,418,o),
(315,411,cs),
(306,370,ls),
(300,342,o),
(278,330,o),
(244,330,cs),
(200,330,ls),
(190,330,o),
(184,334,o),
(184,342,cs),
(184,542,ls),
(184,575,o),
(204,591,o),
(271,591,cs),
(336,591,o),
(394,573,o),
(408,495,cs),
(416,448,ls),
(417,441,o),
(423,437,o),
(432,437,cs),
(442,437,o),
(448,442,o),
(447,451,cs),
(438,592,ls),
(437,605,o),
(427,612,o),
(409,612,cs),
(39,612,ls),
(28,612,o),
(22,609,o),
(22,603,cs),
(22,598,o),
(26,594,o),
(37,592,cs),
(63,589,ls),
(95,585,o),
(102,580,o),
(102,556,cs),
(102,56,ls),
(102,32,o),
(95,27,o),
(63,23,cs),
(37,20,ls),
(26,18,o),
(22,14,o),
(22,9,cs),
(22,3,o),
(28,0,o),
(39,0,cs)
);
}
);
};
layerId = m01;
shapes = (
{
closed = 1;
nodes = (
(273,0,ls),
(284,0,o),
(290,3,o),
(290,10,cs),
(290,15,o),
(285,19,o),
(277,20,cs),
(223,26,ls),
(191,29,o),
(184,37,o),
(184,60,cs),
(184,292,ls),
(184,300,o),
(190,304,o),
(200,304,cs),
(239,304,ls),
(274,304,o),
(291,295,o),
(302,256,cs),
(315,214,ls),
(317,207,o),
(323,203,o),
(332,203,cs),
(340,203,o),
(346,208,o),
(346,218,cs),
(346,409,ls),
(346,418,o),
(340,423,o),
(332,423,cs),
(323,423,o),
(317,419,o),
(315,412,cs),
(302,370,ls),
(294,342,o),
(275,330,o),
(240,330,cs),
(200,330,ls),
(190,330,o),
(184,334,o),
(184,342,cs),
(184,542,ls),
(184,575,o),
(204,591,o),
(271,591,cs),
(324,591,o),
(392,564,o),
(411,476,cs),
(416,448,ls),
(417,441,o),
(423,437,o),
(432,437,cs),
(442,437,o),
(448,442,o),
(447,451,cs),
(438,592,ls),
(437,605,o),
(427,612,o),
(409,612,cs),
(39,612,ls),
(28,612,o),
(22,609,o),
(22,603,cs),
(22,598,o),
(26,594,o),
(37,592,cs),
(63,589,ls),
(95,585,o),
(102,580,o),
(102,556,cs),
(102,56,ls),
(102,32,o),
(95,27,o),
(63,23,cs),
(37,20,ls),
(26,18,o),
(22,14,o),
(22,9,cs),
(22,3,o),
(28,0,o),
(39,0,cs)
);
}
);
width = 469;
}
);
unicode = 70;
},
{
glyphname = G;
kernLeft = O;
kernRight = G;
lastChange = "2022-09-01 20:53:01 +0000";
layers = (
{
anchors = (
{
name = bottom;
pos = (291,0);
},
{
name = top;
pos = (291,720);
}
);
background = {
shapes = (
{
closed = 1;
nodes = (
(402,-8,o),
(450,2,o),
(486,15,cs),
(497,20,o),
(498,24,o),
(499,33,cs),
(508,171,ls),
(509,180,o),
(504,184,o),
(496,185,cs),
(486,186,o),
(480,182,o),
(477,174,cs),
(467,133,ls),
(444,42,o),
(398,15,o),
(329,15,cs),
(228,15,o),
(136,118,o),
(136,309,cs),
(136,495,o),
(216,598,o),
(329,598,cs),
(386,598,o),
(431,570,o),
(457,480,cs),
(466,447,ls),
(468,439,o),
(475,435,o),
(484,436,cs),
(492,437,o),
(497,441,o),
(497,450,cs),
(491,580,ls),
(491,589,o),
(489,593,o),
(478,598,cs),
(442,611,o),
(394,620,o),
(332,620,cs),
(172,620,o),
(46,496,o),
(46,309,cs),
(46,116,o),
(159,-8,o),
(329,-8,cs)
);
}
);
};
guides = (
{
pos = (361,730);
},
{
angle = 90;
pos = (452,530);
}
);
layerId = m01;
shapes = (
{
closed = 1;
nodes = (
(397,-8,o),
(444,2,o),
(481,15,cs),
(504,24,o),
(512,30,o),
(512,42,cs),
(512,273,ls),
(512,297,o),
(513,305,o),
(546,309,cs),
(564,310,ls),
(572,311,o),
(576,314,o),
(576,320,cs),
(576,326,o),
(570,330,o),
(559,330,cs),
(348,330,ls),
(337,330,o),
(331,326,o),
(331,320,cs),
(331,315,o),
(336,311,o),
(346,310,cs),
(391,307,ls),
(423,304,o),
(430,298,o),
(430,274,cs),
(430,88,ls),
(430,32,o),
(398,15,o),
(335,15,cs),
(217,15,o),
(136,118,o),
(136,309,cs),
(136,495,o),
(216,596,o),
(329,596,cs),
(404,596,o),
(440,567,o),
(475,473,cs),
(484,447,ls),
(486,439,o),
(491,436,o),
(500,436,cs),
(508,436,o),
(514,441,o),
(514,450,cs),
(511,580,ls),
(511,589,o),
(506,593,o),
(496,598,cs),
(459,611,o),
(409,620,o),
(350,620,cs),
(172,620,o),
(46,496,o),
(46,309,cs),
(46,116,o),
(147,-8,o),
(335,-8,cs)
);
}
);
width = 599;
}
);
unicode = 71;
},
{
glyphname = H;
kernLeft = H;
kernRight = H;
lastChange = "2022-09-01 20:53:06 +0000";
layers = (
{
background = {
shapes = (
{
closed = 1;
nodes = (
(263,0,l),
(263,19,l),
(213,25,ls),
(191,27,o),
(184,32,o),
(184,53,cs),
(184,304,l),
(444,304,l),
(444,53,ls),
(444,32,o),
(437,27,o),
(415,25,cs),
(365,19,l),
(365,0,l),
(606,0,l),
(606,19,l),
(554,25,ls),
(532,27,o),
(526,32,o),
(526,53,cs),
(526,559,ls),
(526,580,o),
(532,585,o),
(554,587,cs),
(606,593,l),
(606,612,l),
(365,612,l),
(365,593,l),
(415,587,ls),
(437,585,o),
(444,580,o),
(444,559,cs),
(444,330,l),
(184,330,l),
(184,559,ls),
(184,580,o),
(191,585,o),
(213,587,cs),
(263,593,l),
(263,612,l),
(22,612,l),
(22,593,l),
(74,587,ls),
(95,585,o),
(102,580,o),
(102,559,cs),
(102,53,ls),
(102,32,o),
(95,27,o),
(74,25,cs),
(22,19,l),
(22,0,l)
);
}
);
};
layerId = m01;
shapes = (
{
closed = 1;
nodes = (
(250,0,ls),
(261,0,o),
(267,3,o),
(267,10,cs),
(267,15,o),
(262,19,o),
(254,20,cs),
(223,23,ls),
(191,26,o),
(184,33,o),
(184,57,cs),
(184,292,ls),
(184,300,o),
(190,304,o),
(200,304,cs),
(428,304,ls),
(438,304,o),
(444,300,o),
(444,292,cs),
(444,57,ls),
(444,33,o),
(437,26,o),
(405,23,cs),
(374,20,ls),
(366,19,o),
(361,15,o),
(361,10,cs),
(361,3,o),
(367,0,o),
(378,0,cs),
(589,0,ls),
(600,0,o),
(606,3,o),
(606,9,cs),
(606,14,o),
(601,18,o),
(591,20,cs),
(565,23,ls),
(532,27,o),
(526,32,o),
(526,56,cs),
(526,556,ls),
(526,580,o),
(532,585,o),
(565,589,cs),
(591,592,ls),
(601,594,o),
(606,598,o),
(606,603,cs),
(606,609,o),
(600,612,o),
(589,612,cs),
(378,612,ls),
(367,612,o),
(361,609,o),
(361,602,cs),
(361,597,o),
(366,593,o),
(374,592,cs),
(405,589,ls),
(437,586,o),
(444,579,o),
(444,555,cs),
(444,342,ls),
(444,334,o),
(438,330,o),
(428,330,cs),
(200,330,ls),
(190,330,o),
(184,334,o),
(184,342,cs),
(184,555,ls),
(184,579,o),
(191,586,o),
(223,589,cs),
(254,592,ls),
(262,593,o),
(267,597,o),
(267,602,cs),
(267,609,o),
(261,612,o),
(250,612,cs),
(39,612,ls),
(28,612,o),
(22,609,o),
(22,603,cs),
(22,598,o),
(26,594,o),
(37,592,cs),
(63,589,ls),
(95,585,o),
(102,580,o),
(102,556,cs),
(102,56,ls),
(102,32,o),
(95,27,o),
(63,23,cs),
(37,20,ls),
(26,18,o),
(22,14,o),
(22,9,cs),
(22,3,o),
(28,0,o),
(39,0,cs)
);
}
);
width = 628;
}
);
unicode = 72;
},
{
glyphname = Hbar;
kernLeft = H;
kernRight = H;
lastChange = "2022-08-23 19:52:53 +0000";
layers = (
{
layerId = m01;
shapes = (
{
ref = H;
},
{
closed = 1;
nodes = (
(595,452,ls),
(601,452,o),
(606,456,o),
(606,461,cs),
(606,468,ls),
(606,473,o),
(601,476,o),
(595,476,cs),
(33,476,ls),
(26,476,o),
(22,473,o),
(22,468,cs),
(22,461,ls),
(22,456,o),
(26,452,o),
(33,452,cs)
);
}
);
width = 628;
}
);
unicode = 294;
},
{
glyphname = I;
kernLeft = H;
kernRight = H;
lastChange = "2022-08-25 19:54:44 +0000";
layers = (
{
anchors = (
{
name = bottom;
pos = (125,0);
},
{
name = ogonek;
pos = (160,0);
},
{
name = top;
pos = (125,720);
},
{
name = topleft;
pos = (20,720);
}
);
background = {
shapes = (
{
closed = 1;
nodes = (
(264,0,l),
(264,19,l),
(213,25,ls),
(191,27,o),
(184,32,o),
(184,53,cs),
(184,559,ls),
(184,580,o),
(191,585,o),
(213,587,cs),
(264,593,l),
(264,612,l),
(22,612,l),
(22,593,l),
(74,587,ls),
(95,585,o),
(102,580,o),
(102,559,cs),
(102,53,ls),
(102,32,o),
(95,27,o),
(74,25,cs),
(22,19,l),
(22,0,l)
);
}
);
};
layerId = m01;
shapes = (
{
closed = 1;
nodes = (
(247,0,ls),
(259,0,o),
(264,3,o),
(264,9,cs),
(264,14,o),
(260,18,o),
(250,20,cs),
(223,23,ls),
(191,27,o),
(184,32,o),
(184,56,cs),
(184,556,ls),
(184,580,o),
(191,585,o),
(223,589,cs),
(250,592,ls),
(260,594,o),
(264,598,o),
(264,603,cs),
(264,609,o),
(259,612,o),
(247,612,cs),
(39,612,ls),
(28,612,o),
(22,609,o),
(22,603,cs),
(22,598,o),
(26,594,o),
(37,592,cs),
(63,589,ls),
(95,585,o),
(102,580,o),
(102,556,cs),
(102,56,ls),
(102,32,o),
(95,27,o),
(63,23,cs),
(37,20,ls),
(26,18,o),
(22,14,o),
(22,9,cs),
(22,3,o),
(28,0,o),
(39,0,cs)
);
}
);
width = 286;
}
);
unicode = 73;
},
{
glyphname = J;
kernRight = J;
lastChange = "2022-09-01 21:01:27 +0000";
layers = (
{
layerId = m01;
shapes = (
{
closed = 1;
nodes = (
(120,-183,o),
(184,-99,o),
(184,37,cs),
(184,556,ls),
(184,580,o),
(191,585,o),
(223,589,cs),
(250,592,ls),
(260,594,o),
(264,597,o),
(264,603,cs),
(264,609,o),
(259,612,o),
(247,612,cs),
(39,612,ls),
(28,612,o),
(22,609,o),
(22,603,cs),
(22,597,o),
(26,594,o),
(37,592,cs),
(63,589,ls),
(95,585,o),
(102,580,o),
(102,556,cs),
(102,-77,ls),
(102,-122,o),
(86,-149,o),
(57,-149,cs),
(16,-149,o),
(33,-93,o),
(-15,-109,cs),
(-39,-109,o),
(-56,-128,o),
(-56,-155,cs),
(-56,-191,o),
(-28,-215,o),
(16,-183,cs)
);
}
);
width = 286;
}
);
unicode = 74;
},
{
glyphname = K;
kernLeft = H;
kernRight = K;
lastChange = "2022-09-01 20:53:20 +0000";
layers = (
{
anchors = (
{
name = bottom;
pos = (268,0);
},
{
name = top;
pos = (248,720);
}
);
background = {
shapes = (
{
closed = 1;
nodes = (
(250,0,ls),
(261,0,o),
(267,3,o),
(267,10,cs),
(267,15,o),
(262,19,o),
(254,20,cs),
(223,23,ls),
(191,26,o),
(184,33,o),
(184,57,cs),
(184,555,ls),
(184,579,o),
(191,586,o),
(223,589,cs),
(254,592,ls),
(262,593,o),
(267,597,o),
(267,602,cs),
(267,609,o),
(261,612,o),
(250,612,cs),
(39,612,ls),
(28,612,o),
(22,609,o),
(22,603,cs),
(22,598,o),
(26,594,o),
(37,592,cs),
(63,589,ls),
(95,585,o),
(102,580,o),
(102,556,cs),
(102,56,ls),
(102,32,o),
(95,27,o),
(63,23,cs),
(37,20,ls),
(26,18,o),
(22,14,o),
(22,9,cs),
(22,3,o),
(28,0,o),
(39,0,cs)
);
},
{
closed = 1;
nodes = (
(424,530,ls),
(462,574,o),
(488,587,o),
(535,591,cs),
(557,592,ls),
(568,593,o),
(572,598,o),
(572,603,cs),
(572,609,o),
(566,612,o),
(555,612,cs),
(360,612,ls),
(350,612,o),
(344,609,o),
(344,604,cs),
(344,598,o),
(348,594,o),
(359,592,cs),
(385,589,ls),
(416,585,o),
(417,569,o),
(392,540,cs),
(190,305,l),
(176,305,l),
(176,243,l)
);
},
{
closed = 1;
nodes = (
(228,316,l),
(228,306,l),
(236,306,l),
(409,63,ls),
(427,38,o),
(420,24,o),
(391,21,cs),
(371,20,ls),
(362,19,o),
(356,14,o),
(356,9,cs),
(356,4,o),
(362,0,o),
(373,0,cs),
(577,0,ls),
(588,0,o),
(593,3,o),
(593,9,cs),
(593,15,o),
(589,19,o),
(580,20,cs),
(552,23,ls),
(534,26,o),
(522,32,o),
(509,50,cs),
(278,371,l)
);
}
);
};
layerId = m01;
shapes = (
{
closed = 1;
nodes = (
(250,0,ls),
(261,0,o),
(267,3,o),
(267,10,cs),
(267,15,o),
(262,19,o),
(254,20,cs),
(223,23,ls),
(191,26,o),
(184,33,o),
(184,57,cs),
(184,233,ls),
(184,249,o),
(187,257,o),
(198,269,cs),
(222,297,ls),
(229,305,o),
(238,304,o),
(244,296,cs),
(409,63,ls),
(427,38,o),
(420,24,o),
(391,21,cs),
(371,20,ls),
(362,19,o),
(356,14,o),
(356,9,cs),
(356,4,o),
(362,0,o),
(373,0,cs),
(577,0,ls),
(588,0,o),
(593,3,o),
(593,9,cs),
(593,15,o),
(589,19,o),
(580,20,cs),
(552,23,ls),
(534,26,o),
(522,32,o),
(509,50,cs),
(293,351,ls),
(286,360,o),
(286,369,o),
(294,379,cs),
(424,530,ls),
(462,574,o),
(488,587,o),
(535,591,cs),
(557,592,ls),
(568,593,o),
(572,598,o),
(572,603,cs),
(572,609,o),
(566,612,o),
(555,612,cs),
(360,612,ls),
(350,612,o),
(344,609,o),
(344,604,cs),
(344,598,o),
(348,594,o),
(359,592,cs),
(385,589,ls),
(416,585,o),
(417,569,o),
(392,540,cs),
(204,321,ls),
(195,311,o),
(184,314,o),
(184,326,cs),
(184,555,ls),
(184,579,o),
(191,586,o),
(223,589,cs),
(254,592,ls),
(262,593,o),
(267,597,o),
(267,602,cs),
(267,609,o),
(261,612,o),
(250,612,cs),
(39,612,ls),
(28,612,o),
(22,609,o),
(22,603,cs),
(22,598,o),
(26,594,o),
(37,592,cs),
(63,589,ls),
(95,585,o),
(102,580,o),
(102,556,cs),
(102,56,ls),
(102,32,o),
(95,27,o),
(63,23,cs),
(37,20,ls),
(26,18,o),
(22,14,o),
(22,9,cs),
(22,3,o),
(28,0,o),
(39,0,cs)
);
}
);
width = 570;
}
);
unicode = 75;
},
{
glyphname = L;
kernLeft = H;
kernRight = L;
lastChange = "2022-09-01 20:16:45 +0000";
layers = (
{
anchors = (
{
name = bottom;
pos = (207,0);
},
{
name = center;
pos = (207,360);
},
{
name = top;
pos = (125,720);
},
{
name = topright;
pos = (275,720);
}
);
layerId = m01;
shapes = (
{
closed = 1;
nodes = (
(411,0,ls),
(428,0,o),
(438,7,o),
(439,20,cs),
(453,179,ls),
(454,189,o),
(447,194,o),
(439,194,cs),
(430,194,o),
(424,190,o),
(422,183,cs),
(407,126,ls),
(384,38,o),
(320,21,o),
(267,21,cs),
(220,21,o),
(184,38,o),
(184,79,cs),
(184,555,ls),
(184,579,o),
(191,586,o),
(223,589,cs),
(254,592,ls),
(262,593,o),
(267,597,o),
(267,602,cs),
(267,609,o),
(261,612,o),
(250,612,cs),
(39,612,ls),
(28,612,o),
(22,609,o),
(22,603,cs),
(22,598,o),
(26,594,o),
(37,592,cs),
(63,589,ls),
(95,585,o),
(102,580,o),
(102,556,cs),
(102,56,ls),
(102,32,o),
(95,27,o),
(63,23,cs),
(37,20,ls),
(26,18,o),
(22,14,o),
(22,9,cs),
(22,3,o),
(28,0,o),
(39,0,cs)
);
}
);
width = 475;
}
);
unicode = 76;
},
{
glyphname = Lslash;
kernLeft = H;
kernRight = L;
lastChange = "2022-08-23 19:53:25 +0000";
layers = (
{
layerId = m01;
shapes = (
{
ref = L;
},
{
closed = 1;
nodes = (
(158,326,l),
(17,261,ls),
(12,258,o),
(10,253,o),
(14,249,cs),
(20,243,ls),
(23,239,o),
(29,238,o),
(34,241,cs),
(158,298,l)
);
},
{
closed = 1;
nodes = (
(158,300,l),
(304,367,ls),
(309,370,o),
(310,375,o),
(307,379,cs),
(301,385,ls),
(298,389,o),
(292,390,o),
(286,388,cs),
(158,328,l)
);
}
);
width = 475;
}
);
unicode = 321;
},
{
glyphname = M;
lastChange = "2022-09-01 20:53:28 +0000";
layers = (
{
background = {
shapes = (
{
closed = 1;
nodes = (
(368,8,o),
(376,11,o),
(379,22,cs),
(560,562,l),
(575,562,l),
(577,612,l),
(573,612,ls),
(551,612,o),
(540,605,o),
(536,591,cs),
(386,150,l),
(381,150,l),
(238,586,ls),
(232,604,o),
(218,612,o),
(194,612,cs),
(146,612,l),
(344,22,ls),
(347,11,o),
(355,8,o),
(362,8,cs)
);
},
{
closed = 1;
nodes = (
(731,0,ls),
(743,0,o),
(749,3,o),
(749,9,cs),
(749,14,o),
(744,18,o),
(734,20,cs),
(707,23,ls),
(675,27,o),
(669,32,o),
(668,56,cs),
(645,556,ls),
(644,580,o),
(652,585,o),
(684,589,cs),
(711,592,ls),
(721,594,o),
(726,598,o),
(726,603,cs),
(726,609,o),
(720,612,o),
(708,612,cs),
(577,612,l),
(565,582,l),
(586,56,ls),
(588,32,o),
(580,27,o),
(547,23,cs),
(521,20,ls),
(511,18,o),
(506,14,o),
(506,9,cs),
(506,3,o),
(512,0,o),
(523,0,cs)
);
},
{
closed = 1;
nodes = (
(168,612,l),
(56,612,ls),
(45,612,o),
(39,609,o),
(39,603,cs),
(39,598,o),
(44,594,o),
(54,592,cs),
(80,589,ls),
(115,585,o),
(123,580,o),
(122,556,cs),
(99,73,ls),
(98,41,o),
(86,26,o),
(46,21,cs),
(31,20,ls),
(21,19,o),
(16,14,o),
(16,9,cs),
(16,3,o),
(22,0,o),
(33,0,cs),
(198,0,ls),
(209,0,o),
(215,3,o),
(215,9,cs),
(215,14,o),
(210,19,o),
(200,20,cs),
(185,21,ls),
(147,26,o),
(133,41,o),
(135,73,cs),
(158,562,l),
(163,562,l)
);
}
);
};
guides = (
{
angle = 177.9834;
pos = (96,370);
showMeasurement = 1;
},
{
angle = 1.9481;
pos = (571,360);
showMeasurement = 1;
}
);
layerId = m01;
shapes = (
{
closed = 1;
nodes = (
(368,8,o),
(376,11,o),
(379,22,cs),
(554,544,ls),
(557,551,o),
(567,550,o),
(567,542,cs),
(586,56,ls),
(588,32,o),
(580,27,o),
(547,23,cs),
(521,20,ls),
(511,18,o),
(506,14,o),
(506,9,cs),
(506,3,o),
(512,0,o),
(523,0,cs),
(731,0,ls),
(743,0,o),
(749,3,o),
(749,9,cs),
(749,14,o),
(744,18,o),
(734,20,cs),
(707,23,ls),
(675,27,o),
(669,32,o),
(668,56,cs),
(645,556,ls),
(644,580,o),
(652,585,o),
(684,589,cs),
(711,592,ls),
(721,594,o),
(726,598,o),
(726,603,cs),
(726,609,o),
(720,612,o),
(708,612,cs),
(573,612,ls),
(551,612,o),
(540,605,o),
(536,591,cs),
(391,162,ls),
(389,155,o),
(379,155,o),
(377,162,cs),
(238,586,ls),
(232,604,o),
(218,612,o),
(194,612,cs),
(56,612,ls),
(45,612,o),
(39,609,o),
(39,603,cs),
(39,598,o),
(44,594,o),
(54,592,cs),
(80,589,ls),
(115,585,o),
(123,580,o),
(122,556,cs),
(99,73,ls),
(98,41,o),
(86,26,o),
(46,21,cs),
(31,20,ls),
(21,19,o),
(16,14,o),
(16,9,cs),
(16,3,o),
(22,0,o),
(33,0,cs),
(198,0,ls),
(209,0,o),
(215,3,o),
(215,9,cs),
(215,14,o),
(210,19,o),
(200,20,cs),
(185,21,ls),
(147,26,o),
(133,41,o),
(135,73,cs),
(158,542,ls),
(158,550,o),
(168,551,o),
(170,543,cs),
(344,22,ls),
(347,11,o),
(355,8,o),
(362,8,cs)
);
}
);
width = 765;
}
);
unicode = 77;
},
{
glyphname = N;
kernLeft = N;
kernRight = N;
lastChange = "2022-09-01 20:53:33 +0000";
layers = (
{
anchors = (
{
name = bottom;
pos = (270,0);
},
{
name = top;
pos = (270,720);
}
);
background = {
shapes = (
{
closed = 1;
nodes = (
(511,-8,o),
(520,-1,o),
(520,11,cs),
(520,539,ls),
(520,575,o),
(532,586,o),
(573,591,cs),
(588,592,ls),
(598,593,o),
(603,598,o),
(603,603,cs),
(603,609,o),
(597,612,o),
(585,612,cs),
(421,612,ls),
(409,612,o),
(404,609,o),
(404,603,cs),
(404,598,o),
(408,594,o),
(419,592,cs),
(439,590,ls),
(466,586,o),
(484,575,o),
(484,539,cs),
(484,140,l),
(478,140,l),
(187,593,ls),
(178,607,o),
(167,612,o),
(147,612,cs),
(36,612,ls),
(24,612,o),
(18,609,o),
(18,603,cs),
(18,598,o),
(23,594,o),
(33,592,cs),
(60,589,ls),
(94,585,o),
(101,580,o),
(101,556,cs),
(101,73,ls),
(101,41,o),
(89,26,o),
(48,21,cs),
(33,20,ls),
(23,19,o),
(18,14,o),
(18,9,cs),
(18,3,o),
(24,0,o),
(36,0,cs),
(200,0,ls),
(212,0,o),
(217,3,o),
(217,9,cs),
(217,14,o),
(213,19,o),
(202,20,cs),
(187,21,ls),
(150,26,o),
(137,41,o),
(137,73,cs),
(137,524,l),
(143,524,l),
(475,6,ls),
(482,-4,o),
(488,-8,o),
(499,-8,cs)
);
}
);
};
layerId = m01;
shapes = (
{
closed = 1;
nodes = (
(508,-8,o),
(520,-1,o),
(520,20,cs),
(520,539,ls),
(520,575,o),
(532,586,o),
(573,591,cs),
(588,592,ls),
(598,593,o),
(603,598,o),
(603,603,cs),
(603,609,o),
(597,612,o),
(585,612,cs),
(421,612,ls),
(409,612,o),
(404,609,o),
(404,603,cs),
(404,598,o),
(408,594,o),
(419,592,cs),
(439,590,ls),
(466,586,o),
(484,575,o),
(484,539,cs),
(484,154,ls),
(484,147,o),
(475,145,o),
(470,152,cs),
(199,593,ls),
(191,607,o),
(178,612,o),
(159,612,cs),
(36,612,ls),
(24,612,o),
(18,609,o),
(18,603,cs),
(18,598,o),
(23,594,o),
(33,592,cs),
(60,589,ls),
(94,585,o),
(101,580,o),
(101,556,cs),
(101,73,ls),
(101,41,o),
(89,26,o),
(48,21,cs),
(33,20,ls),
(23,19,o),
(18,14,o),
(18,9,cs),
(18,3,o),
(24,0,o),
(36,0,cs),
(200,0,ls),
(212,0,o),
(217,3,o),
(217,9,cs),
(217,14,o),
(213,19,o),
(202,20,cs),
(187,21,ls),
(150,26,o),
(137,41,o),
(137,73,cs),
(137,510,ls),
(137,518,o),
(146,520,o),
(151,513,cs),
(462,13,ls),
(471,-3,o),
(478,-8,o),
(493,-8,cs)
);
}
);
width = 621;
}
);
unicode = 78;
},
{
glyphname = Eng;
kernLeft = N;
kernRight = N;
lastChange = "2022-08-23 20:12:33 +0000";
layers = (
{
layerId = m01;
shapes = (
{
closed = 1;
nodes = (
(455,-183,o),
(520,-99,o),
(520,37,cs),
(520,539,ls),
(520,575,o),
(532,586,o),
(573,591,cs),
(588,592,ls),
(598,593,o),
(603,598,o),
(603,603,cs),
(603,609,o),
(597,612,o),
(585,612,cs),
(421,612,ls),
(409,612,o),
(404,609,o),
(404,603,cs),
(404,598,o),
(408,594,o),
(419,592,cs),
(439,590,ls),
(466,586,o),
(484,575,o),
(484,539,cs),
(484,154,ls),
(484,147,o),
(475,145,o),
(470,152,cs),
(187,593,ls),
(178,607,o),
(167,612,o),
(147,612,cs),
(36,612,ls),
(24,612,o),
(18,609,o),
(18,603,cs),
(18,598,o),
(23,594,o),
(33,592,cs),
(60,589,ls),
(94,585,o),
(101,580,o),
(101,556,cs),
(101,73,ls),
(101,41,o),
(89,26,o),
(48,21,cs),
(33,20,ls),
(23,19,o),
(18,14,o),
(18,9,cs),
(18,3,o),
(24,0,o),
(36,0,cs),
(200,0,ls),
(212,0,o),
(217,3,o),
(217,9,cs),
(217,14,o),
(213,19,o),
(202,20,cs),
(187,21,ls),
(150,26,o),
(137,41,o),
(137,73,cs),
(137,510,ls),
(137,518,o),
(146,520,o),
(151,513,cs),
(434,70,ls),
(439,60,o),
(442,54,o),
(442,44,cs),
(442,-77,ls),
(442,-122,o),
(425,-149,o),
(397,-149,cs),
(355,-149,o),
(371,-101,o),
(323,-101,cs),
(296,-101,o),
(278,-117,o),
(278,-137,cs),
(278,-164,o),
(310,-183,o),
(355,-183,cs)
);
}
);
width = 621;
}
);
unicode = 330;
},
{
glyphname = O;
kernLeft = O;
kernRight = O;
lastChange = "2022-09-01 19:27:44 +0000";
layers = (
{
anchors = (
{
name = bottom;
pos = (270,0);
},
{
name = center;
pos = (270,360);
},
{
name = ogonek;
pos = (486,10);
},
{
name = top;
pos = (270,720);
},
{
name = topleft;
pos = (20,720);
},
{
name = topright;
pos = (520,720);
}
);
background = {
shapes = (
{
pos = (-3,0);
ref = H;
}
);
};
guides = (
{
pos = (459,730);
},
{
angle = 90;
pos = (40,665);
},
{
angle = 90;
pos = (500,665);
}
);
layerId = m01;
shapes = (
{
closed = 1;
nodes = (
(458,-8,o),
(575,130,o),
(575,307,cs),
(575,483,o),
(458,620,o),
(310,620,cs),
(162,620,o),
(46,483,o),
(46,307,cs),
(46,130,o),
(162,-8,o),
(310,-8,cs)
);
},
{
closed = 1;
nodes = (
(202,15,o),
(137,110,o),
(137,307,cs),
(137,502,o),
(202,598,o),
(310,598,cs),
(419,598,o),
(484,502,o),
(484,307,cs),
(484,110,o),
(419,15,o),
(310,15,cs)
);
}
);
width = 621;
}
);
unicode = 79;
},
{
glyphname = Oslash;
kernLeft = O;
kernRight = O;
lastChange = "2022-08-23 19:53:48 +0000";
layers = (
{
background = {
shapes = (
{
closed = 1;
nodes = (
(91,-51,ls),
(97,-51,o),
(101,-49,o),
(103,-44,cs),
(393,457,ls),
(397,463,o),
(392,468,o),
(384,468,cs),
(376,468,ls),
(370,468,o),
(366,466,o),
(363,461,cs),
(74,-41,ls),
(70,-47,o),
(75,-51,o),
(83,-51,cs)
);
}
);
};
layerId = m01;
shapes = (
{
ref = O;
},
{
closed = 1;
nodes = (
(112,-51,ls),
(117,-51,o),
(122,-49,o),
(124,-44,cs),
(532,661,ls),
(536,667,o),
(531,672,o),
(523,672,cs),
(511,672,ls),
(505,672,o),
(500,670,o),
(498,665,cs),
(90,-41,ls),
(86,-47,o),
(91,-51,o),
(99,-51,cs)
);
}
);
width = 621;
}
);
unicode = 216;
},
{
glyphname = OE;
kernLeft = O;
kernRight = E;
lastChange = "2022-08-23 19:53:43 +0000";
layers = (
{
layerId = m01;
shapes = (
{
closed = 1;
nodes = (
(361,-8,o),
(396,0,o),
(447,0,cs),
(788,0,ls),
(805,0,o),
(815,7,o),
(816,20,cs),
(828,171,ls),
(829,180,o),
(822,185,o),
(814,185,cs),
(805,185,o),
(799,181,o),
(797,174,cs),
(783,124,ls),
(761,45,o),
(705,21,o),
(628,21,cs),
(553,21,o),
(529,38,o),
(529,79,cs),
(529,292,ls),
(529,300,o),
(535,304,o),
(545,304,cs),
(601,304,ls),
(636,304,o),
(654,295,o),
(665,256,cs),
(676,214,ls),
(678,207,o),
(687,202,o),
(696,203,cs),
(704,204,o),
(708,208,o),
(708,218,cs),
(708,409,ls),
(708,418,o),
(704,422,o),
(696,423,cs),
(687,424,o),
(678,419,o),
(676,412,cs),
(665,370,ls),
(657,342,o),
(637,330,o),
(603,330,cs),
(545,330,ls),
(535,330,o),
(529,334,o),
(529,342,cs),
(529,547,ls),
(529,579,o),
(549,591,o),
(611,591,cs),
(703,591,o),
(753,556,o),
(770,479,cs),
(777,448,ls),
(779,441,o),
(784,437,o),
(793,437,cs),
(803,437,o),
(810,442,o),
(808,451,cs),
(799,592,ls),
(798,605,o),
(788,612,o),
(770,612,cs),
(447,612,ls),
(396,612,o),
(361,620,o),
(315,620,cs),
(155,620,o),
(46,482,o),
(46,305,cs),
(46,130,o),
(155,-8,o),
(315,-8,cs)
);
},
{
closed = 1;
nodes = (
(191,15,o),
(137,110,o),
(137,305,cs),
(137,502,o),
(191,597,o),
(320,597,cs),
(396,597,o),
(447,571,o),
(447,513,cs),
(447,99,ls),
(447,42,o),
(396,15,o),
(320,15,cs)
);
}
);
width = 866;
}
);
metricLeft = O;
metricRight = E;
unicode = 338;
},
{
glyphname = P;
kernLeft = H;
lastChange = "2022-09-01 20:53:52 +0000";
layers = (
{
background = {
shapes = (
{
closed = 1;
nodes = (
(184,271,ls),
(184,280,o),
(185,286,o),
(195,286,cs),
(206,286,o),
(215,284,o),
(229,280,cs),
(241,278,o),
(261,276,o),
(292,276,cs),
(411,276,o),
(508,342,o),
(508,437,cs),
(508,551,o),
(408,612,o),
(283,612,cs),
(238,612,o),
(187,608,o),
(143,608,cs),
(113,608,o),
(79,612,o),
(44,612,cs),
(26,612,o),
(24,606,o),
(24,599,cs),
(24,589,o),
(32,589,o),
(69,585,cs),
(92,583,o),
(102,571,o),
(102,539,cs),
(102,66,ls),
(102,42,o),
(95,29,o),
(74,27,cs),
(32,23,o),
(24,21,o),
(24,9,cs),
(24,3,o),
(31,0,o),
(49,0,cs),
(63,0,o),
(78,4,o),
(150,4,cs),
(220,4,o),
(240,0,o),
(259,0,cs),
(274,0,o),
(282,6,o),
(282,13,cs),
(282,23,o),
(260,22,o),
(220,27,cs),
(193,30,o),
(184,44,o),
(184,76,cs)
);
},
{
closed = 1;
nodes = (
(184,557,ls),
(184,579,o),
(201,589,o),
(251,589,cs),
(359,589,o),
(419,531,o),
(419,442,cs),
(419,357,o),
(362,299,o),
(254,299,cs),
(229,299,o),
(210,305,o),
(200,313,cs),
(187,320,o),
(184,328,o),
(184,337,cs)
);
}
);
};
guides = (
{
pos = (261,326);
}
);
layerId = m01;
shapes = (
{
closed = 1;
nodes = (
(273,0,ls),
(284,0,o),
(290,3,o),
(290,10,cs),
(290,15,o),
(285,19,o),
(277,20,cs),
(235,25,ls),
(192,30,o),
(184,36,o),
(184,60,cs),
(184,265,ls),
(184,273,o),
(190,277,o),
(200,277,cs),
(283,277,ls),
(415,277,o),
(508,345,o),
(508,442,cs),
(508,542,o),
(415,612,o),
(279,612,cs),
(39,612,ls),
(28,612,o),
(22,609,o),
(22,603,cs),
(22,597,o),
(26,594,o),
(37,592,cs),
(63,589,ls),
(95,585,o),
(102,580,o),
(102,556,cs),
(102,56,ls),
(102,32,o),
(95,27,o),
(63,23,cs),
(37,20,ls),
(26,18,o),
(22,15,o),
(22,9,cs),
(22,3,o),
(28,0,o),
(39,0,cs)
);
},
{
closed = 1;
nodes = (
(184,557,l),
(184,581,o),
(206,591,o),
(254,591,cs),
(361,591,o),
(422,537,o),
(422,445,cs),
(422,354,o),
(361,298,o),
(261,298,cs),
(208,298,o),
(184,313,o),
(184,345,cs)
);
}
);
width = 536;
}
);
unicode = 80;
},
{
glyphname = Thorn;
kernLeft = H;
lastChange = "2022-08-23 19:53:56 +0000";
layers = (
{
background = {
shapes = (
{
closed = 1;
nodes = (
(273,0,ls),
(284,0,o),
(290,3,o),
(290,10,cs),
(290,15,o),
(285,19,o),
(277,20,cs),
(235,25,ls),
(192,30,o),
(184,36,o),
(184,60,cs),
(184,265,ls),
(184,273,o),
(190,277,o),
(200,277,cs),
(283,277,ls),
(415,277,o),
(508,345,o),
(508,442,cs),
(508,542,o),
(415,612,o),
(279,612,cs),
(39,612,ls),
(28,612,o),
(22,609,o),
(22,603,cs),
(22,597,o),
(26,594,o),
(37,592,cs),
(63,589,ls),
(95,585,o),
(102,580,o),
(102,556,cs),
(102,56,ls),
(102,32,o),
(95,27,o),
(63,23,cs),
(37,20,ls),
(26,18,o),
(22,15,o),
(22,9,cs),
(22,3,o),
(28,0,o),
(39,0,cs)
);
},
{
closed = 1;
nodes = (
(184,557,l),
(184,581,o),
(206,591,o),
(254,591,cs),
(361,591,o),
(422,537,o),
(422,445,cs),
(422,354,o),
(361,298,o),
(261,298,cs),
(208,298,o),
(184,313,o),
(184,345,cs)
);
}
);
};
layerId = m01;
shapes = (
{
closed = 1;
nodes = (
(273,0,ls),
(284,0,o),
(290,3,o),
(290,9,cs),
(290,14,o),
(285,18,o),
(275,20,cs),
(223,26,ls),
(191,31,o),
(184,37,o),
(184,60,cs),
(184,145,ls),
(184,153,o),
(190,157,o),
(200,157,cs),
(283,157,ls),
(415,157,o),
(508,225,o),
(508,322,cs),
(508,422,o),
(415,492,o),
(279,492,cs),
(200,492,ls),
(190,492,o),
(184,496,o),
(184,504,cs),
(184,552,ls),
(184,575,o),
(191,581,o),
(223,586,cs),
(275,592,ls),
(285,594,o),
(290,598,o),
(290,603,cs),
(290,609,o),
(284,612,o),
(273,612,cs),
(39,612,ls),
(28,612,o),
(22,609,o),
(22,603,cs),
(22,598,o),
(26,594,o),
(37,592,cs),
(63,589,ls),
(95,585,o),
(102,580,o),
(102,556,cs),
(102,56,ls),
(102,32,o),
(95,27,o),
(63,23,cs),
(37,20,ls),
(26,18,o),
(22,14,o),
(22,9,cs),
(22,3,o),
(28,0,o),
(39,0,cs)
);
},
{
closed = 1;
nodes = (
(208,178,o),
(184,193,o),
(184,225,cs),
(184,437,ls),
(184,461,o),
(206,471,o),
(254,471,cs),
(361,471,o),
(422,417,o),
(422,325,cs),
(422,234,o),
(361,178,o),
(261,178,cs)
);
}
);
width = 536;
}
);
unicode = 222;
},
{
glyphname = Q;
kernLeft = O;
kernRight = O;
lastChange = "2022-09-01 19:45:32 +0000";
layers = (
{
background = {
shapes = (
{
closed = 1;
nodes = (
(458,-8,o),
(575,130,o),
(575,307,cs),
(575,483,o),
(458,620,o),
(310,620,cs),
(162,620,o),
(46,483,o),
(46,307,cs),
(46,130,o),
(162,-8,o),
(310,-8,cs)
);
},
{
closed = 1;
nodes = (
(202,15,o),
(137,110,o),
(137,307,cs),
(137,502,o),
(202,598,o),
(310,598,cs),
(419,598,o),
(484,502,o),
(484,307,cs),
(484,110,o),
(419,15,o),
(310,15,cs)
);
},
{
closed = 1;
nodes = (
(552,-183,o),
(588,-172,o),
(612,-158,cs),
(619,-154,o),
(621,-150,o),
(621,-146,cs),
(621,-137,o),
(608,-134,o),
(596,-140,cs),
(572,-151,o),
(551,-156,o),
(526,-156,cs),
(473,-156,o),
(428,-129,o),
(400,-63,cs),
(382,-18,o),
(351,-4,o),
(281,4,c),
(243,3,l),
(292,-11,o),
(307,-20,o),
(316,-60,cs),
(338,-157,o),
(430,-183,o),
(499,-183,cs)
);
}
);
};
layerId = m01;
shapes = (
{
closed = 1;
nodes = (
(552,-183,o),
(588,-172,o),
(612,-158,cs),
(619,-154,o),
(621,-150,o),
(621,-146,cs),
(621,-137,o),
(608,-134,o),
(596,-140,cs),
(572,-151,o),
(551,-156,o),
(526,-156,cs),
(473,-156,o),
(428,-129,o),
(400,-63,cs),
(391,-39,o),
(377,-25,o),
(358,-14,cs),
(350,-10,o),
(350,-4,o),
(359,-3,cs),
(483,23,o),
(575,150,o),
(575,307,cs),
(575,483,o),
(458,620,o),
(310,620,cs),
(162,620,o),
(46,483,o),
(46,307,cs),
(46,153,o),
(135,28,o),
(255,-1,c),
(294,-13,o),
(308,-24,o),
(316,-60,cs),
(338,-157,o),
(430,-183,o),
(499,-183,cs)
);
},
{
closed = 1;
nodes = (
(202,15,o),
(137,110,o),
(137,307,cs),
(137,502,o),
(202,598,o),
(310,598,cs),
(419,598,o),
(484,502,o),
(484,307,cs),
(484,110,o),
(419,15,o),
(310,15,cs)
);
}
);
width = 621;
}
);
unicode = 81;
},
{
glyphname = R;
kernLeft = H;
kernRight = R;
lastChange = "2022-09-01 20:17:03 +0000";
layers = (
{
anchors = (
{
name = bottom;
pos = (277,0);
},
{
name = top;
pos = (257,720);
}
);
background = {
shapes = (
{
closed = 1;
nodes = (
(273,0,ls),
(284,0,o),
(290,3,o),
(290,10,cs),
(290,15,o),
(285,19,o),
(277,20,cs),
(235,25,ls),
(192,30,o),
(184,36,o),
(184,60,cs),
(184,272,ls),
(184,285,o),
(197,294,o),
(218,294,cs),
(288,294,ls),
(414,294,o),
(518,369,o),
(518,459,cs),
(518,548,o),
(420,612,o),
(284,612,cs),
(39,612,ls),
(28,612,o),
(22,609,o),
(22,603,cs),
(22,597,o),
(26,594,o),
(37,592,cs),
(63,589,ls),
(95,585,o),
(102,580,o),
(102,556,cs),
(102,56,ls),
(102,32,o),
(95,27,o),
(63,23,cs),
(37,20,ls),
(26,18,o),
(22,15,o),
(22,9,cs),
(22,3,o),
(28,0,o),
(39,0,cs)
);
},
{
closed = 1;
nodes = (
(208,315,o),
(184,330,o),
(184,362,cs),
(184,557,l),
(184,581,o),
(206,591,o),
(256,591,cs),
(366,591,o),
(431,541,o),
(431,457,cs),
(431,371,o),
(365,315,o),
(261,315,cs)
);
},
{
closed = 1;
nodes = (
(562,-8,o),
(601,8,o),
(601,28,cs),
(601,37,o),
(589,41,o),
(576,35,cs),
(560,26,o),
(552,25,o),
(540,25,cs),
(505,25,o),
(484,48,o),
(467,106,cs),
(442,193,ls),
(424,252,o),
(394,280,o),
(338,294,c),
(338,299,l),
(218,294,l),
(313,294,o),
(338,275,o),
(363,184,cs),
(390,89,ls),
(408,25,o),
(451,-8,o),
(518,-8,cs)
);
}
);
};
guides = (
{
angle = 15.5241;
pos = (439,117);
showMeasurement = 1;
}
);
layerId = m01;
shapes = (
{
closed = 1;
nodes = (
(562,-8,o),
(601,8,o),
(601,28,cs),
(601,37,o),
(589,41,o),
(576,35,cs),
(560,26,o),
(552,25,o),
(540,25,cs),
(505,25,o),
(484,48,o),
(467,106,cs),
(442,193,ls),
(427,244,o),
(400,273,o),
(351,290,cs),
(340,293,o),
(340,299,o),
(352,302,cs),
(440,326,o),
(506,388,o),
(506,459,cs),
(506,548,o),
(408,612,o),
(273,612,cs),
(39,612,ls),
(28,612,o),
(22,609,o),
(22,603,cs),
(22,597,o),
(26,594,o),
(37,592,cs),
(63,589,ls),
(95,585,o),
(102,580,o),
(102,556,cs),
(102,56,ls),
(102,32,o),
(95,27,o),
(63,23,cs),
(37,20,ls),
(26,18,o),
(22,15,o),
(22,9,cs),
(22,3,o),
(28,0,o),
(39,0,cs),
(273,0,ls),
(284,0,o),
(290,3,o),
(290,10,cs),
(290,15,o),
(285,19,o),
(277,20,cs),
(235,25,ls),
(192,30,o),
(184,36,o),
(184,60,cs),
(184,272,ls),
(184,285,o),
(197,294,o),
(218,294,cs),
(313,294,o),
(338,275,o),
(363,184,cs),
(390,89,ls),
(408,25,o),
(451,-8,o),
(518,-8,cs)
);
},
{
closed = 1;
nodes = (
(208,315,o),
(184,330,o),
(184,362,cs),
(184,557,ls),
(184,581,o),
(206,591,o),
(245,591,cs),
(354,591,o),
(420,541,o),
(420,457,cs),
(420,371,o),
(365,315,o),
(261,315,cs)
);
}
);
width = 590;
}
);
unicode = 82;
},
{
glyphname = S;
kernLeft = S;
kernRight = S;
lastChange = "2022-09-01 20:17:08 +0000";
layers = (
{
anchors = (
{
name = bottom;
pos = (209,0);
},
{
name = top;
pos = (229,720);
}
);
background = {
shapes = (
{
closed = 0;
nodes = (
(373,130,ls),
(373,82,o),
(330,20,o),
(243,20,cs),
(148,20,o),
(114,56,o),
(89,141,cs),
(82,164,ls),
(78,174,o),
(72,177,o),
(64,177,cs),
(57,177,o),
(51,173,o),
(51,162,cs),
(56,34,ls),
(56,25,o),
(60,20,o),
(69,15,cs),
(100,-1,o),
(146,-8,o),
(217,-8,cs),
(365,-8,o),
(445,81,o),
(445,159,cs)
);
}
);
};
layerId = m01;
shapes = (
{
closed = 1;
nodes = (
(340,-8,o),
(434,56,o),
(434,151,cs),
(434,224,o),
(383,285,o),
(268,354,cs),
(160,416,o),
(123,456,o),
(123,504,cs),
(123,562,o),
(164,595,o),
(231,595,cs),
(298,595,o),
(328,557,o),
(361,469,cs),
(369,448,ls),
(373,439,o),
(376,436,o),
(384,436,cs),
(394,436,o),
(399,441,o),
(399,450,cs),
(396,579,ls),
(396,588,o),
(390,592,o),
(381,598,cs),
(353,612,o),
(307,620,o),
(261,620,cs),
(138,620,o),
(51,566,o),
(51,482,cs),
(51,418,o),
(100,366,o),
(214,305,cs),
(316,248,o),
(361,192,o),
(361,126,cs),
(361,57,o),
(313,17,o),
(236,17,cs),
(162,17,o),
(116,56,o),
(90,139,cs),
(79,171,ls),
(76,182,o),
(71,186,o),
(62,186,cs),
(52,186,o),
(47,180,o),
(47,169,cs),
(53,36,ls),
(53,23,o),
(59,20,o),
(69,15,cs),
(97,3,o),
(166,-8,o),
(212,-8,cs)
);
}
);
width = 468;
}
);
unicode = 83;
},
{
glyphname = Germandbls;
lastChange = "2022-08-18 20:20:07 +0000";
layers = (
{
background = {
shapes = (
{
ref = H;
}
);
};
layerId = m01;
shapes = (
{
closed = 1;
nodes = (
(484,-8,o),
(574,40,o),
(574,144,cs),
(574,216,o),
(500,293,o),
(391,361,c),
(379,332,l),
(570,533,l),
(514,593,o),
(459,620,o),
(348,620,cs),
(209,620,o),
(102,547,o),
(102,421,cs),
(102,56,ls),
(102,32,o),
(95,27,o),
(63,23,cs),
(37,20,ls),
(26,18,o),
(22,14,o),
(22,9,cs),
(22,3,o),
(28,0,o),
(39,0,cs),
(156,0,ls),
(174,0,o),
(184,8,o),
(184,20,cs),
(184,434,ls),
(184,557,o),
(259,596,o),
(348,596,cs),
(419,596,o),
(476,564,o),
(506,502,c),
(523,535,l),
(322,324,l),
(339,314,ls),
(439,260,o),
(501,184,o),
(501,118,cs),
(501,32,o),
(447,17,o),
(405,17,cs),
(353,17,o),
(310,54,o),
(296,113,cs),
(283,162,ls),
(281,173,o),
(274,178,o),
(264,178,cs),
(254,178,o),
(250,172,o),
(250,161,cs),
(250,36,ls),
(250,23,o),
(255,20,o),
(266,15,cs),
(293,3,o),
(345,-8,o),
(392,-8,cs)
);
}
);
width = 608;
}
);
metricLeft = H;
metricRight = S;
unicode = 7838;
},
{
glyphname = T;
kernLeft = T;
kernRight = T;
lastChange = "2022-09-01 21:02:25 +0000";
layers = (
{
anchors = (
{
name = bottom;
pos = (231,0);
},
{
name = center;
pos = (231,360);
},
{
name = top;
pos = (231,720);
}
);
layerId = m01;
shapes = (
{
closed = 1;
nodes = (
(394,0,ls),
(406,0,o),
(412,3,o),
(412,9,cs),
(412,14,o),
(407,19,o),
(397,20,cs),
(345,26,ls),
(315,29,o),
(306,35,o),
(306,59,cs),
(306,569,ls),
(306,585,o),
(313,591,o),
(342,591,cs),
(399,591,o),
(463,557,o),
(480,476,cs),
(485,448,ls),
(486,441,o),
(492,437,o),
(501,437,cs),
(511,437,o),
(518,442,o),
(516,451,cs),
(506,605,ls),
(505,618,o),
(498,625,o),
(485,625,cs),
(470,625,o),
(467,612,o),
(393,612,cs),
(137,612,ls),
(63,612,o),
(60,625,o),
(45,625,cs),
(32,625,o),
(25,618,o),
(24,605,cs),
(14,451,ls),
(13,442,o),
(20,437,o),
(29,437,cs),
(38,437,o),
(44,441,o),
(45,448,cs),
(51,476,ls),
(67,557,o),
(131,591,o),
(189,591,cs),
(217,591,o),
(224,585,o),
(224,569,cs),
(224,59,ls),
(224,35,o),
(215,29,o),
(185,26,cs),
(133,20,ls),
(123,19,o),
(118,14,o),
(118,9,cs),
(118,3,o),
(124,0,o),
(136,0,cs)
);
}
);
width = 530;
}
);
unicode = 84;
},
{
glyphname = U;
kernLeft = U;
kernRight = U;
lastChange = "2022-09-01 20:54:19 +0000";
layers = (
{
anchors = (
{
name = bottom;
pos = (268,0);
},
{
name = ogonek;
pos = (334,0);
},
{
name = top;
pos = (288,720);
},
{
name = topright;
pos = (516,720);
}
);
background = {
shapes = (
{
pos = (3,0);
ref = H;
}
);
};
layerId = m01;
shapes = (
{
closed = 1;
nodes = (
(440,-8,o),
(522,60,o),
(522,163,cs),
(522,539,ls),
(522,570,o),
(534,586,o),
(561,589,cs),
(588,592,ls),
(598,594,o),
(603,597,o),
(603,603,cs),
(603,609,o),
(597,612,o),
(585,612,cs),
(420,612,ls),
(408,612,o),
(402,609,o),
(402,602,cs),
(402,597,o),
(407,593,o),
(415,592,cs),
(446,589,ls),
(474,586,o),
(485,570,o),
(485,538,cs),
(485,162,ls),
(485,76,o),
(430,26,o),
(336,26,cs),
(243,26,o),
(187,76,o),
(187,162,cs),
(187,555,ls),
(187,579,o),
(195,586,o),
(227,589,cs),
(258,592,ls),
(266,593,o),
(270,597,o),
(270,602,cs),
(270,609,o),
(264,612,o),
(253,612,cs),
(43,612,ls),
(31,612,o),
(25,609,o),
(25,603,cs),
(25,597,o),
(30,594,o),
(40,592,cs),
(67,589,ls),
(99,585,o),
(106,580,o),
(106,556,cs),
(106,163,ls),
(106,62,o),
(192,-8,o),
(316,-8,cs)
);
}
);
width = 616;
}
);
unicode = 85;
},
{
glyphname = V;
lastChange = "2022-09-01 20:54:24 +0000";
layers = (
{
background = {
shapes = (
{
closed = 1;
nodes = (
(269,-8,o),
(277,-6,o),
(281,5,cs),
(459,536,ls),
(469,568,o),
(483,586,o),
(513,590,cs),
(530,592,ls),
(540,594,o),
(546,598,o),
(546,604,cs),
(546,609,o),
(539,612,o),
(529,612,cs),
(368,612,ls),
(358,612,o),
(352,609,o),
(352,603,cs),
(352,598,o),
(358,594,o),
(371,592,cs),
(389,591,ls),
(424,587,o),
(434,570,o),
(423,537,cs),
(288,133,l),
(282,133,l),
(144,555,ls),
(136,580,o),
(141,589,o),
(168,591,cs),
(190,592,ls),
(204,593,o),
(209,598,o),
(209,603,cs),
(209,609,o),
(204,612,o),
(193,612,cs),
(-3,720,ls),
(-12,720,o),
(-18,717,o),
(-18,710,cs),
(-18,703,o),
(-13,699,o),
(-4,697,cs),
(13,590,ls),
(43,586,o),
(53,575,o),
(63,544,cs),
(245,5,ls),
(248,-6,o),
(256,-8,o),
(263,-8,cs)
);
}
);
};
layerId = m01;
shapes = (
{
closed = 1;
nodes = (
(269,-8,o),
(277,-6,o),
(281,5,cs),
(459,536,ls),
(469,568,o),
(483,586,o),
(513,590,cs),
(530,592,ls),
(540,594,o),
(546,598,o),
(546,604,cs),
(546,609,o),
(539,612,o),
(529,612,cs),
(368,612,ls),
(358,612,o),
(352,609,o),
(352,603,cs),
(352,598,o),
(358,594,o),
(371,592,cs),
(389,591,ls),
(424,587,o),
(434,570,o),
(423,537,cs),
(291,146,ls),
(289,139,o),
(279,139,o),
(277,146,cs),
(144,555,ls),
(136,580,o),
(141,589,o),
(168,591,cs),
(190,592,ls),
(204,593,o),
(209,598,o),
(209,603,cs),
(209,609,o),
(204,612,o),
(193,612,cs),
(-3,720,ls),
(-12,720,o),
(-18,717,o),
(-18,710,cs),
(-18,703,o),
(-13,699,o),
(-4,697,cs),
(13,590,ls),
(43,586,o),
(53,575,o),
(63,544,cs),
(245,5,ls),
(248,-6,o),
(256,-8,o),
(263,-8,cs)
);
}
);
width = 526;
}
);
unicode = 86;
},
{
glyphname = W;
kernLeft = W;
kernRight = W;
lastChange = "2022-09-01 20:54:28 +0000";
layers = (
{
anchors = (
{
name = bottom;
pos = (326,0);
},
{
name = top;
pos = (346,720);
}
);
background = {
shapes = (
{
closed = 1;
nodes = (
(503,-8,o),
(509,-6,o),
(513,5,cs),
(691,536,ls),
(704,575,o),
(716,590,o),
(737,592,cs),
(750,592,ls),
(762,593,o),
(769,597,o),
(769,603,cs),
(769,609,o),
(761,612,o),
(750,612,cs),
(621,612,ls),
(611,612,o),
(605,609,o),
(605,604,cs),
(605,598,o),
(610,594,o),
(622,592,cs),
(635,591,ls),
(661,587,o),
(666,570,o),
(656,537,cs),
(520,133,l),
(514,133,l),
(376,555,ls),
(368,580,o),
(371,588,o),
(391,591,cs),
(404,592,ls),
(415,594,o),
(421,598,o),
(421,603,cs),
(421,609,o),
(415,612,o),
(405,612,cs),
(247,612,ls),
(237,612,o),
(230,609,o),
(230,604,cs),
(230,598,o),
(236,594,o),
(246,592,cs),
(263,590,ls),
(281,587,o),
(289,575,o),
(299,544,cs),
(481,5,ls),
(484,-6,o),
(490,-8,o),
(497,-8,cs)
);
},
{
closed = 1;
nodes = (
(393,405,l),
(290,128,l),
(284,128,l),
(144,555,ls),
(136,580,o),
(141,587,o),
(168,591,cs),
(181,592,ls),
(192,594,o),
(198,598,o),
(198,603,cs),
(198,609,o),
(192,612,o),
(182,612,cs),
(-3,720,ls),
(-12,720,o),
(-18,717,o),
(-18,710,cs),
(-18,703,o),
(-13,699,o),
(-4,697,cs),
(13,590,ls),
(43,586,o),
(53,575,o),
(63,544,cs),
(245,5,ls),
(248,-6,o),
(255,-8,o),
(262,-8,cs),
(268,-8,o),
(274,-6,o),
(278,5,cs),
(414,367,l)
);
},
{
closed = 1;
nodes = (
(427,336,l),
(505,536,ls),
(520,575,o),
(530,590,o),
(551,592,cs),
(564,592,ls),
(576,593,o),
(583,597,o),
(583,603,cs),
(583,609,o),
(575,612,o),
(564,612,cs),
(454,612,ls),
(444,612,o),
(438,608,o),
(438,603,cs),
(438,597,o),
(443,594,o),
(455,592,cs),
(468,591,ls),
(482,589,o),
(489,580,o),
(471,537,cs),
(406,374,l)
);
}
);
};
layerId = m01;
shapes = (
{
closed = 1;
nodes = (
(503,-8,o),
(509,-6,o),
(513,5,cs),
(691,536,ls),
(704,575,o),
(716,590,o),
(737,592,cs),
(750,592,ls),
(762,593,o),
(769,597,o),
(769,603,cs),
(769,609,o),
(761,612,o),
(750,612,cs),
(621,612,ls),
(611,612,o),
(605,609,o),
(605,604,cs),
(605,598,o),
(610,594,o),
(622,592,cs),
(635,591,ls),
(661,587,o),
(666,570,o),
(656,537,cs),
(523,145,ls),
(521,137,o),
(512,138,o),
(509,145,cs),
(458,305,ls),
(444,349,o),
(444,382,o),
(461,425,cs),
(505,536,ls),
(520,575,o),
(530,590,o),
(551,592,cs),
(564,592,ls),
(576,593,o),
(583,597,o),
(583,603,cs),
(583,609,o),
(575,612,o),
(564,612,cs),
(454,612,ls),
(444,612,o),
(438,608,o),
(438,603,cs),
(438,597,o),
(443,594,o),
(455,592,cs),
(468,591,ls),
(482,589,o),
(489,580,o),
(471,537,cs),
(430,434,ls),
(427,426,o),
(417,426,o),
(415,434,cs),
(376,555,ls),
(368,580,o),
(371,588,o),
(391,591,cs),
(404,592,ls),
(415,594,o),
(421,598,o),
(421,603,cs),
(421,609,o),
(415,612,o),
(405,612,cs),
(247,612,ls),
(237,612,o),
(230,609,o),
(230,604,cs),
(230,598,o),
(236,594,o),
(246,592,cs),
(263,590,ls),
(281,587,o),
(289,575,o),
(299,544,cs),
(347,399,ls),
(362,354,o),
(362,322,o),
(346,279,cs),
(294,140,ls),
(291,133,o),
(282,133,o),
(279,140,cs),
(144,555,ls),
(136,580,o),
(141,587,o),
(168,591,cs),
(181,592,ls),
(192,594,o),
(198,598,o),
(198,603,cs),
(198,609,o),
(192,612,o),
(182,612,cs),
(-3,720,ls),
(-12,720,o),
(-18,717,o),
(-18,710,cs),
(-18,703,o),
(-13,699,o),
(-4,697,cs),
(13,590,ls),
(43,586,o),
(53,575,o),
(63,544,cs),
(245,5,ls),
(248,-6,o),
(255,-8,o),
(262,-8,cs),
(268,-8,o),
(274,-6,o),
(278,5,cs),
(377,269,ls),
(381,276,o),
(390,277,o),
(392,269,cs),
(481,5,ls),
(484,-6,o),
(490,-8,o),
(497,-8,cs)
);
}
);
width = 749;
}
);
unicode = 87;
},
{
glyphname = X;
lastChange = "2022-09-01 20:54:34 +0000";
layers = (
{
background = {
shapes = (
{
closed = 1;
nodes = (
(585,0,ls),
(599,0,o),
(606,3,o),
(606,8,cs),
(606,14,o),
(600,19,o),
(586,20,cs),
(565,23,ls),
(546,26,o),
(528,30,o),
(512,57,cs),
(210,555,ls),
(197,577,o),
(208,586,o),
(235,590,cs),
(256,592,ls),
(269,594,o),
(276,598,o),
(276,604,cs),
(276,609,o),
(269,612,o),
(255,612,cs),
(53,612,ls),
(40,612,o),
(33,609,o),
(33,604,cs),
(33,598,o),
(39,594,o),
(52,592,cs),
(74,590,ls),
(93,587,o),
(112,581,o),
(126,555,cs),
(429,57,ls),
(442,36,o),
(429,26,o),
(402,23,cs),
(379,20,ls),
(368,19,o),
(361,15,o),
(361,10,cs),
(361,4,o),
(368,0,o),
(382,0,cs)
);
},
{
closed = 1;
nodes = (
(232,0,ls),
(247,0,o),
(253,3,o),
(253,8,cs),
(253,14,o),
(247,18,o),
(233,20,cs),
(201,26,ls),
(175,30,o),
(171,41,o),
(185,65,cs),
(297,265,l),
(319,265,l),
(267,325,l),
(277,307,o),
(276,294,o),
(268,280,cs),
(153,77,ls),
(133,43,o),
(108,31,o),
(59,24,cs),
(40,21,ls),
(28,20,o),
(23,15,o),
(23,10,cs),
(23,5,o),
(28,0,o),
(44,0,cs)
);
},
{
closed = 1;
nodes = (
(354,319,o),
(354,332,o),
(362,346,cs),
(471,535,ls),
(491,569,o),
(516,583,o),
(554,588,cs),
(573,591,ls),
(585,592,o),
(590,597,o),
(590,602,cs),
(590,607,o),
(585,612,o),
(569,612,cs),
(393,612,ls),
(378,612,o),
(373,609,o),
(373,604,cs),
(373,598,o),
(378,594,o),
(392,592,cs),
(424,586,ls),
(451,582,o),
(454,571,o),
(440,547,cs),
(334,360,l),
(312,360,l),
(365,301,l)
);
}
);
};
layerId = m01;
shapes = (
{
closed = 1;
nodes = (
(232,0,ls),
(247,0,o),
(253,3,o),
(253,8,cs),
(253,14,o),
(247,18,o),
(233,20,cs),
(201,26,ls),
(175,30,o),
(171,41,o),
(185,65,cs),
(289,252,ls),
(294,262,o),
(305,262,o),
(310,252,cs),
(429,57,ls),
(442,36,o),
(429,26,o),
(402,23,cs),
(379,20,ls),
(368,19,o),
(361,15,o),
(361,10,cs),
(361,4,o),
(368,0,o),
(382,0,cs),
(585,0,ls),
(599,0,o),
(606,3,o),
(606,8,cs),
(606,14,o),
(600,19,o),
(586,20,cs),
(565,23,ls),
(546,26,o),
(528,30,o),
(512,57,cs),
(363,303,ls),
(353,319,o),
(354,332,o),
(362,346,cs),
(471,535,ls),
(491,569,o),
(516,583,o),
(554,588,cs),
(573,591,ls),
(585,592,o),
(590,597,o),
(590,602,cs),
(590,607,o),
(585,612,o),
(569,612,cs),
(393,612,ls),
(378,612,o),
(373,609,o),
(373,604,cs),
(373,598,o),
(378,594,o),
(392,592,cs),
(424,586,ls),
(451,582,o),
(454,571,o),
(440,547,cs),
(342,374,ls),
(336,364,o),
(325,364,o),
(320,374,cs),
(210,555,ls),
(197,577,o),
(208,586,o),
(235,590,cs),
(256,592,ls),
(269,594,o),
(276,598,o),
(276,604,cs),
(276,609,o),
(269,612,o),
(255,612,cs),
(53,612,ls),
(40,612,o),
(33,609,o),
(33,604,cs),
(33,598,o),
(39,594,o),
(52,592,cs),
(74,590,ls),
(93,587,o),
(112,581,o),
(126,555,cs),
(270,320,ls),
(279,305,o),
(275,292,o),
(268,280,cs),
(153,77,ls),
(133,43,o),
(108,31,o),
(59,24,cs),
(40,21,ls),
(28,20,o),
(23,15,o),
(23,10,cs),
(23,5,o),
(28,0,o),
(44,0,cs)
);
}
);
width = 628;
}
);
unicode = 88;
},
{
glyphname = Y;
kernLeft = Y;
kernRight = Y;
lastChange = "2022-09-01 21:02:35 +0000";
layers = (
{
anchors = (
{
name = bottom;
pos = (239,0);
},
{
name = top;
pos = (259,720);
},
{
name = topleft;
pos = (20,720);
}
);
background = {
shapes = (
{
closed = 1;
nodes = (
(405,0,ls),
(416,0,o),
(422,3,o),
(422,9,cs),
(422,14,o),
(417,19,o),
(407,20,cs),
(355,26,ls),
(325,29,o),
(316,35,o),
(316,59,cs),
(316,266,ls),
(316,284,o),
(321,297,o),
(331,313,cs),
(482,536,ls),
(507,574,o),
(520,587,o),
(542,591,cs),
(553,592,ls),
(564,594,o),
(569,598,o),
(569,604,cs),
(569,609,o),
(562,612,o),
(552,612,cs),
(389,612,ls),
(378,612,o),
(373,609,o),
(373,603,cs),
(373,598,o),
(378,594,o),
(392,592,cs),
(417,590,ls),
(453,586,o),
(463,566,o),
(444,537,cs),
(299,320,l),
(293,320,l),
(144,555,ls),
(129,579,o),
(141,589,o),
(168,591,cs),
(190,592,ls),
(204,593,o),
(209,598,o),
(209,603,cs),
(209,609,o),
(204,612,o),
(193,612,cs),
(-3,720,ls),
(-12,720,o),
(-18,717,o),
(-18,710,cs),
(-18,703,o),
(-13,699,o),
(-4,697,cs),
(6,591,ls),
(31,586,o),
(43,576,o),
(54,558,cs),
(223,296,ls),
(231,283,o),
(235,273,o),
(235,259,cs),
(235,59,ls),
(235,35,o),
(225,29,o),
(195,26,cs),
(144,20,ls),
(133,19,o),
(129,14,o),
(129,9,cs),
(129,3,o),
(135,0,o),
(146,0,cs)
);
}
);
};
layerId = m01;
shapes = (
{
closed = 1;
nodes = (
(405,0,ls),
(416,0,o),
(422,3,o),
(422,9,cs),
(422,14,o),
(417,19,o),
(407,20,cs),
(355,26,ls),
(325,29,o),
(316,35,o),
(316,59,cs),
(316,266,ls),
(316,284,o),
(321,297,o),
(331,313,cs),
(482,536,ls),
(507,574,o),
(520,587,o),
(542,591,cs),
(553,592,ls),
(564,594,o),
(569,598,o),
(569,604,cs),
(569,609,o),
(562,612,o),
(552,612,cs),
(389,612,ls),
(378,612,o),
(373,609,o),
(373,603,cs),
(373,598,o),
(378,594,o),
(392,592,cs),
(417,590,ls),
(453,586,o),
(463,566,o),
(444,537,cs),
(308,332,ls),
(302,324,o),
(291,324,o),
(285,332,cs),
(144,555,ls),
(129,579,o),
(141,589,o),
(168,591,cs),
(190,592,ls),
(204,593,o),
(209,598,o),
(209,603,cs),
(209,609,o),
(204,612,o),
(193,612,cs),
(-3,720,ls),
(-12,720,o),
(-18,717,o),
(-18,710,cs),
(-18,703,o),
(-13,699,o),
(-4,697,cs),
(6,591,ls),
(31,586,o),
(43,576,o),
(54,558,cs),
(223,296,ls),
(231,283,o),
(235,273,o),
(235,259,cs),
(235,59,ls),
(235,35,o),
(225,29,o),
(195,26,cs),
(144,20,ls),
(133,19,o),
(129,14,o),
(129,9,cs),
(129,3,o),
(135,0,o),
(146,0,cs)
);
}
);
width = 549;
}
);
unicode = 89;
},
{
glyphname = Z;
kernLeft = Z;
kernRight = Z;
lastChange = "2022-08-31 20:25:35 +0000";
layers = (
{
anchors = (
{
name = bottom;
pos = (214,0);
},
{
name = center;
pos = (214,360);
},
{
name = top;
pos = (234,720);
}
);
background = {
shapes = (
{
closed = 1;
nodes = (
(419,0,ls),
(436,0,o),
(446,7,o),
(447,20,cs),
(461,179,ls),
(462,189,o),
(455,194,o),
(447,194,cs),
(438,194,o),
(432,190,o),
(430,183,cs),
(411,109,ls),
(392,38,o),
(339,26,o),
(286,26,cs),
(115,26,l),
(115,30,l),
(453,587,ls),
(462,603,o),
(453,612,o),
(431,612,cs),
(177,612,ls),
(103,612,o),
(100,629,o),
(85,629,cs),
(74,629,o),
(67,622,o),
(66,609,cs),
(45,451,ls),
(44,442,o),
(51,437,o),
(60,437,cs),
(69,437,o),
(74,441,o),
(76,448,cs),
(93,490,ls),
(124,566,o),
(171,586,o),
(229,586,cs),
(362,586,l),
(362,582,l),
(24,25,ls),
(15,9,o),
(24,0,o),
(46,0,cs)
);
}
);
};
layerId = m01;
shapes = (
{
closed = 1;
nodes = (
(419,0,ls),
(436,0,o),
(446,7,o),
(447,20,cs),
(461,179,ls),
(462,189,o),
(455,194,o),
(447,194,cs),
(438,194,o),
(432,190,o),
(430,183,cs),
(415,126,ls),
(392,38,o),
(325,26,o),
(261,26,cs),
(133,26,ls),
(122,26,o),
(116,31,o),
(121,39,cs),
(453,587,ls),
(462,603,o),
(453,612,o),
(431,612,cs),
(177,612,ls),
(103,612,o),
(100,629,o),
(85,629,cs),
(74,629,o),
(67,622,o),
(66,609,cs),
(45,451,ls),
(44,442,o),
(51,437,o),
(60,437,cs),
(69,437,o),
(74,441,o),
(76,448,cs),
(93,490,ls),
(123,565,o),
(171,586,o),
(229,586,cs),
(344,586,ls),
(355,586,o),
(361,581,o),
(356,573,cs),
(24,25,ls),
(15,9,o),
(24,0,o),
(46,0,cs)
);
}
);
width = 491;
}
);
unicode = 90;
},
{
glyphname = a;
kernLeft = a;
kernRight = a;
lastChange = "2022-09-01 20:17:48 +0000";
layers = (
{
anchors = (
{
name = bottom;
pos = (200,0);
},
{
name = ogonek;
pos = (344,0);
},
{
name = top;
pos = (200,510);
}
);
background = {
shapes = (
{
closed = 1;
nodes = (
(194,-8,o),
(229,12,o),
(266,49,cs),
(276,60,o),
(290,60,o),
(292,48,cs),
(299,18,o),
(321,-8,o),
(358,-8,cs),
(407,-8,o),
(453,27,o),
(453,110,cs),
(453,120,o),
(447,124,o),
(439,124,cs),
(431,124,o),
(424,120,o),
(424,110,cs),
(424,63,o),
(404,45,o),
(384,45,cs),
(369,45,o),
(360,56,o),
(360,81,cs),
(360,341,ls),
(360,407,o),
(320,439,o),
(246,439,cs),
(148,439,o),
(36,368,o),
(36,302,cs),
(36,286,o),
(48,278,o),
(68,278,cs),
(93,278,o),
(123,293,o),
(131,330,cs),
(145,389,o),
(178,413,o),
(217,413,cs),
(256,413,o),
(282,392,o),
(282,337,cs),
(282,149,ls),
(282,82,o),
(228,31,o),
(169,31,cs),
(131,31,o),
(110,52,o),
(110,90,cs),
(110,158,o),
(178,205,o),
(292,229,c),
(292,252,l),
(139,220,o),
(28,151,o),
(28,75,cs),
(28,25,o),
(74,-8,o),
(138,-8,cs)
);
}
);
};
layerId = m01;
shapes = (
{
closed = 1;
nodes = (
(194,-8,o),
(229,12,o),
(266,49,cs),
(276,60,o),
(290,60,o),
(292,48,cs),
(299,18,o),
(321,-8,o),
(358,-8,cs),
(407,-8,o),
(453,27,o),
(453,110,cs),
(453,120,o),
(447,124,o),
(439,124,cs),
(431,124,o),
(424,120,o),
(424,110,cs),
(424,63,o),
(404,45,o),
(384,45,cs),
(369,45,o),
(360,56,o),
(360,81,cs),
(360,341,ls),
(360,407,o),
(320,439,o),
(246,439,cs),
(148,439,o),
(36,368,o),
(36,302,cs),
(36,286,o),
(48,278,o),
(68,278,cs),
(93,278,o),
(123,293,o),
(131,330,cs),
(145,389,o),
(178,413,o),
(217,413,cs),
(256,413,o),
(282,392,o),
(282,337,cs),
(282,260,ls),
(282,253,o),
(277,248,o),
(267,246,cs),
(128,212,o),
(28,147,o),
(28,75,cs),
(28,25,o),
(74,-8,o),
(138,-8,cs)
);
},
{
closed = 1;
nodes = (
(131,31,o),
(110,52,o),
(110,90,cs),
(110,151,o),
(164,195,o),
(258,220,cs),
(273,224,o),
(282,220,o),
(282,211,cs),
(282,149,ls),
(282,82,o),
(228,31,o),
(169,31,cs)
);
}
);
width = 459;
}
);
unicode = 97;
},
{
glyphname = ae;
kernLeft = a;
kernRight = e;
lastChange = "2022-08-23 19:55:07 +0000";
layers = (
{
background = {
shapes = (
{
closed = 1;
nodes = (
(194,-8,o),
(229,12,o),
(266,49,cs),
(276,60,o),
(290,60,o),
(360,81,c),
(360,341,ls),
(360,407,o),
(320,439,o),
(246,439,cs),
(148,439,o),
(36,368,o),
(36,302,cs),
(36,286,o),
(48,278,o),
(68,278,cs),
(93,278,o),
(123,293,o),
(131,330,cs),
(145,389,o),
(178,413,o),
(217,413,cs),
(256,413,o),
(282,392,o),
(282,337,cs),
(282,260,ls),
(282,253,o),
(277,248,o),
(267,246,cs),
(128,212,o),
(28,147,o),
(28,75,cs),
(28,25,o),
(74,-8,o),
(138,-8,cs)
);
},
{
closed = 1;
nodes = (
(131,31,o),
(110,52,o),
(110,90,cs),
(110,151,o),
(164,195,o),
(258,220,cs),
(273,224,o),
(282,220,o),
(282,211,cs),
(282,149,ls),
(282,82,o),
(228,31,o),
(169,31,cs)
);
},
{
closed = 1;
nodes = (
(547,-8,o),
(603,27,o),
(628,128,cs),
(630,139,o),
(627,145,o),
(618,145,cs),
(610,145,o),
(605,142,o),
(603,136,cs),
(580,63,o),
(545,36,o),
(486,36,cs),
(413,36,o),
(360,96,o),
(360,216,cs),
(360,230,o),
(368,235,o),
(383,235,cs),
(601,235,ls),
(621,235,o),
(630,246,o),
(630,264,cs),
(630,387,o),
(568,439,o),
(478,439,cs),
(365,439,o),
(289,345,o),
(289,212,cs),
(289,80,o),
(361,-8,o),
(471,-8,cs)
);
},
{
closed = 1;
nodes = (
(368,257,o),
(361,262,o),
(362,270,cs),
(374,364,o),
(417,417,o),
(477,417,cs),
(526,417,o),
(551,373,o),
(551,299,cs),
(551,269,o),
(534,257,o),
(496,257,cs),
(379,257,ls)
);
}
);
};
layerId = m01;
shapes = (
{
closed = 1;
nodes = (
(193,-8,o),
(233,13,o),
(266,47,cs),
(360,149,l),
(360,341,ls),
(360,407,o),
(320,439,o),
(246,439,cs),
(148,439,o),
(36,368,o),
(36,302,cs),
(36,286,o),
(48,278,o),
(68,278,cs),
(93,278,o),
(123,293,o),
(131,330,cs),
(145,389,o),
(178,413,o),
(217,413,cs),
(256,413,o),
(282,392,o),
(282,337,cs),
(282,260,ls),
(282,253,o),
(277,248,o),
(267,246,cs),
(128,212,o),
(28,147,o),
(28,75,cs),
(28,25,o),
(74,-8,o),
(137,-8,cs)
);
},
{
closed = 1;
nodes = (
(131,31,o),
(110,52,o),
(110,90,cs),
(110,151,o),
(164,195,o),
(258,220,cs),
(273,224,o),
(282,220,o),
(282,211,cs),
(282,149,ls),
(282,82,o),
(228,31,o),
(169,31,cs)
);
},
{
closed = 1;
nodes = (
(547,-8,o),
(603,27,o),
(628,128,cs),
(630,139,o),
(627,145,o),
(618,145,cs),
(610,145,o),
(605,142,o),
(603,136,cs),
(580,63,o),
(545,36,o),
(486,36,cs),
(413,36,o),
(360,96,o),
(360,216,cs),
(360,230,o),
(368,235,o),
(383,235,cs),
(601,235,ls),
(621,235,o),
(630,246,o),
(630,264,cs),
(630,387,o),
(568,439,o),
(478,439,cs),
(365,439,o),
(289,345,o),
(289,212,cs),
(289,80,o),
(361,-8,o),
(471,-8,cs)
);
},
{
closed = 1;
nodes = (
(368,257,o),
(361,262,o),
(362,270,cs),
(374,364,o),
(417,417,o),
(477,417,cs),
(526,417,o),
(551,373,o),
(551,299,cs),
(551,269,o),
(534,257,o),
(496,257,cs),
(379,257,ls)
);
}
);
width = 659;
}
);
metricRight = e;
unicode = 230;
},
{
glyphname = b;
kernRight = o;
lastChange = "2022-09-01 20:59:06 +0000";
layers = (
{
background = {
shapes = (
{
closed = 1;
nodes = (
(74,-8,cs),
(80,-8,o),
(86,-5,o),
(94,3,cs),
(150,52,l),
(150,615,ls),
(150,625,o),
(145,629,o),
(137,629,cs),
(130,629,o),
(122,626,o),
(109,620,cs),
(90,611,o),
(61,602,o),
(18,595,cs),
(10,594,o),
(6,590,o),
(6,585,cs),
(6,580,o),
(10,575,o),
(18,575,cs),
(43,572,ls),
(64,570,o),
(71,564,o),
(71,544,cs),
(71,136,ls),
(71,68,o),
(68,30,o),
(62,4,cs),
(60,-3,o),
(67,-8,o)
);
},
{
closed = 1;
nodes = (
(366,-8,o),
(463,91,o),
(463,233,cs),
(463,356,o),
(388,439,o),
(282,439,cs),
(240,439,o),
(207,426,o),
(179,405,cs),
(155,388,l),
(145,388,l),
(150,310,l),
(150,367,o),
(193,400,o),
(246,400,cs),
(330,400,o),
(378,337,o),
(378,221,cs),
(378,94,o),
(321,14,o),
(235,14,cs),
(184,14,o),
(150,45,o),
(150,96,c),
(106,23,l),
(123,23,l),
(158,2,o),
(193,-8,o),
(231,-8,cs)
);
}
);
};
layerId = m01;
shapes = (
{
closed = 1;
nodes = (
(366,-8,o),
(463,91,o),
(463,233,cs),
(463,356,o),
(388,439,o),
(282,439,cs),
(240,439,o),
(207,427,o),
(174,401,cs),
(161,392,o),
(150,396,o),
(150,405,cs),
(150,615,ls),
(150,625,o),
(145,629,o),
(137,629,cs),
(130,629,o),
(122,626,o),
(109,620,cs),
(90,611,o),
(61,602,o),
(18,595,cs),
(10,594,o),
(6,590,o),
(6,585,cs),
(6,580,o),
(10,575,o),
(18,575,cs),
(43,572,ls),
(64,570,o),
(71,564,o),
(71,544,cs),
(71,136,ls),
(71,68,o),
(68,30,o),
(62,4,cs),
(60,-3,o),
(63,-8,o),
(71,-8,cs),
(78,-8,o),
(85,-5,o),
(100,8,cs),
(114,21,o),
(128,24,o),
(146,14,cs),
(176,-1,o),
(205,-8,o),
(237,-8,cs)
);
},
{
closed = 1;
nodes = (
(184,14,o),
(150,45,o),
(150,96,cs),
(150,310,ls),
(150,367,o),
(193,400,o),
(246,400,cs),
(330,400,o),
(378,337,o),
(378,221,cs),
(378,94,o),
(321,14,o),
(235,14,cs)
);
}
);
width = 509;
}
);
unicode = 98;
},
{
glyphname = c;
kernLeft = o;
kernRight = c;
lastChange = "2022-09-01 20:18:01 +0000";
layers = (
{
anchors = (
{
name = bottom;
pos = (182,0);
},
{
name = top;
pos = (208,510);
}
);
background = {
shapes = (
{
closed = 1;
nodes = (
(283,-8,o),
(337,22,o),
(363,142,cs),
(366,152,o),
(362,159,o),
(353,159,cs),
(345,159,o),
(342,156,o),
(339,150,cs),
(313,63,o),
(279,36,o),
(225,36,cs),
(158,36,o),
(112,97,o),
(112,218,cs),
(112,344,o),
(162,417,o),
(223,417,cs),
(263,417,o),
(285,394,o),
(306,333,cs),
(317,299,ls),
(320,292,o),
(324,288,o),
(332,288,cs),
(340,288,o),
(345,292,o),
(345,301,cs),
(342,408,ls),
(342,415,o),
(339,418,o),
(332,422,cs),
(309,433,o),
(279,439,o),
(248,439,cs),
(123,439,o),
(26,345,o),
(26,201,cs),
(26,71,o),
(106,-8,o),
(207,-8,cs)
);
}
);
};
layerId = m01;
shapes = (
{
closed = 1;
nodes = (
(283,-8,o),
(337,22,o),
(363,142,cs),
(366,152,o),
(362,159,o),
(353,159,cs),
(345,159,o),
(342,156,o),
(339,150,cs),
(313,63,o),
(279,36,o),
(225,36,cs),
(158,36,o),
(112,97,o),
(112,218,cs),
(112,361,o),
(171,416,o),
(217,416,cs),
(256,416,o),
(283,393,o),
(315,299,cs),
(317,292,o),
(323,288,o),
(331,288,cs),
(338,288,o),
(345,292,o),
(345,301,cs),
(343,405,ls),
(343,414,o),
(339,419,o),
(331,423,cs),
(309,434,o),
(285,439,o),
(248,439,cs),
(123,439,o),
(26,345,o),
(26,201,cs),
(26,71,o),
(106,-8,o),
(207,-8,cs)
);
}
);
width = 390;
}
);
unicode = 99;
},
{
glyphname = d;
kernLeft = o;
kernRight = d;
lastChange = "2022-09-01 20:59:12 +0000";
layers = (
{
anchors = (
{
name = bottom;
pos = (229,0);
},
{
name = center;
pos = (229,255);
},
{
name = top;
pos = (229,740);
},
{
name = topright;
pos = (402,740);
}
);
background = {
shapes = (
{
closed = 1;
nodes = (
(256,-8,o),
(286,5,o),
(322,40,cs),
(343,60,l),
(353,60,l),
(348,144,l),
(348,81,o),
(292,31,o),
(233,31,cs),
(162,31,o),
(120,94,o),
(120,210,cs),
(120,337,o),
(177,417,o),
(263,417,cs),
(314,417,o),
(348,386,o),
(348,335,c),
(392,408,l),
(375,408,l),
(340,429,o),
(305,439,o),
(267,439,cs),
(132,439,o),
(34,340,o),
(34,198,cs),
(34,75,o),
(106,-8,o),
(208,-8,cs)
);
},
{
closed = 1;
nodes = (
(474,-8,o),
(520,27,o),
(520,110,cs),
(520,120,o),
(514,124,o),
(506,124,cs),
(498,124,o),
(491,120,o),
(491,110,cs),
(491,63,o),
(470,45,o),
(451,45,cs),
(436,45,o),
(427,56,o),
(427,81,cs),
(427,615,ls),
(427,625,o),
(422,629,o),
(414,629,cs),
(407,629,o),
(399,626,o),
(386,620,cs),
(367,611,o),
(338,602,o),
(290,595,cs),
(282,594,o),
(277,590,o),
(277,585,cs),
(277,580,o),
(282,575,o),
(290,575,cs),
(320,572,ls),
(342,570,o),
(348,564,o),
(348,544,cs),
(348,62,ls),
(348,18,o),
(383,-8,o),
(425,-8,cs)
);
}
);
};
layerId = m01;
shapes = (
{
closed = 1;
nodes = (
(259,-8,o),
(289,5,o),
(331,49,cs),
(339,58,o),
(350,57,o),
(352,48,cs),
(359,18,o),
(381,-8,o),
(425,-8,cs),
(474,-8,o),
(520,27,o),
(520,110,cs),
(520,120,o),
(514,124,o),
(506,124,cs),
(498,124,o),
(491,120,o),
(491,110,cs),
(491,63,o),
(470,45,o),
(451,45,cs),
(436,45,o),
(427,56,o),
(427,81,cs),
(427,615,ls),
(427,625,o),
(422,629,o),
(414,629,cs),
(407,629,o),
(399,626,o),
(386,620,cs),
(367,611,o),
(338,602,o),
(290,595,cs),
(282,594,o),
(277,590,o),
(277,585,cs),
(277,580,o),
(282,575,o),
(290,575,cs),
(320,572,ls),
(342,570,o),
(348,564,o),
(348,544,cs),
(348,435,ls),
(348,427,o),
(342,425,o),
(330,429,cs),
(309,436,o),
(289,439,o),
(267,439,cs),
(132,439,o),
(34,340,o),
(34,198,cs),
(34,75,o),
(106,-8,o),
(208,-8,cs)
);
},
{
closed = 1;
nodes = (
(162,31,o),
(120,94,o),
(120,210,cs),
(120,337,o),
(177,417,o),
(263,417,cs),
(314,417,o),
(348,386,o),
(348,335,cs),
(348,144,ls),
(348,81,o),
(292,31,o),
(233,31,cs)
);
}
);
width = 526;
}
);
unicode = 100;
},
{
glyphname = eth;
kernLeft = o;
kernRight = o;
lastChange = "2022-08-23 19:55:36 +0000";
layers = (
{
layerId = m01;
shapes = (
{
closed = 1;
nodes = (
(344,-8,o),
(423,85,o),
(423,222,cs),
(423,408,o),
(268,603,o),
(71,638,cs),
(56,640,o),
(49,634,o),
(49,627,cs),
(49,621,o),
(54,618,o),
(62,616,cs),
(197,583,o),
(278,493,o),
(317,376,cs),
(321,367,o),
(314,365,o),
(305,369,cs),
(281,382,o),
(252,388,o),
(221,388,cs),
(113,388,o),
(32,306,o),
(32,195,cs),
(32,83,o),
(120,-8,o),
(228,-8,cs)
);
},
{
closed = 1;
nodes = (
(152,15,o),
(115,71,o),
(115,190,cs),
(115,311,o),
(150,366,o),
(225,366,cs),
(306,366,o),
(347,304,o),
(347,185,cs),
(347,71,o),
(308,15,o),
(230,15,cs)
);
}
);
width = 465;
}
);
unicode = 240;
},
{
glyphname = dcroat;
kernLeft = o;
kernRight = d;
lastChange = "2022-08-23 19:55:32 +0000";
layers = (
{
layerId = m01;
shapes = (
{
ref = d;
},
{
closed = 1;
nodes = (
(491,491,ls),
(498,491,o),
(503,495,o),
(503,500,cs),
(503,507,ls),
(503,512,o),
(498,515,o),
(491,515,cs),
(175,515,ls),
(168,515,o),
(163,512,o),
(163,507,cs),
(163,500,ls),
(163,495,o),
(168,491,o),
(175,491,cs)
);
}
);
width = 526;
}
);
unicode = 273;
},
{
glyphname = e;
kernLeft = o;
kernRight = e;
lastChange = "2022-09-01 20:18:09 +0000";
layers = (
{
anchors = (
{
name = bottom;
pos = (178,0);
},
{
name = ogonek;
pos = (239,0);
},
{
name = top;
pos = (193,510);
}
);
background = {
shapes = (
{
closed = 1;
nodes = (
(297,-8,o),
(352,27,o),
(377,128,cs),
(379,139,o),
(376,145,o),
(367,145,cs),
(359,145,o),
(354,142,o),
(352,136,cs),
(329,63,o),
(294,36,o),
(236,36,cs),
(162,36,o),
(109,96,o),
(109,223,cs),
(109,346,o),
(158,417,o),
(227,417,cs),
(275,417,o),
(300,373,o),
(300,299,cs),
(300,269,o),
(283,257,o),
(245,257,cs),
(78,257,l),
(78,235,l),
(351,235,l),
(370,235,o),
(379,246,o),
(379,264,cs),
(379,387,o),
(317,439,o),
(228,439,cs),
(114,439,o),
(26,345,o),
(26,212,cs),
(26,80,o),
(110,-8,o),
(221,-8,cs)
);
}
);
};
layerId = m01;
shapes = (
{
closed = 1;
nodes = (
(297,-8,o),
(352,27,o),
(377,128,cs),
(379,139,o),
(376,145,o),
(367,145,cs),
(359,145,o),
(354,142,o),
(352,136,cs),
(329,63,o),
(294,36,o),
(236,36,cs),
(162,36,o),
(109,96,o),
(109,216,cs),
(109,230,o),
(117,235,o),
(132,235,cs),
(351,235,ls),
(370,235,o),
(379,246,o),
(379,264,cs),
(379,387,o),
(317,439,o),
(228,439,cs),
(114,439,o),
(26,345,o),
(26,212,cs),
(26,80,o),
(110,-8,o),
(221,-8,cs)
);
},
{
closed = 1;
nodes = (
(117,257,o),
(110,262,o),
(112,270,cs),
(123,364,o),
(167,417,o),
(227,417,cs),
(275,417,o),
(300,373,o),
(300,299,cs),
(300,269,o),
(283,257,o),
(245,257,cs),
(129,257,ls)
);
}
);
width = 408;
}
);
unicode = 101;
},
{
glyphname = f;
kernLeft = f;
lastChange = "2022-09-01 20:59:24 +0000";
layers = (
{
background = {
shapes = (
{
closed = 1;
nodes = (
(286,0,l),
(286,18,l),
(215,23,ls),
(184,26,o),
(176,32,o),
(176,57,cs),
(176,518,ls),
(176,588,o),
(194,609,o),
(225,609,cs),
(283,609,o),
(256,537,o),
(319,537,cs),
(343,537,o),
(359,548,o),
(359,570,cs),
(359,606,o),
(312,636,o),
(251,636,cs),
(152,636,o),
(98,556,o),
(98,468,cs),
(98,57,ls),
(98,32,o),
(89,24,o),
(59,21,cs),
(17,18,l),
(17,0,l)
);
},
{
closed = 1;
nodes = (
(98,440,o),
(75,427,o),
(32,427,c),
(32,410,l),
(302,410,l),
(302,434,l),
(166,434,l),
(98,462,l)
);
}
);
};
guides = (
{
pos = (259,276);
}
);
layerId = m01;
shapes = (
{
closed = 1;
nodes = (
(98,33,o),
(91,23,o),
(59,21,cs),
(30,20,ls),
(20,19,o),
(15,14,o),
(15,9,cs),
(15,3,o),
(21,0,o),
(32,0,cs),
(271,0,ls),
(283,0,o),
(289,3,o),
(289,10,cs),
(289,15,o),
(284,19,o),
(276,20,cs),
(215,24,ls),
(183,26,o),
(176,33,o),
(176,57,cs),
(176,400,ls),
(176,405,o),
(182,410,o),
(190,410,cs),
(289,410,ls),
(298,410,o),
(306,414,o),
(306,422,cs),
(306,429,o),
(298,434,o),
(289,434,cs),
(190,434,ls),
(182,434,o),
(176,438,o),
(176,444,cs),
(176,518,ls),
(176,588,o),
(194,609,o),
(225,609,cs),
(283,609,o),
(256,537,o),
(319,537,cs),
(343,537,o),
(359,548,o),
(359,570,cs),
(359,606,o),
(312,636,o),
(251,636,cs),
(152,636,o),
(98,556,o),
(98,468,cs),
(98,462,ls),
(98,443,o),
(79,430,o),
(44,428,cs),
(34,427,o),
(30,423,o),
(30,418,cs),
(30,413,o),
(36,410,o),
(44,410,cs),
(70,410,ls),
(87,410,o),
(98,402,o),
(98,389,cs),
(98,57,ls)
);
}
);
width = 331;
}
);
unicode = 102;
},
{
glyphname = g;
kernLeft = g;
kernRight = g;
lastChange = "2022-09-01 20:59:30 +0000";
layers = (
{
anchors = (
{
name = bottom;
pos = (196,-205);
},
{
name = top;
pos = (196,510);
}
);
background = {
shapes = (
{
closed = 1;
nodes = (
(337,-183,o),
(443,-122,o),
(443,-39,cs),
(443,31,o),
(374,74,o),
(263,74,cs),
(164,74,ls),
(131,74,o),
(121,94,o),
(141,112,cs),
(161,128,ls),
(181,144,o),
(199,153,o),
(227,153,cs),
(323,153,o),
(397,214,o),
(397,296,cs),
(397,377,o),
(323,439,o),
(227,439,cs),
(130,439,o),
(54,377,o),
(54,299,cs),
(54,245,o),
(93,192,o),
(156,170,cs),
(166,167,o),
(166,161,o),
(158,156,cs),
(75,103,ls),
(38,80,o),
(49,50,o),
(105,33,cs),
(123,27,o),
(123,15,o),
(105,3,cs),
(26,-48,o),
(16,-65,o),
(16,-94,cs),
(16,-143,o),
(89,-183,o),
(205,-183,cs)
);
},
{
closed = 1;
nodes = (
(133,-164,o),
(85,-131,o),
(85,-81,cs),
(85,-57,o),
(92,-38,o),
(139,-1,cs),
(161,16,o),
(179,22,o),
(227,22,cs),
(253,22,ls),
(327,22,o),
(369,-7,o),
(369,-58,cs),
(369,-120,o),
(301,-164,o),
(218,-164,cs)
);
},
{
closed = 1;
nodes = (
(170,174,o),
(136,222,o),
(136,298,cs),
(136,371,o),
(171,420,o),
(225,420,cs),
(279,420,o),
(315,371,o),
(315,298,cs),
(315,222,o),
(281,174,o),
(225,174,cs)
);
},
{
closed = 1;
nodes = (
(322,411,l),
(322,439,o),
(337,454,o),
(360,454,cs),
(385,454,o),
(383,437,o),
(413,437,cs),
(436,437,o),
(453,449,o),
(453,468,cs),
(453,491,o),
(428,508,o),
(393,508,cs),
(348,508,o),
(294,468,o),
(294,411,c)
);
}
);
};
guides = (
{
pos = (124,26);
},
{
angle = 221.1345;
pos = (146,16);
},
{
angle = -42.8789;
pos = (137,144);
showMeasurement = 1;
},
{
angle = 90;
pos = (208,82);
showMeasurement = 1;
}
);
layerId = m01;
shapes = (
{
closed = 1;
nodes = (
(337,-183,o),
(443,-122,o),
(443,-39,cs),
(443,31,o),
(374,74,o),
(263,74,cs),
(164,74,ls),
(131,74,o),
(121,94,o),
(141,112,cs),
(161,128,ls),
(181,144,o),
(199,153,o),
(227,153,cs),
(323,153,o),
(397,214,o),
(397,296,cs),
(397,341,o),
(375,379,o),
(338,405,cs),
(328,413,o),
(321,421,o),
(325,432,cs),
(330,446,o),
(343,454,o),
(360,454,cs),
(385,454,o),
(383,437,o),
(413,437,cs),
(436,437,o),
(453,449,o),
(453,468,cs),
(453,491,o),
(428,508,o),
(393,508,cs),
(356,508,o),
(313,482,o),
(299,439,cs),
(297,432,o),
(290,429,o),
(279,432,cs),
(263,436,o),
(245,439,o),
(227,439,cs),
(130,439,o),
(54,377,o),
(54,299,cs),
(54,245,o),
(93,192,o),
(156,170,cs),
(166,167,o),
(166,161,o),
(158,156,cs),
(75,103,ls),
(38,80,o),
(49,50,o),
(105,33,cs),
(123,27,o),
(123,15,o),
(105,3,cs),
(26,-48,o),
(16,-65,o),
(16,-94,cs),
(16,-143,o),
(89,-183,o),
(205,-183,cs)
);
},
{
closed = 1;
nodes = (
(133,-164,o),
(85,-131,o),
(85,-81,cs),
(85,-57,o),
(92,-38,o),
(139,-1,cs),
(161,16,o),
(179,22,o),
(227,22,cs),
(253,22,ls),
(327,22,o),
(369,-7,o),
(369,-58,cs),
(369,-120,o),
(301,-164,o),
(218,-164,cs)
);
},
{
closed = 1;
nodes = (
(170,174,o),
(136,222,o),
(136,298,cs),
(136,371,o),
(171,420,o),
(225,420,cs),
(279,420,o),
(315,371,o),
(315,298,cs),
(315,222,o),
(281,174,o),
(225,174,cs)
);
}
);
width = 462;
}
);
unicode = 103;
},
{
glyphname = h;
kernLeft = h;
kernRight = n;
lastChange = "2022-09-01 20:59:43 +0000";
layers = (
{
background = {
shapes = (
{
closed = 1;
nodes = (
(232,0,ls),
(240,0,o),
(246,3,o),
(246,9,cs),
(246,15,o),
(241,19,o),
(233,20,cs),
(202,22,ls),
(170,25,o),
(163,33,o),
(163,57,cs),
(163,615,ls),
(163,625,o),
(159,629,o),
(151,629,cs),
(144,629,o),
(136,626,o),
(123,620,cs),
(103,611,o),
(75,602,o),
(32,595,cs),
(24,594,o),
(20,590,o),
(20,585,cs),
(20,580,o),
(24,575,o),
(32,575,cs),
(56,572,ls),
(78,570,o),
(85,564,o),
(85,544,cs),
(85,57,ls),
(85,33,o),
(78,25,o),
(46,21,cs),
(30,20,ls),
(22,19,o),
(17,14,o),
(17,9,cs),
(17,4,o),
(23,0,o),
(31,0,cs)
);
},
{
closed = 1;
nodes = (
(163,285,l),
(163,347,o),
(220,400,o),
(293,400,cs),
(344,400,o),
(373,379,o),
(373,324,cs),
(373,57,ls),
(373,33,o),
(366,25,o),
(334,21,cs),
(317,20,ls),
(309,19,o),
(305,14,o),
(305,9,cs),
(305,4,o),
(309,0,o),
(321,0,cs),
(514,0,ls),
(522,0,o),
(528,3,o),
(528,9,cs),
(528,15,o),
(523,19,o),
(515,20,cs),
(490,22,ls),
(458,26,o),
(451,33,o),
(451,57,cs),
(451,333,ls),
(451,402,o),
(406,439,o),
(335,439,cs),
(285,439,o),
(244,425,o),
(198,394,cs),
(169,374,l),
(159,374,l)
);
}
);
};
guides = (
{
angle = 222.6141;
pos = (160,452);
}
);
layerId = m01;
shapes = (
{
closed = 1;
nodes = (
(232,0,ls),
(240,0,o),
(246,3,o),
(246,9,cs),
(246,15,o),
(241,19,o),
(233,20,cs),
(202,22,ls),
(170,25,o),
(163,33,o),
(163,57,cs),
(163,285,ls),
(163,347,o),
(220,400,o),
(293,400,cs),
(344,400,o),
(373,379,o),
(373,324,cs),
(373,57,ls),
(373,33,o),
(366,25,o),
(334,21,cs),
(317,20,ls),
(309,19,o),
(305,14,o),
(305,9,cs),
(305,4,o),
(309,0,o),
(321,0,cs),
(514,0,ls),
(522,0,o),
(528,3,o),
(528,9,cs),
(528,15,o),
(523,19,o),
(515,20,cs),
(490,22,ls),
(458,26,o),
(451,33,o),
(451,57,cs),
(451,333,ls),
(451,402,o),
(406,439,o),
(335,439,cs),
(285,439,o),
(245,426,o),
(187,387,cs),
(174,377,o),
(163,380,o),
(163,390,cs),
(163,615,ls),
(163,625,o),
(159,629,o),
(151,629,cs),
(144,629,o),
(136,626,o),
(123,620,cs),
(103,611,o),
(75,602,o),
(32,595,cs),
(24,594,o),
(20,590,o),
(20,585,cs),
(20,580,o),
(24,575,o),
(32,575,cs),
(56,572,ls),
(78,570,o),
(85,564,o),
(85,544,cs),
(85,57,ls),
(85,33,o),
(78,25,o),
(46,21,cs),
(30,20,ls),
(22,19,o),
(17,14,o),
(17,9,cs),
(17,4,o),
(23,0,o),
(31,0,cs)
);
}
);
width = 540;
}
);
unicode = 104;
},
{
glyphname = hbar;
kernLeft = h;
kernRight = n;
lastChange = "2022-08-23 19:55:55 +0000";
layers = (
{
layerId = m01;
shapes = (
{
ref = h;
},
{
closed = 1;
nodes = (
(337,491,ls),
(344,491,o),
(348,495,o),
(348,500,cs),
(348,507,ls),
(348,512,o),
(344,515,o),
(337,515,cs),
(21,515,ls),
(14,515,o),
(9,512,o),
(9,507,cs),
(9,500,ls),
(9,495,o),
(14,491,o),
(21,491,cs)
);
}
);
width = 540;
}
);
unicode = 295;
},
{
glyphname = i;
kernLeft = i;
kernRight = i;
lastChange = "2022-09-01 20:59:49 +0000";
layers = (
{
anchors = (
{
name = bottom;
pos = (112,0);
}
);
background = {
shapes = (
{
closed = 1;
nodes = (
(243,0,l),
(243,18,l),
(208,22,ls),
(176,26,o),
(169,33,o),
(169,57,cs),
(169,436,l),
(146,436,l),
(117,421,o),
(78,407,o),
(25,400,c),
(25,383,l),
(62,379,ls),
(85,377,o),
(91,371,o),
(91,351,cs),
(91,57,ls),
(91,32,o),
(83,25,o),
(52,21,cs),
(17,18,l),
(17,0,l)
);
},
{
closed = 1;
nodes = (
(163,514,o),
(187,533,o),
(187,559,cs),
(187,586,o),
(163,604,o),
(131,604,cs),
(99,604,o),
(74,586,o),
(74,559,cs),
(74,533,o),
(99,514,o),
(131,514,cs)
);
}
);
};
guides = (
{
angle = 270;
pos = (79,240);
},
{
angle = 90;
pos = (147,290);
}
);
layerId = m01;
shapes = (
{
closed = 1;
nodes = (
(227,0,ls),
(238,0,o),
(244,3,o),
(244,10,cs),
(244,15,o),
(239,19,o),
(231,20,cs),
(202,22,ls),
(176,25,o),
(169,33,o),
(169,57,c),
(169,426,ls),
(169,433,o),
(166,436,o),
(159,436,cs),
(153,436,o),
(148,434,o),
(141,428,cs),
(114,410,o),
(89,397,o),
(41,392,cs),
(29,390,o),
(23,388,o),
(23,382,cs),
(23,377,o),
(26,374,o),
(38,373,cs),
(62,371,ls),
(84,368,o),
(91,363,o),
(91,343,cs),
(91,57,ls),
(91,33,o),
(84,26,o),
(46,21,cs),
(32,20,ls),
(22,18,o),
(17,14,o),
(17,9,cs),
(17,3,o),
(23,0,o),
(34,0,cs)
);
},
{
closed = 1;
nodes = (
(163,514,o),
(187,533,o),
(187,559,cs),
(187,586,o),
(163,604,o),
(131,604,cs),
(99,604,o),
(74,586,o),
(74,559,cs),
(74,533,o),
(99,514,o),
(131,514,cs)
);
}
);
width = 256;
}
);
unicode = 105;
},
{
glyphname = idotless;
kernLeft = i;
kernRight = i;
lastChange = "2022-08-23 19:56:03 +0000";
layers = (
{
anchors = (
{
name = bottom;
pos = (112,0);
},
{
name = ogonek;
pos = (167,0);
},
{
name = top;
pos = (112,510);
}
);
layerId = m01;
shapes = (
{
closed = 1;
nodes = (
(227,0,ls),
(238,0,o),
(244,3,o),
(244,10,cs),
(244,15,o),
(239,19,o),
(231,20,cs),
(202,22,ls),
(176,25,o),
(169,33,o),
(169,57,c),
(169,426,ls),
(169,433,o),
(166,436,o),
(159,436,cs),
(153,436,o),
(148,434,o),
(141,428,cs),
(114,410,o),
(89,397,o),
(41,392,cs),
(29,390,o),
(23,388,o),
(23,382,cs),
(23,377,o),
(26,374,o),
(38,373,cs),
(62,371,ls),
(84,368,o),
(91,363,o),
(91,343,cs),
(91,57,ls),
(91,33,o),
(84,26,o),
(46,21,cs),
(32,20,ls),
(22,18,o),
(17,14,o),
(17,9,cs),
(17,3,o),
(23,0,o),
(34,0,cs)
);
}
);
width = 256;
}
);
unicode = 305;
},
{
glyphname = j;
kernLeft = j;
kernRight = j;
lastChange = "2022-09-01 20:59:53 +0000";
layers = (
{
layerId = m01;
shapes = (
{
closed = 1;
nodes = (
(105,-183,o),
(169,-99,o),
(169,37,cs),
(169,426,ls),
(169,433,o),
(166,436,o),
(159,436,cs),
(153,436,o),
(148,434,o),
(141,428,cs),
(114,410,o),
(89,397,o),
(41,392,cs),
(29,390,o),
(23,388,o),
(23,382,cs),
(23,377,o),
(26,374,o),
(38,373,cs),
(62,371,ls),
(84,368,o),
(91,363,o),
(91,343,cs),
(91,-77,ls),
(91,-122,o),
(75,-149,o),
(46,-149,cs),
(5,-149,o),
(21,-101,o),
(-24,-119,cs),
(-48,-119,o),
(-63,-138,o),
(-63,-161,cs),
(-63,-193,o),
(-35,-215,o),
(5,-183,cs)
);
},
{
closed = 1;
nodes = (
(163,514,o),
(187,533,o),
(187,559,cs),
(187,585,o),
(164,604,o),
(131,604,cs),
(98,604,o),
(74,585,o),
(74,559,cs),
(74,534,o),
(98,514,o),
(131,514,cs)
);
}
);
width = 247;
}
);
unicode = 106;
},
{
glyphname = jdotless;
kernLeft = j;
kernRight = j;
lastChange = "2022-08-23 19:56:16 +0000";
layers = (
{
layerId = m01;
shapes = (
{
closed = 1;
nodes = (
(105,-183,o),
(169,-99,o),
(169,37,cs),
(169,426,ls),
(169,433,o),
(166,436,o),
(159,436,cs),
(153,436,o),
(148,434,o),
(141,428,cs),
(114,410,o),
(89,397,o),
(41,392,cs),
(29,390,o),
(23,388,o),
(23,382,cs),
(23,377,o),
(26,374,o),
(38,373,cs),
(62,371,ls),
(84,368,o),
(91,363,o),
(91,343,cs),
(91,-77,ls),
(91,-122,o),
(75,-149,o),
(46,-149,cs),
(5,-149,o),
(21,-101,o),
(-24,-119,cs),
(-48,-119,o),
(-63,-138,o),
(-63,-161,cs),
(-63,-193,o),
(-35,-215,o),
(5,-183,cs)
);
}
);
width = 247;
}
);
unicode = 567;
},
{
glyphname = k;
kernLeft = h;
kernRight = k;
lastChange = "2022-09-01 20:19:58 +0000";
layers = (
{
anchors = (
{
name = bottom;
pos = (226,0);
},
{
name = top;
pos = (226,740);
}
);
background = {
shapes = (
{
closed = 1;
nodes = (
(232,0,ls),
(240,0,o),
(246,3,o),
(246,9,cs),
(246,15,o),
(241,19,o),
(233,20,cs),
(202,22,ls),
(170,25,o),
(163,33,o),
(163,57,cs),
(163,615,ls),
(163,625,o),
(159,629,o),
(151,629,cs),
(144,629,o),
(136,626,o),
(123,620,cs),
(103,611,o),
(75,602,o),
(32,595,cs),
(24,594,o),
(20,590,o),
(20,585,cs),
(20,580,o),
(24,575,o),
(32,575,cs),
(56,572,ls),
(78,570,o),
(85,564,o),
(85,544,cs),
(85,57,ls),
(85,33,o),
(78,25,o),
(46,21,cs),
(30,20,ls),
(22,19,o),
(17,14,o),
(17,9,cs),
(17,4,o),
(23,0,o),
(31,0,cs)
);
},
{
closed = 1;
nodes = (
(367,357,ls),
(415,394,o),
(447,411,o),
(483,413,cs),
(493,414,ls),
(505,415,o),
(508,419,o),
(508,424,cs),
(508,430,o),
(503,434,o),
(492,434,cs),
(294,434,ls),
(284,434,o),
(278,430,o),
(278,425,cs),
(278,419,o),
(283,416,o),
(293,414,cs),
(320,411,ls),
(351,406,o),
(359,387,o),
(327,361,cs),
(167,235,l),
(155,235,l),
(155,195,l)
);
},
{
closed = 1;
nodes = (
(209,248,l),
(209,238,l),
(217,238,l),
(339,63,ls),
(355,39,o),
(350,24,o),
(321,21,cs),
(301,20,ls),
(292,19,o),
(286,14,o),
(286,9,cs),
(286,4,o),
(292,0,o),
(302,0,cs),
(503,0,ls),
(513,0,o),
(519,3,o),
(519,9,cs),
(519,15,o),
(514,18,o),
(505,20,cs),
(493,21,ls),
(463,26,o),
(445,34,o),
(429,57,cs),
(263,292,l)
);
}
);
};
layerId = m01;
shapes = (
{
closed = 1;
nodes = (
(232,0,ls),
(240,0,o),
(246,3,o),
(246,9,cs),
(246,15,o),
(241,19,o),
(233,20,cs),
(202,22,ls),
(170,25,o),
(163,33,o),
(163,57,cs),
(163,182,ls),
(163,195,o),
(167,204,o),
(181,214,cs),
(193,224,ls),
(206,233,o),
(222,231,o),
(230,220,cs),
(339,63,ls),
(355,39,o),
(350,24,o),
(321,21,cs),
(301,20,ls),
(292,19,o),
(286,14,o),
(286,9,cs),
(286,4,o),
(292,0,o),
(302,0,cs),
(503,0,ls),
(513,0,o),
(519,3,o),
(519,9,cs),
(519,15,o),
(514,18,o),
(505,20,cs),
(493,21,ls),
(463,26,o),
(445,34,o),
(429,57,cs),
(284,263,ls),
(276,275,o),
(278,287,o),
(296,301,cs),
(367,357,ls),
(415,394,o),
(447,411,o),
(483,413,cs),
(493,414,ls),
(505,415,o),
(508,419,o),
(508,424,cs),
(508,430,o),
(503,434,o),
(492,434,cs),
(294,434,ls),
(284,434,o),
(278,430,o),
(278,425,cs),
(278,419,o),
(283,416,o),
(293,414,cs),
(320,411,ls),
(351,406,o),
(359,387,o),
(327,361,cs),
(192,254,ls),
(179,244,o),
(163,247,o),
(163,259,cs),
(163,615,ls),
(163,625,o),
(159,629,o),
(151,629,cs),
(144,629,o),
(136,626,o),
(123,620,cs),
(103,611,o),
(75,602,o),
(32,595,cs),
(24,594,o),
(20,590,o),
(20,585,cs),
(20,580,o),
(24,575,o),
(32,575,cs),
(56,572,ls),
(78,570,o),
(85,564,o),
(85,544,cs),
(85,57,ls),
(85,33,o),
(78,25,o),
(46,21,cs),
(30,20,ls),
(22,19,o),
(17,14,o),
(17,9,cs),
(17,4,o),
(23,0,o),
(31,0,cs)
);
}
);
width = 519;
}
);
unicode = 107;
},
{
glyphname = l;
kernLeft = h;
kernRight = l;
lastChange = "2022-09-01 20:39:59 +0000";
layers = (
{
anchors = (
{
name = bottom;
pos = (110,0);
},
{
name = center;
pos = (110,370);
},
{
name = top;
pos = (85,710);
},
{
name = topright;
pos = (173,740);
}
);
background = {
shapes = (
{
closed = 1;
nodes = (
(237,0,l),
(237,18,l),
(202,22,ls),
(170,26,o),
(163,33,o),
(163,57,cs),
(163,629,l),
(140,629,l),
(112,614,o),
(74,601,o),
(20,593,c),
(20,576,l),
(56,572,ls),
(78,570,o),
(85,564,o),
(85,544,cs),
(85,57,ls),
(85,33,o),
(78,25,o),
(46,21,cs),
(12,18,l),
(12,0,l)
);
}
);
};
layerId = m01;
shapes = (
{
closed = 1;
nodes = (
(228,0,ls),
(236,0,o),
(241,3,o),
(241,9,cs),
(241,15,o),
(237,19,o),
(229,20,cs),
(202,22,ls),
(170,26,o),
(163,33,o),
(163,57,cs),
(163,615,ls),
(163,625,o),
(159,629,o),
(151,629,cs),
(144,629,o),
(136,626,o),
(123,620,cs),
(103,611,o),
(72,602,o),
(30,595,cs),
(22,594,o),
(17,590,o),
(17,585,cs),
(17,580,o),
(22,575,o),
(30,575,cs),
(56,572,ls),
(78,570,o),
(85,564,o),
(85,544,cs),
(85,57,ls),
(85,33,o),
(70,25,o),
(38,21,cs),
(22,20,ls),
(14,19,o),
(9,14,o),
(9,9,cs),
(9,4,o),
(15,0,o),
(23,0,cs)
);
}
);
width = 253;
}
);
unicode = 108;
},
{
glyphname = lslash;
kernLeft = h;
kernRight = l;
lastChange = "2022-08-23 20:01:07 +0000";
layers = (
{
layerId = m01;
shapes = (
{
pos = (26,0);
ref = l;
},
{
closed = 1;
nodes = (
(158,326,l),
(17,261,ls),
(12,258,o),
(10,253,o),
(14,249,cs),
(20,243,ls),
(23,239,o),
(29,238,o),
(34,241,cs),
(158,298,l)
);
},
{
closed = 1;
nodes = (
(158,300,l),
(304,367,ls),
(309,370,o),
(310,375,o),
(307,379,cs),
(301,385,ls),
(298,389,o),
(292,390,o),
(286,388,cs),
(158,328,l)
);
}
);
width = 321;
}
);
unicode = 322;
},
{
glyphname = m;
kernLeft = n;
kernRight = n;
lastChange = "2022-09-01 19:49:06 +0000";
layers = (
{
background = {
shapes = (
{
closed = 1;
nodes = (
(163,285,l),
(163,347,o),
(220,400,o),
(289,400,cs),
(335,400,o),
(363,379,o),
(363,324,cs),
(363,57,ls),
(363,33,o),
(356,25,o),
(324,21,cs),
(308,20,ls),
(300,19,o),
(296,14,o),
(296,9,cs),
(296,4,o),
(300,0,o),
(312,0,cs),
(507,0,ls),
(515,0,o),
(521,3,o),
(521,9,cs),
(521,15,o),
(516,19,o),
(508,20,cs),
(483,22,ls),
(448,26,o),
(442,33,o),
(442,57,cs),
(442,333,ls),
(442,402,o),
(397,439,o),
(332,439,cs),
(285,439,o),
(244,425,o),
(192,390,cs),
(163,371,l),
(153,371,l)
);
},
{
closed = 1;
nodes = (
(229,0,ls),
(240,0,o),
(246,3,o),
(246,10,cs),
(246,15,o),
(241,19,o),
(233,20,cs),
(202,22,ls),
(170,25,o),
(163,33,o),
(163,57,cs),
(163,361,l),
(158,361,l),
(158,426,ls),
(158,433,o),
(154,436,o),
(147,436,cs),
(141,436,o),
(137,434,o),
(130,428,cs),
(102,410,o),
(83,397,o),
(36,392,cs),
(23,390,o),
(17,388,o),
(17,382,cs),
(17,377,o),
(21,374,o),
(32,373,cs),
(56,371,ls),
(78,368,o),
(85,363,o),
(85,343,cs),
(85,57,ls),
(85,33,o),
(78,26,o),
(46,21,cs),
(32,20,ls),
(22,18,o),
(17,14,o),
(17,9,cs),
(17,3,o),
(23,0,o),
(34,0,cs)
);
},
{
closed = 1;
nodes = (
(442,285,l),
(442,347,o),
(498,400,o),
(567,400,cs),
(613,400,o),
(642,379,o),
(642,324,cs),
(642,57,ls),
(642,33,o),
(635,25,o),
(599,21,cs),
(583,20,ls),
(575,19,o),
(570,14,o),
(570,9,cs),
(570,4,o),
(575,0,o),
(586,0,cs),
(783,0,ls),
(791,0,o),
(797,3,o),
(797,9,cs),
(797,15,o),
(792,19,o),
(784,20,cs),
(759,22,ls),
(727,26,o),
(720,33,o),
(720,57,cs),
(720,333,ls),
(720,402,o),
(675,439,o),
(611,439,cs),
(564,439,o),
(522,425,o),
(470,390,cs),
(442,371,l),
(431,371,l)
);
}
);
};
layerId = m01;
shapes = (
{
closed = 1;
nodes = (
(229,0,ls),
(240,0,o),
(246,3,o),
(246,10,cs),
(246,15,o),
(241,19,o),
(233,20,cs),
(202,22,ls),
(170,25,o),
(163,33,o),
(163,57,cs),
(163,285,ls),
(163,347,o),
(220,400,o),
(289,400,cs),
(335,400,o),
(363,379,o),
(363,324,cs),
(363,57,ls),
(363,33,o),
(356,25,o),
(324,21,cs),
(308,20,ls),
(300,19,o),
(296,14,o),
(296,9,cs),
(296,4,o),
(300,0,o),
(312,0,cs),
(507,0,ls),
(515,0,o),
(521,3,o),
(521,9,cs),
(521,15,o),
(516,19,o),
(508,20,cs),
(483,22,ls),
(448,26,o),
(442,33,o),
(442,57,cs),
(442,285,ls),
(442,347,o),
(498,400,o),
(567,400,cs),
(613,400,o),
(642,379,o),
(642,324,cs),
(642,57,ls),
(642,33,o),
(635,25,o),
(599,21,cs),
(583,20,ls),
(575,19,o),
(570,14,o),
(570,9,cs),
(570,4,o),
(575,0,o),
(586,0,cs),
(783,0,ls),
(791,0,o),
(797,3,o),
(797,9,cs),
(797,15,o),
(792,19,o),
(784,20,cs),
(759,22,ls),
(727,26,o),
(720,33,o),
(720,57,cs),
(720,333,ls),
(720,402,o),
(675,439,o),
(611,439,cs),
(564,439,o),
(521,426,o),
(459,382,cs),
(447,374,o),
(435,377,o),
(430,386,cs),
(413,421,o),
(377,439,o),
(332,439,cs),
(285,439,o),
(243,426,o),
(179,382,cs),
(168,373,o),
(158,379,o),
(158,388,cs),
(158,426,ls),
(158,433,o),
(154,436,o),
(147,436,cs),
(141,436,o),
(137,434,o),
(130,428,cs),
(102,410,o),
(83,397,o),
(36,392,cs),
(23,390,o),
(17,388,o),
(17,382,cs),
(17,377,o),
(21,374,o),
(32,373,cs),
(56,371,ls),
(78,368,o),
(85,363,o),
(85,343,cs),
(85,57,ls),
(85,33,o),
(78,26,o),
(46,21,cs),
(32,20,ls),
(22,18,o),
(17,14,o),
(17,9,cs),
(17,3,o),
(23,0,o),
(34,0,cs)
);
}
);
width = 810;
}
);
metricRight = n;
unicode = 109;
},
{
glyphname = n;
kernLeft = n;
kernRight = n;
lastChange = "2022-08-31 18:09:38 +0000";
layers = (
{
anchors = (
{
name = bottom;
pos = (235,0);
},
{
name = top;
pos = (235,510);
}
);
background = {
shapes = (
{
closed = 1;
nodes = (
(163,285,l),
(163,347,o),
(220,400,o),
(293,400,cs),
(344,400,o),
(373,379,o),
(373,324,cs),
(373,57,ls),
(373,33,o),
(366,25,o),
(334,21,cs),
(317,20,ls),
(309,19,o),
(305,14,o),
(305,9,cs),
(305,4,o),
(309,0,o),
(321,0,cs),
(514,0,ls),
(522,0,o),
(528,3,o),
(528,9,cs),
(528,15,o),
(523,19,o),
(515,20,cs),
(490,22,ls),
(458,26,o),
(451,33,o),
(451,57,cs),
(451,333,ls),
(451,402,o),
(406,439,o),
(337,439,cs),
(285,439,o),
(244,425,o),
(192,390,cs),
(163,371,l),
(153,371,l)
);
},
{
closed = 1;
nodes = (
(229,0,ls),
(240,0,o),
(246,3,o),
(246,10,cs),
(246,15,o),
(241,19,o),
(233,20,cs),
(202,22,ls),
(170,25,o),
(163,33,o),
(163,57,cs),
(163,361,l),
(158,361,l),
(158,426,ls),
(158,433,o),
(154,436,o),
(147,436,cs),
(141,436,o),
(137,434,o),
(130,428,cs),
(102,410,o),
(83,397,o),
(36,392,cs),
(23,390,o),
(17,388,o),
(17,382,cs),
(17,377,o),
(21,374,o),
(32,373,cs),
(56,371,ls),
(78,368,o),
(85,363,o),
(85,343,cs),
(85,57,ls),
(85,33,o),
(78,26,o),
(46,21,cs),
(32,20,ls),
(22,18,o),
(17,14,o),
(17,9,cs),
(17,3,o),
(23,0,o),
(34,0,cs)
);
}
);
};
layerId = m01;
shapes = (
{
closed = 1;
nodes = (
(229,0,ls),
(240,0,o),
(246,3,o),
(246,10,cs),
(246,15,o),
(241,19,o),
(233,20,cs),
(202,22,ls),
(170,25,o),
(163,33,o),
(163,57,cs),
(163,285,ls),
(163,347,o),
(220,400,o),
(293,400,cs),
(344,400,o),
(373,379,o),
(373,324,cs),
(373,57,ls),
(373,33,o),
(366,25,o),
(334,21,cs),
(317,20,ls),
(309,19,o),
(305,14,o),
(305,9,cs),
(305,4,o),
(309,0,o),
(321,0,cs),
(514,0,ls),
(522,0,o),
(528,3,o),
(528,9,cs),
(528,15,o),
(523,19,o),
(515,20,cs),
(490,22,ls),
(458,26,o),
(451,33,o),
(451,57,cs),
(451,333,ls),
(451,402,o),
(406,439,o),
(337,439,cs),
(285,439,o),
(243,426,o),
(182,382,cs),
(169,373,o),
(158,377,o),
(158,388,cs),
(158,426,ls),
(158,433,o),
(154,436,o),
(147,436,cs),
(141,436,o),
(137,434,o),
(130,428,cs),
(102,410,o),
(83,397,o),
(36,392,cs),
(23,390,o),
(17,388,o),
(17,382,cs),
(17,377,o),
(21,374,o),
(32,373,cs),
(56,371,ls),
(78,368,o),
(85,363,o),
(85,343,cs),
(85,57,ls),
(85,33,o),
(78,26,o),
(46,21,cs),
(32,20,ls),
(22,18,o),
(17,14,o),
(17,9,cs),
(17,3,o),
(23,0,o),
(34,0,cs)
);
}
);
width = 540;
}
);
unicode = 110;
},
{
glyphname = eng;
kernLeft = n;
kernRight = j;
lastChange = "2022-08-23 20:01:41 +0000";
layers = (
{
layerId = m01;
shapes = (
{
closed = 1;
nodes = (
(386,-183,o),
(451,-99,o),
(451,37,cs),
(451,333,ls),
(451,402,o),
(406,439,o),
(337,439,cs),
(285,439,o),
(243,426,o),
(182,382,cs),
(169,373,o),
(158,377,o),
(158,388,cs),
(158,426,ls),
(158,433,o),
(154,436,o),
(147,436,cs),
(141,436,o),
(137,434,o),
(130,428,cs),
(102,410,o),
(83,397,o),
(36,392,cs),
(23,390,o),
(17,388,o),
(17,382,cs),
(17,377,o),
(21,374,o),
(32,373,cs),
(56,371,ls),
(78,368,o),
(85,363,o),
(85,343,cs),
(85,57,ls),
(85,33,o),
(78,26,o),
(46,21,cs),
(32,20,ls),
(22,18,o),
(17,14,o),
(17,9,cs),
(17,3,o),
(23,0,o),
(34,0,cs),
(229,0,ls),
(240,0,o),
(246,3,o),
(246,10,cs),
(246,15,o),
(241,19,o),
(233,20,cs),
(202,22,ls),
(170,25,o),
(163,33,o),
(163,57,cs),
(163,285,ls),
(163,347,o),
(220,400,o),
(293,400,cs),
(344,400,o),
(373,379,o),
(373,324,cs),
(373,-77,ls),
(373,-122,o),
(356,-149,o),
(328,-149,cs),
(286,-149,o),
(302,-101,o),
(254,-101,cs),
(227,-101,o),
(209,-117,o),
(209,-137,cs),
(209,-164,o),
(241,-183,o),
(286,-183,cs)
);
}
);
width = 529;
}
);
unicode = 331;
},
{
glyphname = o;
kernLeft = o;
kernRight = o;
lastChange = "2022-08-31 20:21:46 +0000";
layers = (
{
anchors = (
{
name = bottom;
pos = (204,0);
},
{
name = center;
pos = (204,255);
},
{
name = ogonek;
pos = (367,10);
},
{
name = top;
pos = (204,510);
},
{
name = topright;
pos = (388,510);
}
);
background = {
shapes = (
{
closed = 1;
nodes = (
(360,-8,o),
(455,88,o),
(455,216,cs),
(455,343,o),
(359,439,o),
(232,439,cs),
(106,439,o),
(9,343,o),
(9,216,cs),
(9,88,o),
(105,-8,o),
(232,-8,cs)
);
},
{
closed = 1;
nodes = (
(145,14,o),
(94,90,o),
(94,216,cs),
(94,340,o),
(146,417,o),
(232,417,cs),
(319,417,o),
(370,340,o),
(370,216,cs),
(370,90,o),
(320,14,o),
(232,14,cs)
);
}
);
};
layerId = m01;
shapes = (
{
closed = 1;
nodes = (
(351,-8,o),
(440,89,o),
(440,216,cs),
(440,341,o),
(350,439,o),
(233,439,cs),
(117,439,o),
(26,341,o),
(26,216,cs),
(26,89,o),
(116,-8,o),
(233,-8,cs)
);
},
{
closed = 1;
nodes = (
(152,14,o),
(114,81,o),
(114,216,cs),
(114,349,o),
(153,417,o),
(233,417,cs),
(314,417,o),
(353,349,o),
(353,216,cs),
(353,81,o),
(315,14,o),
(233,14,cs)
);
}
);
width = 469;
}
);
unicode = 111;
},
{
glyphname = oslash;
kernLeft = o;
kernRight = o;
lastChange = "2022-08-23 20:01:47 +0000";
layers = (
{
layerId = m01;
shapes = (
{
ref = o;
},
{
closed = 1;
nodes = (
(91,-42,ls),
(97,-42,o),
(101,-41,o),
(103,-36,cs),
(393,466,ls),
(397,472,o),
(392,476,o),
(384,476,cs),
(376,476,ls),
(370,476,o),
(366,474,o),
(363,469,cs),
(74,-32,ls),
(70,-38,o),
(75,-42,o),
(83,-42,cs)
);
}
);
width = 469;
}
);
unicode = 248;
},
{
glyphname = oe;
kernLeft = o;
kernRight = e;
lastChange = "2022-08-23 20:01:51 +0000";
layers = (
{
layerId = m01;
shapes = (
{
closed = 1;
nodes = (
(351,-8,o),
(429,89,o),
(429,216,cs),
(429,341,o),
(350,439,o),
(233,439,cs),
(117,439,o),
(26,341,o),
(26,216,cs),
(26,89,o),
(116,-8,o),
(233,-8,cs)
);
},
{
closed = 1;
nodes = (
(152,14,o),
(114,81,o),
(114,216,cs),
(114,349,o),
(153,417,o),
(233,417,cs),
(314,417,o),
(353,349,o),
(353,216,cs),
(353,81,o),
(315,14,o),
(233,14,cs)
);
},
{
closed = 1;
nodes = (
(623,-8,o),
(678,27,o),
(704,128,cs),
(706,139,o),
(703,145,o),
(693,145,cs),
(685,145,o),
(681,142,o),
(678,136,cs),
(656,63,o),
(621,36,o),
(562,36,cs),
(489,36,o),
(436,96,o),
(436,216,cs),
(436,230,o),
(444,235,o),
(459,235,cs),
(677,235,ls),
(697,235,o),
(706,246,o),
(706,264,cs),
(706,387,o),
(644,439,o),
(554,439,cs),
(440,439,o),
(353,345,o),
(353,212,cs),
(353,80,o),
(437,-8,o),
(547,-8,cs)
);
},
{
closed = 1;
nodes = (
(444,257,o),
(437,262,o),
(438,270,cs),
(450,364,o),
(493,417,o),
(553,417,cs),
(601,417,o),
(627,373,o),
(627,299,cs),
(627,269,o),
(610,257,o),
(572,257,cs),
(455,257,ls)
);
}
);
width = 735;
}
);
metricRight = e;
unicode = 339;
},
{
glyphname = p;
kernLeft = n;
kernRight = o;
lastChange = "2022-08-31 17:39:19 +0000";
layers = (
{
background = {
shapes = (
{
closed = 1;
nodes = (
(239,-174,ls),
(251,-174,o),
(256,-171,o),
(256,-164,cs),
(256,-159,o),
(252,-156,o),
(244,-155,cs),
(201,-150,ls),
(169,-147,o),
(162,-141,o),
(162,-117,cs),
(162,373,l),
(156,373,l),
(156,426,ls),
(156,433,o),
(153,436,o),
(146,436,cs),
(140,436,o),
(136,434,o),
(129,428,cs),
(101,410,o),
(82,397,o),
(34,392,cs),
(22,390,o),
(16,388,o),
(16,382,cs),
(16,377,o),
(20,374,o),
(31,373,cs),
(55,371,ls),
(77,368,o),
(84,363,o),
(84,343,cs),
(84,-117,ls),
(84,-141,o),
(77,-150,o),
(45,-153,cs),
(29,-155,ls),
(18,-156,o),
(14,-160,o),
(14,-165,cs),
(14,-171,o),
(20,-174,o),
(31,-174,cs)
);
},
{
closed = 1;
nodes = (
(378,-8,o),
(476,91,o),
(476,233,cs),
(476,356,o),
(400,439,o),
(294,439,cs),
(253,439,o),
(222,428,o),
(192,405,cs),
(162,382,l),
(152,382,l),
(162,310,l),
(162,367,o),
(206,400,o),
(259,400,cs),
(343,400,o),
(391,337,o),
(391,221,cs),
(391,94,o),
(334,14,o),
(247,14,cs),
(197,14,o),
(162,45,o),
(162,96,c),
(118,23,l),
(136,23,l),
(170,2,o),
(206,-8,o),
(244,-8,cs)
);
}
);
};
layerId = m01;
shapes = (
{
closed = 1;
nodes = (
(239,-174,ls),
(251,-174,o),
(256,-171,o),
(256,-164,cs),
(256,-159,o),
(252,-156,o),
(244,-155,cs),
(201,-150,ls),
(169,-147,o),
(162,-141,o),
(162,-117,cs),
(162,-8,ls),
(162,2,o),
(170,6,o),
(183,2,cs),
(202,-5,o),
(222,-8,o),
(244,-8,cs),
(378,-8,o),
(476,91,o),
(476,233,cs),
(476,356,o),
(400,439,o),
(294,439,cs),
(253,439,o),
(222,428,o),
(192,405,cs),
(179,396,ls),
(167,387,o),
(156,391,o),
(156,400,cs),
(156,426,ls),
(156,433,o),
(153,436,o),
(146,436,cs),
(140,436,o),
(136,434,o),
(129,428,cs),
(101,410,o),
(82,397,o),
(34,392,cs),
(22,390,o),
(16,388,o),
(16,382,cs),
(16,377,o),
(20,374,o),
(31,373,cs),
(55,371,ls),
(77,368,o),
(84,363,o),
(84,343,cs),
(84,-117,ls),
(84,-141,o),
(77,-150,o),
(45,-153,cs),
(29,-155,ls),
(18,-156,o),
(14,-160,o),
(14,-165,cs),
(14,-171,o),
(20,-174,o),
(31,-174,cs)
);
},
{
closed = 1;
nodes = (
(197,14,o),
(162,45,o),
(162,96,cs),
(162,310,ls),
(162,367,o),
(206,400,o),
(259,400,cs),
(343,400,o),
(391,337,o),
(391,221,cs),
(391,94,o),
(334,14,o),
(247,14,cs)
);
}
);
width = 511;
}
);
unicode = 112;
},
{
glyphname = thorn;
kernLeft = h;
kernRight = o;
lastChange = "2022-08-23 20:02:04 +0000";
layers = (
{
layerId = m01;
shapes = (
{
closed = 1;
nodes = (
(239,-174,ls),
(251,-174,o),
(256,-171,o),
(256,-164,cs),
(256,-159,o),
(252,-156,o),
(244,-155,cs),
(201,-150,ls),
(169,-147,o),
(162,-141,o),
(162,-117,cs),
(162,-8,ls),
(162,2,o),
(170,6,o),
(183,2,cs),
(202,-5,o),
(222,-8,o),
(244,-8,cs),
(378,-8,o),
(476,91,o),
(476,233,cs),
(476,356,o),
(400,439,o),
(294,439,cs),
(253,439,o),
(222,428,o),
(192,405,cs),
(179,396,ls),
(167,387,o),
(156,391,o),
(156,400,cs),
(156,615,ls),
(156,625,o),
(152,629,o),
(144,629,cs),
(137,629,o),
(129,626,o),
(116,620,cs),
(97,611,o),
(68,602,o),
(25,595,cs),
(17,594,o),
(13,590,o),
(13,585,cs),
(13,580,o),
(17,575,o),
(25,575,cs),
(49,572,ls),
(71,570,o),
(84,564,o),
(84,544,cs),
(84,-117,ls),
(84,-141,o),
(77,-150,o),
(45,-153,cs),
(29,-155,ls),
(18,-156,o),
(14,-160,o),
(14,-165,cs),
(14,-171,o),
(20,-174,o),
(31,-174,cs)
);
},
{
closed = 1;
nodes = (
(197,14,o),
(162,45,o),
(162,96,cs),
(162,310,ls),
(162,367,o),
(206,400,o),
(259,400,cs),
(343,400,o),
(391,337,o),
(391,221,cs),
(391,94,o),
(334,14,o),
(247,14,cs)
);
}
);
width = 511;
}
);
unicode = 254;
},
{
glyphname = q;
kernLeft = o;
lastChange = "2022-09-01 20:20:31 +0000";
layers = (
{
background = {
shapes = (
{
closed = 1;
nodes = (
(256,-8,o),
(286,5,o),
(322,40,cs),
(343,60,l),
(353,60,l),
(348,144,l),
(348,81,o),
(292,31,o),
(233,31,cs),
(162,31,o),
(120,94,o),
(120,210,cs),
(120,337,o),
(177,417,o),
(263,417,cs),
(314,417,o),
(348,386,o),
(348,335,c),
(392,408,l),
(375,408,l),
(340,429,o),
(305,439,o),
(267,439,cs),
(132,439,o),
(34,340,o),
(34,198,cs),
(34,75,o),
(106,-8,o),
(208,-8,cs)
);
},
{
closed = 1;
nodes = (
(480,-174,ls),
(491,-174,o),
(497,-171,o),
(497,-165,cs),
(497,-160,o),
(492,-156,o),
(482,-155,cs),
(466,-153,ls),
(434,-150,o),
(427,-141,o),
(427,-117,cs),
(427,295,ls),
(427,363,o),
(430,401,o),
(436,427,cs),
(438,434,o),
(431,439,o),
(424,439,cs),
(417,439,o),
(412,436,o),
(404,428,cs),
(348,379,l),
(348,-117,ls),
(348,-141,o),
(342,-147,o),
(309,-150,cs),
(267,-155,ls),
(259,-156,o),
(254,-159,o),
(254,-164,cs),
(254,-171,o),
(260,-174,o),
(271,-174,cs)
);
}
);
};
layerId = m01;
shapes = (
{
closed = 1;
nodes = (
(480,-174,ls),
(491,-174,o),
(497,-171,o),
(497,-165,cs),
(497,-160,o),
(492,-156,o),
(482,-155,cs),
(466,-153,ls),
(434,-150,o),
(427,-141,o),
(427,-117,cs),
(427,295,ls),
(427,363,o),
(430,401,o),
(436,427,cs),
(438,434,o),
(435,439,o),
(427,439,cs),
(420,439,o),
(413,436,o),
(398,423,cs),
(384,410,o),
(370,407,o),
(352,416,cs),
(322,432,o),
(298,439,o),
(267,439,cs),
(132,439,o),
(34,340,o),
(34,198,cs),
(34,75,o),
(106,-8,o),
(208,-8,cs),
(256,-8,o),
(286,5,o),
(324,42,cs),
(335,52,o),
(348,48,o),
(348,38,cs),
(348,-117,ls),
(348,-141,o),
(342,-147,o),
(309,-150,cs),
(267,-155,ls),
(259,-156,o),
(254,-159,o),
(254,-164,cs),
(254,-171,o),
(260,-174,o),
(271,-174,cs)
);
},
{
closed = 1;
nodes = (
(162,31,o),
(120,94,o),
(120,210,cs),
(120,337,o),
(177,417,o),
(263,417,cs),
(314,417,o),
(348,386,o),
(348,335,cs),
(348,144,ls),
(348,81,o),
(292,31,o),
(233,31,cs)
);
}
);
width = 508;
}
);
unicode = 113;
},
{
glyphname = r;
kernLeft = n;
kernRight = r;
lastChange = "2022-09-01 19:37:15 +0000";
layers = (
{
anchors = (
{
name = bottom;
pos = (109,0);
},
{
name = top;
pos = (159,510);
}
);
background = {
shapes = (
{
closed = 1;
nodes = (
(229,0,ls),
(240,0,o),
(246,3,o),
(246,10,cs),
(246,15,o),
(241,19,o),
(233,20,cs),
(202,22,ls),
(170,25,o),
(163,33,o),
(163,57,cs),
(163,353,l),
(158,353,l),
(158,426,ls),
(158,433,o),
(154,436,o),
(147,436,cs),
(141,436,o),
(137,434,o),
(130,428,cs),
(102,410,o),
(83,397,o),
(36,392,cs),
(23,390,o),
(17,388,o),
(17,382,cs),
(17,377,o),
(21,374,o),
(32,373,cs),
(56,371,ls),
(78,368,o),
(85,363,o),
(85,343,cs),
(85,57,ls),
(85,33,o),
(78,26,o),
(46,21,cs),
(32,20,ls),
(22,18,o),
(17,14,o),
(17,9,cs),
(17,3,o),
(23,0,o),
(34,0,cs)
);
},
{
closed = 1;
nodes = (
(163,332,o),
(204,391,o),
(245,391,cs),
(288,391,o),
(271,348,o),
(321,348,cs),
(351,348,o),
(366,364,o),
(366,385,cs),
(366,412,o),
(342,439,o),
(291,439,cs),
(244,439,o),
(206,416,o),
(179,381,cs),
(163,360,l),
(151,360,l),
(163,254,l)
);
}
);
};
layerId = m01;
shapes = (
{
closed = 1;
nodes = (
(169,369,o),
(158,371,o),
(158,380,cs),
(158,426,ls),
(158,433,o),
(154,436,o),
(147,436,cs),
(141,436,o),
(137,434,o),
(130,428,cs),
(102,410,o),
(83,397,o),
(36,392,cs),
(23,390,o),
(17,388,o),
(17,382,cs),
(17,377,o),
(21,374,o),
(32,373,cs),
(56,371,ls),
(78,368,o),
(85,363,o),
(85,343,cs),
(85,57,ls),
(85,33,o),
(78,26,o),
(46,21,cs),
(32,20,ls),
(22,18,o),
(17,14,o),
(17,9,cs),
(17,3,o),
(23,0,o),
(34,0,cs),
(229,0,ls),
(240,0,o),
(246,3,o),
(246,10,cs),
(246,15,o),
(241,19,o),
(233,20,cs),
(202,22,ls),
(170,25,o),
(163,33,o),
(163,57,cs),
(163,254,ls),
(163,332,o),
(204,391,o),
(245,391,cs),
(288,391,o),
(271,348,o),
(321,348,cs),
(351,348,o),
(366,364,o),
(366,385,cs),
(366,412,o),
(342,439,o),
(291,439,cs),
(246,439,o),
(208,418,o),
(177,379,cs)
);
}
);
width = 366;
}
);
unicode = 114;
},
{
glyphname = s;
kernLeft = s;
kernRight = s;
lastChange = "2022-09-01 21:00:18 +0000";
layers = (
{
anchors = (
{
name = bottom;
pos = (144,0);
},
{
name = top;
pos = (154,510);
}
);
background = {
shapes = (
{
closed = 1;
nodes = (
(253,-8,o),
(322,39,o),
(322,112,cs),
(322,167,o),
(282,214,o),
(206,255,cs),
(121,298,o),
(94,321,o),
(94,354,cs),
(94,392,o),
(126,417,o),
(171,417,cs),
(215,417,o),
(243,393,o),
(263,333,cs),
(269,316,ls),
(271,309,o),
(276,305,o),
(284,305,cs),
(292,305,o),
(297,309,o),
(297,318,cs),
(294,409,ls),
(294,416,o),
(292,419,o),
(285,422,cs),
(262,434,o),
(231,439,o),
(200,439,cs),
(101,439,o),
(32,395,o),
(32,331,cs),
(32,283,o),
(68,245,o),
(147,205,cs),
(227,162,o),
(258,132,o),
(258,87,cs),
(258,42,o),
(223,14,o),
(171,14,cs),
(121,14,o),
(85,40,o),
(66,96,cs),
(57,119,ls),
(54,128,o),
(49,130,o),
(43,130,cs),
(36,130,o),
(30,127,o),
(30,118,cs),
(36,23,ls),
(36,16,o),
(38,12,o),
(46,8,cs),
(70,-1,o),
(115,-8,o),
(151,-8,cs)
);
}
);
};
layerId = m01;
shapes = (
{
closed = 1;
nodes = (
(253,-8,o),
(322,39,o),
(322,112,cs),
(322,167,o),
(282,214,o),
(206,255,cs),
(121,298,o),
(94,321,o),
(94,361,cs),
(94,392,o),
(123,415,o),
(163,415,cs),
(207,415,o),
(235,390,o),
(266,316,cs),
(269,309,o),
(273,303,o),
(283,303,cs),
(291,303,o),
(297,307,o),
(297,315,cs),
(294,409,ls),
(294,416,o),
(291,419,o),
(284,422,cs),
(261,434,o),
(231,439,o),
(200,439,cs),
(99,439,o),
(32,395,o),
(32,331,cs),
(32,283,o),
(68,245,o),
(147,205,cs),
(227,162,o),
(258,132,o),
(258,87,cs),
(258,42,o),
(224,14,o),
(181,14,cs),
(126,14,o),
(90,38,o),
(64,119,cs),
(61,128,o),
(56,133,o),
(47,133,cs),
(38,133,o),
(32,127,o),
(32,118,cs),
(36,23,ls),
(36,16,o),
(38,12,o),
(46,8,cs),
(70,-1,o),
(115,-8,o),
(151,-8,cs)
);
}
);
width = 354;
}
);
unicode = 115;
},
{
glyphname = germandbls;
kernLeft = f;
kernRight = s;
lastChange = "2022-08-23 20:02:28 +0000";
layers = (
{
background = {
shapes = (
{
closed = 1;
nodes = (
(176,411,ls),
(176,564,o),
(215,615,o),
(293,615,cs),
(365,615,o),
(399,572,o),
(399,508,cs),
(399,441,o),
(359,424,o),
(320,411,cs),
(279,399,o),
(239,390,o),
(239,337,cs),
(239,243,o),
(442,218,o),
(442,105,cs),
(442,51,o),
(430,11,o),
(356,11,cs),
(273,11,o),
(283,147,o),
(246,147,cs),
(236,147,o),
(228,144,o),
(228,124,cs),
(228,37,ls),
(228,20,o),
(229,17,o),
(250,7,cs),
(274,-5,o),
(305,-10,o),
(339,-10,cs),
(444,-10,o),
(505,48,o),
(505,121,cs),
(505,200,o),
(451,238,o),
(398,268,cs),
(344,298,o),
(290,319,o),
(290,360,cs),
(290,394,o),
(335,398,o),
(379,411,cs),
(423,423,o),
(468,445,o),
(468,514,cs),
(468,595,o),
(399,636,o),
(300,636,cs),
(186,636,o),
(112,543,o),
(112,424,cs),
(112,401,o),
(94,388,o),
(78,382,cs),
(61,378,o),
(44,377,o),
(44,366,cs),
(44,359,o),
(47,354,o),
(76,354,cs),
(99,354,o),
(107,352,o),
(107,334,cs),
(107,72,ls),
(107,31,o),
(98,23,o),
(49,19,cs),
(39,18,o),
(34,12,o),
(34,8,cs),
(34,2,o),
(41,-3,o),
(51,-3,cs),
(64,-3,o),
(75,1,o),
(107,1,cs),
(125,1,o),
(138,-3,o),
(156,-3,cs),
(172,-3,o),
(176,0,o),
(176,16,cs)
);
}
);
};
layerId = m01;
shapes = (
{
closed = 1;
nodes = (
(437,-8,o),
(496,39,o),
(496,112,cs),
(496,167,o),
(455,214,o),
(385,250,cs),
(300,293,o),
(277,313,o),
(277,344,cs),
(277,411,o),
(452,445,o),
(452,542,cs),
(452,584,o),
(404,636,o),
(304,636,c),
(175,636,o),
(98,556,o),
(98,462,cs),
(98,443,o),
(79,430,o),
(44,428,cs),
(34,427,o),
(30,423,o),
(30,418,cs),
(30,413,o),
(36,410,o),
(44,410,cs),
(70,410,ls),
(87,410,o),
(98,402,o),
(98,389,cs),
(98,57,ls),
(98,33,o),
(91,23,o),
(59,21,cs),
(30,20,ls),
(20,19,o),
(15,14,o),
(15,9,cs),
(15,3,o),
(21,0,o),
(32,0,cs),
(153,0,ls),
(168,0,o),
(176,6,o),
(176,17,c),
(176,484,ls),
(176,571,o),
(231,609,o),
(298,609,cs),
(353,609,o),
(378,585,o),
(378,547,cs),
(378,435,o),
(227,416,o),
(227,322,cs),
(227,275,o),
(259,240,o),
(338,200,cs),
(404,167,o),
(435,132,o),
(435,87,cs),
(435,42,o),
(399,14,o),
(358,14,cs),
(307,14,o),
(284,38,o),
(259,119,cs),
(255,128,o),
(251,133,o),
(241,133,cs),
(232,133,o),
(227,127,o),
(227,118,cs),
(230,23,ls),
(230,16,o),
(232,12,o),
(240,8,cs),
(264,-1,o),
(298,-8,o),
(342,-8,cs)
);
}
);
width = 509;
}
);
metricLeft = f;
unicode = 223;
},
{
glyphname = t;
kernLeft = t;
kernRight = t;
lastChange = "2022-09-01 20:40:20 +0000";
layers = (
{
anchors = (
{
name = bottom;
pos = (150,0);
},
{
name = center;
pos = (130,255);
},
{
name = top;
pos = (130,510);
},
{
name = topright;
pos = (195,760);
}
);
background = {
shapes = (
{
closed = 1;
nodes = (
(77,416,l),
(77,82,ls),
(77,18,o),
(115,-8,o),
(169,-8,cs),
(229,-8,o),
(282,31,o),
(282,128,c),
(254,128,l),
(251,66,o),
(228,41,o),
(193,41,cs),
(164,41,o),
(155,56,o),
(155,81,cs),
(155,416,l)
);
},
{
closed = 1;
nodes = (
(101,484,o),
(71,455,o),
(12,427,c),
(12,410,l),
(262,410,l),
(262,434,l),
(155,434,l),
(155,552,l),
(130,552,l)
);
}
);
};
guides = (
{
angle = 90;
pos = (245,486);
},
{
pos = (-79,649);
}
);
layerId = m01;
shapes = (
{
closed = 1;
nodes = (
(227,-8,o),
(277,28,o),
(282,116,cs),
(282,124,o),
(276,128,o),
(268,128,cs),
(260,128,o),
(254,124,o),
(253,116,cs),
(247,63,o),
(225,41,o),
(193,41,cs),
(164,41,o),
(155,56,o),
(155,81,cs),
(155,398,ls),
(155,405,o),
(161,410,o),
(171,410,cs),
(246,410,ls),
(256,410,o),
(264,414,o),
(264,422,cs),
(264,429,o),
(256,434,o),
(246,434,cs),
(171,434,ls),
(161,434,o),
(155,438,o),
(155,445,cs),
(155,540,ls),
(155,549,o),
(152,553,o),
(143,553,cs),
(135,553,o),
(129,549,o),
(123,536,cs),
(100,484,o),
(72,457,o),
(22,432,cs),
(15,428,o),
(12,425,o),
(12,420,cs),
(12,413,o),
(18,410,o),
(30,410,cs),
(63,410,ls),
(71,410,o),
(77,405,o),
(77,400,cs),
(77,82,ls),
(77,18,o),
(115,-8,o),
(169,-8,cs)
);
}
);
width = 298;
}
);
unicode = 116;
},
{
glyphname = u;
kernLeft = u;
kernRight = u;
lastChange = "2022-09-01 20:40:25 +0000";
layers = (
{
anchors = (
{
name = bottom;
pos = (226,0);
},
{
name = ogonek;
pos = (336,0);
},
{
name = top;
pos = (216,510);
},
{
name = topright;
pos = (436,510);
}
);
background = {
shapes = (
{
closed = 1;
nodes = (
(251,-8,o),
(289,8,o),
(339,45,cs),
(359,60,l),
(369,60,l),
(359,141,l),
(359,82,o),
(305,31,o),
(235,31,cs),
(186,31,o),
(159,51,o),
(159,104,cs),
(159,426,ls),
(159,433,o),
(155,436,o),
(148,436,cs),
(143,436,o),
(138,434,o),
(131,428,cs),
(103,410,o),
(78,397,o),
(31,392,cs),
(18,390,o),
(13,388,o),
(13,382,cs),
(13,377,o),
(16,374,o),
(28,373,cs),
(52,371,ls),
(74,368,o),
(80,363,o),
(80,343,cs),
(80,86,ls),
(80,18,o),
(139,-8,o),
(197,-8,cs)
);
},
{
closed = 1;
nodes = (
(381,-4,o),
(385,-2,o),
(392,3,cs),
(414,22,o),
(439,37,o),
(486,42,cs),
(499,43,o),
(505,46,o),
(505,52,cs),
(505,56,o),
(501,60,o),
(490,60,cs),
(466,63,ls),
(444,65,o),
(437,71,o),
(437,91,cs),
(437,426,ls),
(437,433,o),
(434,436,o),
(427,436,cs),
(421,436,o),
(416,434,o),
(409,428,cs),
(382,410,o),
(356,397,o),
(309,392,cs),
(297,390,o),
(291,388,o),
(291,382,cs),
(291,377,o),
(294,374,o),
(306,373,cs),
(330,371,ls),
(352,368,o),
(359,363,o),
(359,343,cs),
(359,81,l),
(365,81,l),
(365,6,ls),
(365,-1,o),
(368,-4,o),
(375,-4,cs)
);
}
);
};
layerId = m01;
shapes = (
{
closed = 1;
nodes = (
(251,-8,o),
(289,8,o),
(345,49,cs),
(354,56,o),
(365,54,o),
(365,45,cs),
(365,6,ls),
(365,-1,o),
(368,-4,o),
(375,-4,cs),
(381,-4,o),
(385,-2,o),
(392,3,cs),
(414,22,o),
(439,37,o),
(486,42,cs),
(499,43,o),
(505,46,o),
(505,52,cs),
(505,56,o),
(501,60,o),
(490,60,cs),
(466,63,ls),
(444,65,o),
(437,71,o),
(437,91,cs),
(437,421,ls),
(437,428,o),
(430,434,o),
(420,434,cs),
(313,434,ls),
(298,434,o),
(291,428,o),
(291,422,cs),
(291,416,o),
(298,412,o),
(310,411,cs),
(330,410,ls),
(352,408,o),
(359,402,o),
(359,382,cs),
(359,141,ls),
(359,82,o),
(305,31,o),
(235,31,cs),
(186,31,o),
(159,51,o),
(159,104,cs),
(159,421,ls),
(159,428,o),
(152,434,o),
(141,434,cs),
(34,434,ls),
(20,434,o),
(13,428,o),
(13,422,cs),
(13,416,o),
(20,412,o),
(32,411,cs),
(52,410,ls),
(74,408,o),
(80,402,o),
(80,382,cs),
(80,86,ls),
(80,18,o),
(139,-8,o),
(197,-8,cs)
);
}
);
width = 522;
}
);
unicode = 117;
},
{
glyphname = v;
lastChange = "2022-09-01 20:40:32 +0000";
layers = (
{
background = {
shapes = (
{
closed = 1;
nodes = (
(229,-8,o),
(235,-6,o),
(238,2,cs),
(384,356,ls),
(399,392,o),
(414,404,o),
(437,410,cs),
(447,412,ls),
(458,415,o),
(461,419,o),
(461,424,cs),
(461,429,o),
(457,434,o),
(445,434,cs),
(299,434,ls),
(289,434,o),
(283,430,o),
(283,425,cs),
(283,419,o),
(289,416,o),
(298,414,cs),
(322,411,ls),
(360,405,o),
(362,392,o),
(350,361,cs),
(248,108,l),
(243,108,l),
(138,377,ls),
(129,401,o),
(136,409,o),
(172,412,cs),
(191,414,ls),
(200,415,o),
(206,419,o),
(206,425,cs),
(206,430,o),
(200,434,o),
(190,434,cs),
(0,434,ls),
(-9,510,o),
(-14,506,o),
(-14,500,cs),
(-14,493,o),
(-10,489,o),
(-1,487,cs),
(16,411,ls),
(37,408,o),
(44,404,o),
(55,377,cs),
(208,2,ls),
(212,-6,o),
(217,-8,o),
(223,-8,cs)
);
}
);
};
layerId = m01;
shapes = (
{
closed = 1;
nodes = (
(229,-8,o),
(235,-6,o),
(238,2,cs),
(384,356,ls),
(399,392,o),
(414,404,o),
(437,410,cs),
(447,412,ls),
(458,415,o),
(461,419,o),
(461,424,cs),
(461,429,o),
(457,434,o),
(445,434,cs),
(299,434,ls),
(289,434,o),
(283,430,o),
(283,425,cs),
(283,419,o),
(289,416,o),
(298,414,cs),
(322,411,ls),
(360,405,o),
(362,392,o),
(350,361,cs),
(256,131,ls),
(252,118,o),
(238,118,o),
(233,131,cs),
(138,377,ls),
(129,401,o),
(136,409,o),
(172,412,cs),
(191,414,ls),
(200,415,o),
(206,419,o),
(206,425,cs),
(206,430,o),
(200,434,o),
(190,434,cs),
(0,434,ls),
(-9,510,o),
(-14,506,o),
(-14,500,cs),
(-14,493,o),
(-10,489,o),
(-1,487,cs),
(16,411,ls),
(37,408,o),
(44,404,o),
(55,377,cs),
(208,2,ls),
(212,-6,o),
(217,-8,o),
(223,-8,cs)
);
}
);
width = 452;
}
);
unicode = 118;
},
{
glyphname = w;
kernLeft = w;
kernRight = w;
lastChange = "2022-09-01 20:49:11 +0000";
layers = (
{
anchors = (
{
name = bottom;
pos = (299,0);
},
{
name = top;
pos = (311,510);
}
);
background = {
shapes = (
{
closed = 1;
nodes = (
(224,-8,o),
(231,-3,o),
(236,9,cs),
(369,380,l),
(338,385,l),
(239,108,l),
(233,108,l),
(135,377,ls),
(125,401,o),
(132,409,o),
(169,412,cs),
(187,414,ls),
(197,415,o),
(202,419,o),
(202,425,cs),
(202,430,o),
(197,434,o),
(186,434,cs),
(0,434,ls),
(-9,510,o),
(-14,506,o),
(-14,500,cs),
(-14,493,o),
(-10,489,o),
(-1,487,cs),
(16,411,ls),
(37,408,o),
(45,404,o),
(55,377,cs),
(194,9,ls),
(199,-3,o),
(206,-8,o),
(215,-8,cs)
);
},
{
closed = 1;
nodes = (
(476,-8,o),
(483,-3,o),
(488,9,cs),
(619,356,ls),
(632,392,o),
(649,404,o),
(672,410,cs),
(682,412,ls),
(692,415,o),
(696,419,o),
(696,424,cs),
(696,429,o),
(691,434,o),
(680,434,cs),
(536,434,ls),
(526,434,o),
(520,430,o),
(520,425,cs),
(520,419,o),
(526,416,o),
(535,414,cs),
(559,411,ls),
(597,405,o),
(598,392,o),
(586,361,cs),
(491,108,l),
(485,108,l),
(405,377,ls),
(398,401,o),
(402,409,o),
(439,412,cs),
(458,414,ls),
(467,415,o),
(473,419,o),
(473,425,cs),
(473,430,o),
(467,434,o),
(457,434,cs),
(270,434,ls),
(260,434,o),
(254,430,o),
(254,425,cs),
(254,419,o),
(259,416,o),
(269,414,cs),
(286,411,ls),
(307,408,o),
(316,404,o),
(325,377,cs),
(446,9,ls),
(451,-3,o),
(458,-8,o),
(466,-8,cs)
);
}
);
};
layerId = m01;
shapes = (
{
closed = 1;
nodes = (
(224,-8,o),
(231,-3,o),
(236,9,cs),
(335,281,ls),
(339,295,o),
(352,294,o),
(356,281,cs),
(446,9,ls),
(451,-3,o),
(458,-8,o),
(466,-8,cs),
(476,-8,o),
(483,-3,o),
(488,9,cs),
(619,356,ls),
(632,392,o),
(649,404,o),
(672,410,cs),
(682,412,ls),
(692,415,o),
(696,419,o),
(696,424,cs),
(696,429,o),
(691,434,o),
(680,434,cs),
(536,434,ls),
(526,434,o),
(520,430,o),
(520,425,cs),
(520,419,o),
(526,416,o),
(535,414,cs),
(559,411,ls),
(597,405,o),
(598,392,o),
(586,361,cs),
(499,131,ls),
(494,119,o),
(482,120,o),
(478,131,cs),
(405,377,ls),
(398,401,o),
(402,409,o),
(439,412,cs),
(458,414,ls),
(467,415,o),
(473,419,o),
(473,425,cs),
(473,430,o),
(467,434,o),
(457,434,cs),
(270,434,ls),
(260,434,o),
(254,430,o),
(254,425,cs),
(254,419,o),
(259,416,o),
(269,414,cs),
(286,411,ls),
(308,408,o),
(314,405,o),
(325,377,cs),
(330,367,o),
(329,359,o),
(325,349,cs),
(247,129,ls),
(243,117,o),
(230,117,o),
(225,129,cs),
(135,377,ls),
(125,401,o),
(132,409,o),
(169,412,cs),
(187,414,ls),
(197,415,o),
(202,419,o),
(202,425,cs),
(202,430,o),
(197,434,o),
(186,434,cs),
(0,434,ls),
(-9,510,o),
(-14,506,o),
(-14,500,cs),
(-14,493,o),
(-10,489,o),
(-1,487,cs),
(16,411,ls),
(37,408,o),
(45,404,o),
(55,377,cs),
(194,9,ls),
(199,-3,o),
(206,-8,o),
(215,-8,cs)
);
}
);
width = 687;
}
);
unicode = 119;
},
{
glyphname = x;
lastChange = "2022-09-01 20:49:22 +0000";
layers = (
{
background = {
shapes = (
{
closed = 1;
nodes = (
(431,0,ls),
(442,0,o),
(447,3,o),
(447,8,cs),
(447,14,o),
(443,18,o),
(432,20,cs),
(415,22,ls),
(400,25,o),
(392,30,o),
(374,57,cs),
(150,383,ls),
(139,398,o),
(147,408,o),
(168,411,cs),
(185,414,ls),
(194,416,o),
(200,419,o),
(200,425,cs),
(200,430,o),
(194,434,o),
(184,434,cs),
(14,434,ls),
(3,434,o),
(-2,506,o),
(-2,500,cs),
(-2,493,o),
(2,416,o),
(13,414,cs),
(30,411,ls),
(45,409,o),
(54,402,o),
(71,377,cs),
(296,50,ls),
(306,36,o),
(298,26,o),
(277,22,cs),
(260,20,ls),
(251,18,o),
(245,14,o),
(245,8,cs),
(245,3,o),
(251,0,o),
(261,0,cs)
);
},
{
closed = 1;
nodes = (
(154,0,ls),
(164,0,o),
(170,3,o),
(170,8,cs),
(170,14,o),
(166,18,o),
(155,20,cs),
(125,25,ls),
(105,28,o),
(100,41,o),
(117,65,cs),
(200,181,l),
(216,181,l),
(179,219,l),
(186,209,o),
(186,203,o),
(178,193,cs),
(93,77,ls),
(62,35,o),
(47,29,o),
(18,24,cs),
(5,21,ls),
(-5,23,o),
(-8,17,o),
(-8,11,cs),
(-8,5,o),
(-4,0,o),
(7,0,cs)
);
},
{
closed = 1;
nodes = (
(254,231,o),
(254,237,o),
(262,247,cs),
(342,356,ls),
(373,399,o),
(388,405,o),
(416,410,cs),
(430,412,ls),
(440,414,o),
(444,419,o),
(444,424,cs),
(444,429,o),
(439,434,o),
(428,434,cs),
(281,434,ls),
(270,434,o),
(264,430,o),
(264,425,cs),
(264,419,o),
(269,416,o),
(279,414,cs),
(309,409,ls),
(330,405,o),
(335,393,o),
(317,368,cs),
(240,260,l),
(223,260,l),
(261,221,l)
);
}
);
};
layerId = m01;
shapes = (
{
closed = 1;
nodes = (
(431,0,ls),
(442,0,o),
(447,3,o),
(447,8,cs),
(447,14,o),
(443,18,o),
(432,20,cs),
(415,22,ls),
(400,25,o),
(392,30,o),
(374,57,cs),
(261,221,ls),
(254,231,o),
(254,237,o),
(262,247,cs),
(342,356,ls),
(373,399,o),
(388,405,o),
(416,410,cs),
(430,412,ls),
(440,414,o),
(444,419,o),
(444,424,cs),
(444,429,o),
(439,434,o),
(428,434,cs),
(281,434,ls),
(270,434,o),
(264,430,o),
(264,425,cs),
(264,419,o),
(269,416,o),
(279,414,cs),
(309,409,ls),
(330,405,o),
(335,393,o),
(317,368,cs),
(248,271,ls),
(243,264,o),
(233,264,o),
(228,271,cs),
(150,383,ls),
(139,398,o),
(147,408,o),
(168,411,cs),
(185,414,ls),
(194,416,o),
(200,419,o),
(200,425,cs),
(200,430,o),
(194,434,o),
(184,434,cs),
(14,434,ls),
(3,434,o),
(-2,506,o),
(-2,500,cs),
(-2,493,o),
(2,416,o),
(13,414,cs),
(30,411,ls),
(45,409,o),
(54,402,o),
(71,377,cs),
(181,218,ls),
(186,208,o),
(185,202,o),
(178,193,cs),
(93,77,ls),
(62,35,o),
(47,29,o),
(18,24,cs),
(5,21,ls),
(-5,23,o),
(-8,17,o),
(-8,11,cs),
(-8,5,o),
(-4,0,o),
(7,0,cs),
(154,0,ls),
(164,0,o),
(170,3,o),
(170,8,cs),
(170,14,o),
(166,18,o),
(155,20,cs),
(125,25,ls),
(105,28,o),
(100,41,o),
(117,65,cs),
(192,169,ls),
(198,178,o),
(208,177,o),
(214,169,cs),
(296,50,ls),
(306,36,o),
(298,26,o),
(277,22,cs),
(260,20,ls),
(251,18,o),
(245,14,o),
(245,8,cs),
(245,3,o),
(251,0,o),
(261,0,cs)
);
}
);
width = 443;
}
);
unicode = 120;
},
{
glyphname = y;
kernLeft = y;
kernRight = y;
lastChange = "2022-09-01 20:21:06 +0000";
layers = (
{
anchors = (
{
name = bottom;
pos = (201,0);
},
{
name = top;
pos = (201,510);
}
);
background = {
shapes = (
{
closed = 1;
nodes = (
(143,-174,o),
(171,-159,o),
(222,-39,cs),
(393,356,ls),
(409,392,o),
(423,404,o),
(446,410,cs),
(457,412,ls),
(467,415,o),
(470,419,o),
(470,424,cs),
(470,429,o),
(466,434,o),
(454,434,cs),
(308,434,ls),
(298,434,o),
(292,430,o),
(292,425,cs),
(292,419,o),
(298,416,o),
(307,414,cs),
(331,411,ls),
(369,405,o),
(371,392,o),
(359,361,cs),
(253,108,l),
(247,108,l),
(138,377,ls),
(128,401,o),
(136,409,o),
(172,412,cs),
(191,414,ls),
(200,415,o),
(206,419,o),
(206,425,cs),
(206,430,o),
(200,434,o),
(190,434,cs),
(0,434,ls),
(-9,510,o),
(-14,506,o),
(-14,500,cs),
(-14,493,o),
(-10,489,o),
(-1,487,cs),
(16,411,ls),
(37,408,o),
(44,404,o),
(55,377,cs),
(181,82,ls),
(207,20,o),
(207,-4,o),
(185,-54,cs),
(161,-111,o),
(150,-123,o),
(133,-123,cs),
(107,-123,o),
(124,-84,o),
(75,-84,cs),
(45,-84,o),
(28,-101,o),
(28,-122,cs),
(28,-150,o),
(54,-174,o),
(95,-174,cs)
);
}
);
};
layerId = m01;
shapes = (
{
closed = 1;
nodes = (
(143,-174,o),
(170,-159,o),
(222,-39,cs),
(393,356,ls),
(409,392,o),
(423,404,o),
(446,410,cs),
(457,412,ls),
(467,415,o),
(470,419,o),
(470,424,cs),
(470,429,o),
(466,434,o),
(454,434,cs),
(308,434,ls),
(298,434,o),
(292,430,o),
(292,425,cs),
(292,419,o),
(298,416,o),
(307,414,cs),
(331,411,ls),
(369,405,o),
(371,392,o),
(359,361,cs),
(261,128,ls),
(256,116,o),
(244,116,o),
(239,128,cs),
(138,377,ls),
(128,401,o),
(136,409,o),
(172,412,cs),
(191,414,ls),
(200,415,o),
(206,419,o),
(206,425,cs),
(206,430,o),
(200,434,o),
(190,434,cs),
(0,434,ls),
(-9,510,o),
(-14,506,o),
(-14,500,cs),
(-14,493,o),
(-10,489,o),
(-1,487,cs),
(16,411,ls),
(37,408,o),
(44,404,o),
(55,377,cs),
(181,82,ls),
(207,20,o),
(207,-4,o),
(185,-54,cs),
(161,-111,o),
(150,-123,o),
(133,-123,cs),
(107,-123,o),
(124,-84,o),
(75,-84,cs),
(45,-84,o),
(28,-101,o),
(28,-122,cs),
(28,-150,o),
(54,-174,o),
(95,-174,cs)
);
}
);
width = 461;
}
);
metricRight = v;
unicode = 121;
},
{
glyphname = z;
kernLeft = z;
kernRight = z;
lastChange = "2022-09-01 20:49:33 +0000";
layers = (
{
anchors = (
{
name = bottom;
pos = (177,0);
},
{
name = center;
pos = (177,255);
},
{
name = top;
pos = (203,510);
}
);
background = {
shapes = (
{
closed = 1;
nodes = (
(335,0,ls),
(348,0,o),
(356,5,o),
(359,15,cs),
(389,140,ls),
(391,149,o),
(385,155,o),
(377,155,cs),
(368,155,o),
(365,151,o),
(360,144,cs),
(325,82,ls),
(302,41,o),
(276,24,o),
(186,24,cs),
(135,24,ls),
(117,24,o),
(114,31,o),
(121,41,cs),
(376,401,ls),
(383,411,o),
(388,418,o),
(388,422,cs),
(388,428,o),
(383,434,o),
(370,434,cs),
(136,434,ls),
(92,434,o),
(107,454,o),
(86,454,cs),
(76,454,o),
(69,449,o),
(66,434,cs),
(38,318,ls),
(36,310,o),
(40,305,o),
(49,305,cs),
(57,305,o),
(62,309,o),
(67,316,cs),
(92,355,ls),
(115,391,o),
(145,410,o),
(231,410,cs),
(271,410,ls),
(286,410,o),
(292,402,o),
(285,393,cs),
(29,32,ls),
(22,22,o),
(17,15,o),
(17,11,cs),
(17,5,o),
(22,0,o),
(34,0,cs)
);
}
);
};
layerId = m01;
shapes = (
{
closed = 1;
nodes = (
(335,0,ls),
(348,0,o),
(356,5,o),
(359,15,cs),
(389,140,ls),
(391,149,o),
(385,155,o),
(377,155,cs),
(368,155,o),
(365,151,o),
(360,144,cs),
(325,82,ls),
(302,39,o),
(275,22,o),
(185,22,cs),
(133,22,ls),
(116,22,o),
(113,30,o),
(120,39,cs),
(376,401,ls),
(383,411,o),
(388,418,o),
(388,422,cs),
(388,428,o),
(383,434,o),
(370,434,cs),
(140,434,ls),
(97,434,o),
(112,454,o),
(91,454,cs),
(80,454,o),
(74,449,o),
(70,434,cs),
(43,318,ls),
(40,310,o),
(45,305,o),
(54,305,cs),
(62,305,o),
(67,309,o),
(71,316,cs),
(97,355,ls),
(120,391,o),
(150,411,o),
(224,411,cs),
(273,411,ls),
(288,411,o),
(293,404,o),
(286,394,cs),
(29,32,ls),
(22,22,o),
(17,15,o),
(17,11,cs),
(17,5,o),
(22,0,o),
(34,0,cs)
);
}
);
width = 406;
}
);
unicode = 122;
},
{
glyphname = a.ss01;
kernLeft = a;
kernRight = a;
lastChange = "2022-08-27 16:36:11 +0000";
layers = (
{
background = {
shapes = (
{
closed = 1;
nodes = (
(194,-8,o),
(229,12,o),
(266,49,cs),
(276,60,o),
(290,60,o),
(292,48,cs),
(299,18,o),
(321,-8,o),
(358,-8,cs),
(407,-8,o),
(453,27,o),
(453,110,cs),
(453,120,o),
(447,124,o),
(439,124,cs),
(431,124,o),
(424,120,o),
(424,110,cs),
(424,63,o),
(404,45,o),
(384,45,cs),
(369,45,o),
(360,56,o),
(360,81,cs),
(360,341,ls),
(360,407,o),
(320,439,o),
(246,439,cs),
(148,439,o),
(36,368,o),
(36,302,cs),
(36,286,o),
(48,278,o),
(68,278,cs),
(93,278,o),
(123,293,o),
(131,330,cs),
(145,389,o),
(178,413,o),
(217,413,cs),
(256,413,o),
(282,392,o),
(282,337,cs),
(282,149,ls),
(282,82,o),
(228,31,o),
(169,31,cs),
(131,31,o),
(110,52,o),
(110,90,cs),
(110,158,o),
(178,205,o),
(292,229,c),
(292,252,l),
(139,220,o),
(28,151,o),
(28,75,cs),
(28,25,o),
(74,-8,o),
(138,-8,cs)
);
}
);
};
layerId = m01;
shapes = (
{
closed = 1;
nodes = (
(194,-8,o),
(229,12,o),
(266,49,cs),
(276,60,o),
(290,60,o),
(292,48,cs),
(300,8,o),
(316,-8,o),
(356,-8,cs),
(396,-8,o),
(429,16,o),
(429,30,cs),
(429,34,o),
(425,37,o),
(420,37,cs),
(411,37,o),
(404,28,o),
(386,28,cs),
(368,28,o),
(360,37,o),
(360,56,cs),
(360,341,ls),
(360,407,o),
(320,439,o),
(246,439,cs),
(148,439,o),
(36,368,o),
(36,302,cs),
(36,286,o),
(48,278,o),
(68,278,cs),
(93,278,o),
(123,293,o),
(131,330,cs),
(145,389,o),
(178,413,o),
(217,413,cs),
(256,413,o),
(282,392,o),
(282,337,cs),
(282,260,ls),
(282,253,o),
(277,248,o),
(267,246,cs),
(128,212,o),
(28,147,o),
(28,75,cs),
(28,25,o),
(74,-8,o),
(138,-8,cs)
);
},
{
closed = 1;
nodes = (
(131,31,o),
(110,52,o),
(110,90,cs),
(110,151,o),
(164,195,o),
(258,220,cs),
(273,224,o),
(282,220,o),
(282,211,cs),
(282,149,ls),
(282,82,o),
(228,31,o),
(169,31,cs)
);
}
);
width = 447;
}
);
},
{
glyphname = c.ss01;
kernLeft = o;
kernRight = c;
lastChange = "2022-08-27 16:33:08 +0000";
layers = (
{
anchors = (
{
name = bottom;
pos = (182,0);
},
{
name = top;
pos = (208,510);
}
);
background = {
shapes = (
{
closed = 1;
nodes = (
(283,-8,o),
(337,22,o),
(363,142,cs),
(366,152,o),
(362,159,o),
(353,159,cs),
(345,159,o),
(342,156,o),
(339,150,cs),
(313,63,o),
(279,36,o),
(225,36,cs),
(158,36,o),
(112,97,o),
(112,218,cs),
(112,361,o),
(171,416,o),
(217,416,cs),
(256,416,o),
(283,393,o),
(315,299,cs),
(317,292,o),
(323,288,o),
(331,288,cs),
(338,288,o),
(345,292,o),
(345,301,cs),
(343,405,ls),
(343,414,o),
(339,419,o),
(331,423,cs),
(309,434,o),
(285,439,o),
(248,439,cs),
(123,439,o),
(26,345,o),
(26,201,cs),
(26,71,o),
(106,-8,o),
(207,-8,cs)
);
}
);
};
layerId = m01;
shapes = (
{
closed = 1;
nodes = (
(296,-8,o),
(343,32,o),
(363,97,cs),
(366,104,o),
(363,110,o),
(354,110,cs),
(347,110,o),
(343,107,o),
(340,101,cs),
(320,54,o),
(282,31,o),
(235,31,cs),
(158,31,o),
(112,97,o),
(112,218,cs),
(112,361,o),
(171,416,o),
(217,416,cs),
(256,416,o),
(283,393,o),
(315,299,cs),
(317,292,o),
(323,288,o),
(331,288,cs),
(338,288,o),
(345,292,o),
(345,301,cs),
(343,405,ls),
(343,414,o),
(339,419,o),
(331,423,cs),
(309,434,o),
(285,439,o),
(248,439,cs),
(123,439,o),
(26,345,o),
(26,201,cs),
(26,71,o),
(106,-8,o),
(213,-8,cs)
);
}
);
width = 390;
}
);
},
{
glyphname = d.ss01;
kernLeft = o;
kernRight = d;
lastChange = "2022-08-27 16:36:33 +0000";
layers = (
{
anchors = (
{
name = bottom;
pos = (223,0);
},
{
name = center;
pos = (223,255);
},
{
name = top;
pos = (223,740);
},
{
name = topright;
pos = (402,740);
}
);
background = {
shapes = (
{
closed = 1;
nodes = (
(256,-8,o),
(286,5,o),
(322,40,cs),
(343,60,l),
(353,60,l),
(348,144,l),
(348,81,o),
(292,31,o),
(233,31,cs),
(162,31,o),
(120,94,o),
(120,210,cs),
(120,337,o),
(177,417,o),
(263,417,cs),
(314,417,o),
(348,386,o),
(348,335,c),
(392,408,l),
(375,408,l),
(340,429,o),
(305,439,o),
(267,439,cs),
(132,439,o),
(34,340,o),
(34,198,cs),
(34,75,o),
(106,-8,o),
(208,-8,cs)
);
},
{
closed = 1;
nodes = (
(474,-8,o),
(520,27,o),
(520,110,cs),
(520,120,o),
(514,124,o),
(506,124,cs),
(498,124,o),
(491,120,o),
(491,110,cs),
(491,63,o),
(470,45,o),
(451,45,cs),
(436,45,o),
(427,56,o),
(427,81,cs),
(427,615,ls),
(427,625,o),
(422,629,o),
(414,629,cs),
(407,629,o),
(399,626,o),
(386,620,cs),
(367,611,o),
(338,602,o),
(290,595,cs),
(282,594,o),
(277,590,o),
(277,585,cs),
(277,580,o),
(282,575,o),
(290,575,cs),
(320,572,ls),
(342,570,o),
(348,564,o),
(348,544,cs),
(348,62,ls),
(348,18,o),
(383,-8,o),
(425,-8,cs)
);
}
);
};
layerId = m01;
shapes = (
{
closed = 1;
nodes = (
(259,-8,o),
(289,5,o),
(331,49,cs),
(339,58,o),
(352,59,o),
(354,48,cs),
(362,8,o),
(383,-8,o),
(422,-8,cs),
(470,-8,o),
(501,21,o),
(501,35,cs),
(501,39,o),
(498,42,o),
(492,42,cs),
(483,42,o),
(474,28,o),
(452,28,cs),
(435,28,o),
(427,37,o),
(427,56,cs),
(427,615,ls),
(427,625,o),
(422,629,o),
(414,629,cs),
(407,629,o),
(399,626,o),
(386,620,cs),
(367,611,o),
(338,602,o),
(290,595,cs),
(282,594,o),
(277,590,o),
(277,585,cs),
(277,580,o),
(282,575,o),
(290,575,cs),
(320,572,ls),
(342,570,o),
(348,564,o),
(348,544,cs),
(348,435,ls),
(348,427,o),
(342,425,o),
(330,429,cs),
(309,436,o),
(289,439,o),
(267,439,cs),
(132,439,o),
(34,340,o),
(34,198,cs),
(34,75,o),
(106,-8,o),
(208,-8,cs)
);
},
{
closed = 1;
nodes = (
(162,31,o),
(120,94,o),
(120,210,cs),
(120,337,o),
(177,417,o),
(263,417,cs),
(314,417,o),
(348,386,o),
(348,335,cs),
(348,144,ls),
(348,81,o),
(292,31,o),
(233,31,cs)
);
}
);
width = 513;
}
);
},
{
glyphname = dcroat.ss01;
kernLeft = o;
kernRight = d;
lastChange = "2022-08-27 16:34:48 +0000";
layers = (
{
layerId = m01;
shapes = (
{
ref = d.ss01;
},
{
closed = 1;
nodes = (
(491,491,ls),
(498,491,o),
(503,495,o),
(503,500,cs),
(503,507,ls),
(503,512,o),
(498,515,o),
(491,515,cs),
(175,515,ls),
(168,515,o),
(163,512,o),
(163,507,cs),
(163,500,ls),
(163,495,o),
(168,491,o),
(175,491,cs)
);
}
);
width = 526;
}
);
},
{
glyphname = e.ss01;
kernLeft = o;
kernRight = e;
lastChange = "2022-08-27 16:36:41 +0000";
layers = (
{
anchors = (
{
name = bottom;
pos = (178,0);
},
{
name = ogonek;
pos = (266,10);
},
{
name = top;
pos = (178,510);
}
);
background = {
shapes = (
{
closed = 1;
nodes = (
(352,232,ls),
(379,232,o),
(379,235,o),
(379,290,cs),
(379,384,o),
(316,439,o),
(229,439,cs),
(126,439,o),
(26,363,o),
(26,206,cs),
(26,78,o),
(102,-8,o),
(235,-8,cs),
(292,-8,o),
(346,19,o),
(369,61,cs),
(376,75,o),
(382,90,o),
(382,105,cs),
(382,115,o),
(378,116,o),
(375,116,cs),
(366,116,o),
(363,104,o),
(354,85,cs),
(337,51,o),
(301,31,o),
(246,31,cs),
(162,31,o),
(105,103,o),
(105,214,cs),
(105,226,o),
(112,232,o),
(132,232,cs)
);
},
{
closed = 1;
nodes = (
(108,279,ls),
(108,355,o),
(158,416,o),
(223,416,cs),
(275,416,o),
(313,378,o),
(313,314,cs),
(313,288,o),
(308,278,o),
(298,271,cs),
(290,267,o),
(263,262,o),
(223,260,cs),
(205,259,o),
(184,258,o),
(160,258,cs),
(110,258,o),
(108,262,o),
(108,278,cs)
);
}
);
};
layerId = m01;
shapes = (
{
closed = 1;
nodes = (
(310,-8,o),
(355,32,o),
(376,88,cs),
(378,95,o),
(376,102,o),
(367,102,cs),
(360,102,o),
(355,99,o),
(352,93,cs),
(332,54,o),
(299,31,o),
(245,31,cs),
(159,31,o),
(109,96,o),
(109,216,cs),
(109,230,o),
(117,235,o),
(132,235,cs),
(351,235,ls),
(370,235,o),
(379,246,o),
(379,264,cs),
(379,387,o),
(317,439,o),
(228,439,cs),
(114,439,o),
(26,345,o),
(26,212,cs),
(26,80,o),
(110,-8,o),
(224,-8,cs)
);
},
{
closed = 1;
nodes = (
(117,257,o),
(110,262,o),
(112,270,cs),
(123,364,o),
(167,417,o),
(227,417,cs),
(275,417,o),
(300,373,o),
(300,299,cs),
(300,269,o),
(283,257,o),
(245,257,cs),
(129,257,ls)
);
}
);
width = 408;
}
);
},
{
glyphname = g.ss01;
kernLeft = g;
kernRight = g;
lastChange = "2022-08-27 16:37:06 +0000";
layers = (
{
anchors = (
{
name = bottom;
pos = (198,-205);
},
{
name = top;
pos = (198,510);
}
);
background = {
shapes = (
{
closed = 1;
nodes = (
(337,-183,o),
(443,-122,o),
(443,-39,cs),
(443,31,o),
(374,74,o),
(263,74,cs),
(178,74,ls),
(141,74,o),
(122,83,o),
(122,102,cs),
(122,122,o),
(143,133,o),
(195,144,cs),
(264,157,ls),
(344,173,o),
(397,227,o),
(397,296,cs),
(397,341,o),
(374,380,o),
(338,405,c),
(338,410,l),
(417,410,ls),
(430,410,o),
(438,414,o),
(438,422,cs),
(438,429,o),
(430,434,o),
(417,434,cs),
(307,434,ls),
(273,434,o),
(259,439,o),
(227,439,cs),
(130,439,o),
(54,377,o),
(54,299,cs),
(54,237,o),
(106,180,o),
(178,163,c),
(178,160,l),
(136,151,ls),
(83,141,o),
(48,115,o),
(48,84,cs),
(48,57,o),
(74,36,o),
(122,22,c),
(122,17,l),
(95,7,ls),
(43,-14,o),
(16,-42,o),
(16,-79,cs),
(16,-143,o),
(89,-183,o),
(205,-183,cs)
);
},
{
closed = 1;
nodes = (
(85,-19,o),
(159,22,o),
(216,22,cs),
(253,22,ls),
(327,22,o),
(369,-7,o),
(369,-58,cs),
(369,-120,o),
(301,-164,o),
(218,-164,cs),
(133,-164,o),
(85,-133,o),
(85,-69,cs)
);
},
{
closed = 1;
nodes = (
(136,371,o),
(171,420,o),
(225,420,cs),
(279,420,o),
(315,371,o),
(315,298,cs),
(315,222,o),
(281,174,o),
(225,174,cs),
(170,174,o),
(136,222,o),
(136,298,cs)
);
}
);
};
guides = (
{
pos = (124,26);
}
);
layerId = m01;
shapes = (
{
closed = 1;
nodes = (
(351,-183,o),
(457,-122,o),
(457,-39,cs),
(457,31,o),
(388,74,o),
(277,74,cs),
(164,74,ls),
(131,74,o),
(121,94,o),
(152,121,cs),
(181,144,o),
(199,153,o),
(227,153,cs),
(323,153,o),
(397,214,o),
(397,296,cs),
(397,332,o),
(382,365,o),
(356,389,cs),
(352,394,o),
(353,398,o),
(361,400,cs),
(423,411,ls),
(434,412,o),
(438,416,o),
(438,423,cs),
(438,429,o),
(432,434,o),
(421,434,cs),
(319,434,ls),
(268,434,o),
(259,439,o),
(227,439,cs),
(130,439,o),
(54,377,o),
(54,299,cs),
(54,245,o),
(93,199,o),
(138,177,cs),
(156,168,o),
(159,156,o),
(141,144,cs),
(75,103,ls),
(38,80,o),
(49,50,o),
(105,33,cs),
(123,27,o),
(123,15,o),
(105,3,cs),
(26,-48,o),
(16,-65,o),
(16,-94,cs),
(16,-143,o),
(89,-183,o),
(205,-183,cs)
);
},
{
closed = 1;
nodes = (
(85,-60,o),
(91,-39,o),
(133,-5,cs),
(161,16,o),
(178,22,o),
(227,22,cs),
(267,22,ls),
(340,22,o),
(383,-7,o),
(383,-58,cs),
(383,-120,o),
(315,-164,o),
(218,-164,cs),
(133,-164,o),
(85,-131,o),
(85,-83,cs)
);
},
{
closed = 1;
nodes = (
(136,371,o),
(171,420,o),
(225,420,cs),
(279,420,o),
(315,371,o),
(315,298,cs),
(315,222,o),
(281,174,o),
(225,174,cs),
(170,174,o),
(136,222,o),
(136,298,cs)
);
}
);
width = 454;
}
);
},
{
glyphname = f_b;
kernLeft = f;
kernRight = o;
lastChange = "2023-02-22 10:41:05 +0000";
layers = (
{
anchors = (
{
name = bottom_1;
pos = (179,0);
},
{
name = bottom_2;
pos = (537,0);
},
{
name = caret_1;
pos = (358,0);
},
{
name = top_1;
pos = (179,740);
},
{
name = top_2;
pos = (537,740);
}
);
background = {
shapes = (
{
closed = 1;
nodes = (
(98,33,o),
(91,23,o),
(59,21,cs),
(30,20,ls),
(20,19,o),
(15,14,o),
(15,9,cs),
(15,3,o),
(21,0,o),
(32,0,cs),
(271,0,ls),
(283,0,o),
(289,3,o),
(289,10,cs),
(289,15,o),
(284,19,o),
(276,20,cs),
(215,24,ls),
(183,26,o),
(176,33,o),
(176,57,cs),
(176,400,ls),
(176,405,o),
(182,410,o),
(190,410,cs),
(289,410,ls),
(298,410,o),
(306,414,o),
(306,422,cs),
(306,429,o),
(298,434,o),
(289,434,cs),
(190,434,ls),
(182,434,o),
(176,438,o),
(176,444,cs),
(176,518,ls),
(176,588,o),
(194,609,o),
(225,609,cs),
(283,609,o),
(256,537,o),
(319,537,cs),
(343,537,o),
(359,548,o),
(359,570,cs),
(359,606,o),
(312,636,o),
(251,636,cs),
(152,636,o),
(98,556,o),
(98,468,cs),
(98,462,ls),
(98,443,o),
(79,430,o),
(44,428,cs),
(34,427,o),
(30,423,o),
(30,418,cs),
(30,413,o),
(36,410,o),
(44,410,cs),
(70,410,ls),
(87,410,o),
(98,402,o),
(98,389,cs),
(98,57,ls)
);
},
{
closed = 1;
nodes = (
(697,-8,o),
(795,91,o),
(795,233,cs),
(795,356,o),
(719,439,o),
(613,439,cs),
(572,439,o),
(538,427,o),
(505,401,cs),
(492,392,o),
(481,396,o),
(481,405,cs),
(481,615,ls),
(481,625,o),
(476,629,o),
(468,629,cs),
(461,629,o),
(453,626,o),
(440,620,cs),
(421,611,o),
(392,602,o),
(350,595,cs),
(342,594,o),
(337,590,o),
(337,585,cs),
(337,580,o),
(342,575,o),
(350,575,cs),
(374,572,ls),
(396,570,o),
(402,564,o),
(402,544,cs),
(402,136,ls),
(402,68,o),
(399,30,o),
(393,4,cs),
(391,-3,o),
(394,-8,o),
(402,-8,cs),
(409,-8,o),
(416,-5,o),
(431,8,cs),
(445,21,o),
(459,24,o),
(477,14,cs),
(507,-1,o),
(536,-8,o),
(568,-8,cs)
);
},
{
closed = 1;
nodes = (
(515,14,o),
(481,45,o),
(481,96,cs),
(481,310,ls),
(481,367,o),
(524,400,o),
(577,400,cs),
(661,400,o),
(710,337,o),
(710,221,cs),
(710,94,o),
(652,14,o),
(566,14,cs)
);
}
);
};
layerId = m01;
shapes = (
{
closed = 1;
nodes = (
(392,-8,o),
(399,-5,o),
(414,8,cs),
(428,21,o),
(442,24,o),
(460,14,cs),
(490,-1,o),
(519,-8,o),
(551,-8,cs),
(680,-8,o),
(777,91,o),
(777,233,cs),
(777,356,o),
(702,439,o),
(596,439,cs),
(554,439,o),
(521,427,o),
(488,401,cs),
(475,392,o),
(463,396,o),
(463,405,cs),
(463,615,ls),
(463,625,o),
(459,632,o),
(448,632,cs),
(435,632,o),
(430,626,o),
(421,605,cs),
(417,598,o),
(408,597,o),
(401,603,cs),
(374,624,o),
(338,636,o),
(294,636,cs),
(169,636,o),
(98,556,o),
(98,468,cs),
(98,462,ls),
(98,443,o),
(79,430,o),
(44,428,cs),
(34,427,o),
(30,423,o),
(30,418,cs),
(30,413,o),
(36,410,o),
(44,410,cs),
(70,410,ls),
(87,410,o),
(98,402,o),
(98,389,cs),
(98,57,ls),
(98,33,o),
(91,24,o),
(53,21,cs),
(30,20,ls),
(20,19,o),
(15,14,o),
(15,9,cs),
(15,3,o),
(21,0,o),
(32,0,cs),
(233,0,ls),
(245,0,o),
(251,3,o),
(251,10,cs),
(251,15,o),
(246,19,o),
(238,20,cs),
(209,22,ls),
(183,25,o),
(176,33,o),
(176,57,cs),
(176,400,ls),
(176,405,o),
(182,410,o),
(190,410,cs),
(289,410,ls),
(298,410,o),
(306,414,o),
(306,422,cs),
(306,429,o),
(298,434,o),
(289,434,cs),
(190,434,ls),
(182,434,o),
(176,438,o),
(176,444,cs),
(176,502,ls),
(176,588,o),
(228,615,o),
(285,615,cs),
(360,615,o),
(385,570,o),
(385,515,cs),
(385,136,ls),
(385,68,o),
(382,30,o),
(376,4,cs),
(374,-3,o),
(377,-8,o),
(385,-8,cs)
);
},
{
closed = 1;
nodes = (
(498,14,o),
(463,45,o),
(463,96,cs),
(463,310,ls),
(463,367,o),
(507,400,o),
(560,400,cs),
(644,400,o),
(692,337,o),
(692,221,cs),
(692,94,o),
(635,14,o),
(549,14,cs)
);
}
);
width = 823;
}
);
metricLeft = f;
metricRight = b;
},
{
glyphname = f_f_i;
lastChange = "2023-02-22 10:41:05 +0000";
layers = (
{
anchors = (
{
name = caret_1;
pos = (242.333,0);
},
{
name = caret_2;
pos = (484.667,0);
}
);
background = {
shapes = (
{
closed = 1;
nodes = (
(521,0,ls),
(532,0,o),
(538,3,o),
(538,10,cs),
(538,15,o),
(534,19,o),
(526,20,cs),
(497,22,ls),
(470,25,o),
(463,33,o),
(463,57,cs),
(463,400,ls),
(463,405,o),
(469,410,o),
(477,410,cs),
(654,410,ls),
(665,410,o),
(670,405,o),
(670,398,cs),
(670,57,ls),
(670,33,o),
(664,26,o),
(626,21,cs),
(612,20,ls),
(601,18,o),
(597,14,o),
(597,9,cs),
(597,3,o),
(603,0,o),
(614,0,cs),
(806,0,ls),
(818,0,o),
(823,3,o),
(823,10,cs),
(823,15,o),
(819,19,o),
(811,20,cs),
(782,22,ls),
(756,25,o),
(749,33,o),
(749,57,cs),
(749,413,ls),
(749,426,o),
(738,434,o),
(721,434,cs),
(477,434,ls),
(469,434,o),
(463,438,o),
(463,444,cs),
(463,502,ls),
(463,588,o),
(515,611,o),
(573,611,cs),
(661,611,o),
(641,532,o),
(705,532,cs),
(737,532,o),
(751,547,o),
(751,568,cs),
(751,604,o),
(689,636,o),
(596,636,cs),
(486,636,o),
(417,587,o),
(393,524,c),
(385,524,l),
(385,57,ls),
(385,33,o),
(378,24,o),
(340,21,cs),
(317,20,ls),
(307,19,o),
(302,14,o),
(302,9,cs),
(302,3,o),
(308,0,o),
(320,0,cs)
);
},
{
closed = 1;
nodes = (
(438,541,l),
(406,595,o),
(361,619,o),
(294,619,cs),
(169,619,o),
(98,539,o),
(98,468,cs),
(98,462,ls),
(98,443,o),
(79,430,o),
(44,428,cs),
(34,427,o),
(30,423,o),
(30,418,cs),
(30,413,o),
(36,410,o),
(44,410,cs),
(70,410,ls),
(87,410,o),
(98,402,o),
(98,389,cs),
(98,57,ls),
(98,33,o),
(91,24,o),
(53,21,cs),
(30,20,ls),
(20,19,o),
(15,14,o),
(15,9,cs),
(15,3,o),
(21,0,o),
(32,0,cs),
(233,0,ls),
(245,0,o),
(251,3,o),
(251,10,cs),
(251,15,o),
(246,19,o),
(238,20,cs),
(209,22,ls),
(183,25,o),
(176,33,o),
(176,57,cs),
(176,400,ls),
(176,405,o),
(182,410,o),
(190,410,cs),
(400,410,ls),
(409,410,o),
(417,414,o),
(417,422,cs),
(417,429,o),
(409,434,o),
(400,434,cs),
(190,434,ls),
(182,434,o),
(176,438,o),
(176,444,cs),
(176,502,ls),
(176,571,o),
(228,598,o),
(285,598,cs),
(360,598,o),
(385,553,o),
(385,498,c)
);
}
);
};
layerId = m01;
shapes = (
{
closed = 1;
nodes = (
(233,0,ls),
(245,0,o),
(251,3,o),
(251,10,cs),
(251,15,o),
(246,19,o),
(238,20,cs),
(209,22,ls),
(183,25,o),
(176,33,o),
(176,57,cs),
(176,400,ls),
(176,405,o),
(182,410,o),
(190,410,cs),
(371,410,ls),
(379,410,o),
(385,405,o),
(385,400,cs),
(385,57,ls),
(385,33,o),
(378,24,o),
(340,21,cs),
(317,20,ls),
(307,19,o),
(302,14,o),
(302,9,cs),
(302,3,o),
(308,0,o),
(320,0,cs),
(521,0,ls),
(532,0,o),
(538,3,o),
(538,10,cs),
(538,15,o),
(534,19,o),
(526,20,cs),
(497,22,ls),
(470,25,o),
(463,33,o),
(463,57,cs),
(463,400,ls),
(463,405,o),
(469,410,o),
(477,410,cs),
(654,410,ls),
(665,410,o),
(670,405,o),
(670,398,cs),
(670,57,ls),
(670,33,o),
(664,26,o),
(626,21,cs),
(612,20,ls),
(601,18,o),
(597,14,o),
(597,9,cs),
(597,3,o),
(603,0,o),
(614,0,cs),
(806,0,ls),
(818,0,o),
(823,3,o),
(823,10,cs),
(823,15,o),
(819,19,o),
(811,20,cs),
(782,22,ls),
(756,25,o),
(749,33,o),
(749,57,cs),
(749,413,ls),
(749,426,o),
(738,434,o),
(721,434,cs),
(477,434,ls),
(469,434,o),
(463,438,o),
(463,444,cs),
(463,502,ls),
(463,588,o),
(515,611,o),
(573,611,cs),
(661,611,o),
(641,532,o),
(705,532,cs),
(737,532,o),
(751,547,o),
(751,568,cs),
(751,604,o),
(689,636,o),
(596,636,cs),
(521,636,o),
(465,613,o),
(429,578,cs),
(423,572,o),
(416,572,o),
(411,578,cs),
(381,606,o),
(344,619,o),
(294,619,cs),
(169,619,o),
(98,539,o),
(98,468,cs),
(98,462,ls),
(98,443,o),
(79,430,o),
(44,428,cs),
(34,427,o),
(30,423,o),
(30,418,cs),
(30,413,o),
(36,410,o),
(44,410,cs),
(70,410,ls),
(87,410,o),
(98,402,o),
(98,389,cs),
(98,57,ls),
(98,33,o),
(91,24,o),
(53,21,cs),
(30,20,ls),
(20,19,o),
(15,14,o),
(15,9,cs),
(15,3,o),
(21,0,o),
(32,0,cs)
);
},
{
closed = 1;
nodes = (
(182,434,o),
(176,438,o),
(176,444,cs),
(176,502,ls),
(176,571,o),
(228,598,o),
(285,598,cs),
(360,598,o),
(385,553,o),
(385,498,cs),
(385,444,ls),
(385,438,o),
(379,434,o),
(371,434,cs),
(190,434,ls)
);
}
);
width = 836;
}
);
metricLeft = f;
metricRight = i;
},
{
glyphname = f_f_l;
lastChange = "2023-02-22 10:41:05 +0000";
layers = (
{
anchors = (
{
name = caret_1;
pos = (243.667,0);
},
{
name = caret_2;
pos = (487.333,0);
}
);
background = {
shapes = (
{
closed = 1;
nodes = (
(411,578,l),
(381,606,o),
(344,619,o),
(294,619,cs),
(169,619,o),
(98,539,o),
(98,468,cs),
(98,462,ls),
(98,443,o),
(79,430,o),
(44,428,cs),
(34,427,o),
(30,423,o),
(30,418,cs),
(30,413,o),
(36,410,o),
(44,410,cs),
(70,410,ls),
(87,410,o),
(98,402,o),
(98,389,cs),
(98,57,ls),
(98,33,o),
(91,24,o),
(53,21,cs),
(30,20,ls),
(20,19,o),
(15,14,o),
(15,9,cs),
(15,3,o),
(21,0,o),
(32,0,cs),
(233,0,ls),
(245,0,o),
(251,3,o),
(251,10,cs),
(251,15,o),
(246,19,o),
(238,20,cs),
(209,22,ls),
(183,25,o),
(176,33,o),
(176,57,cs),
(176,400,ls),
(176,405,o),
(182,410,o),
(190,410,cs),
(371,410,ls),
(379,410,o),
(385,405,o),
(385,400,cs),
(385,57,ls),
(385,33,o),
(378,24,o),
(340,21,cs),
(317,20,ls),
(307,19,o),
(302,14,o),
(302,9,cs),
(302,3,o),
(308,0,o),
(320,0,cs),
(521,0,ls),
(532,0,o),
(538,3,o),
(538,10,cs),
(538,15,o),
(534,19,o),
(526,20,cs),
(497,22,ls),
(470,25,o),
(463,33,o),
(463,57,cs),
(463,400,ls),
(463,405,o),
(469,410,o),
(477,410,cs),
(576,410,ls),
(585,410,o),
(593,414,o),
(593,422,cs),
(593,429,o),
(585,434,o),
(576,434,cs),
(477,434,ls),
(469,434,o),
(463,438,o),
(463,444,cs),
(463,502,ls),
(463,588,o),
(515,615,o),
(573,615,cs),
(647,615,o),
(673,570,o),
(673,515,cs),
(673,57,ls),
(673,33,o),
(658,25,o),
(626,21,cs),
(610,20,ls),
(601,19,o),
(597,14,o),
(597,9,cs),
(597,4,o),
(603,0,o),
(611,0,cs),
(815,0,ls),
(823,0,o),
(829,3,o),
(829,9,cs),
(829,15,o),
(825,19,o),
(816,20,cs),
(790,22,ls),
(758,26,o),
(751,33,o),
(751,57,cs),
(751,615,ls),
(751,625,o),
(746,632,o),
(736,632,cs),
(722,632,o),
(718,626,o),
(708,605,cs),
(705,598,o),
(696,597,o),
(689,603,cs),
(661,624,o),
(626,636,o),
(582,636,cs),
(485,636,o),
(421,588,o),
(397,526,c),
(385,526,l),
(385,444,ls),
(385,438,o),
(379,434,o),
(371,434,cs),
(190,434,ls),
(182,434,o),
(176,438,o),
(176,444,cs),
(176,502,ls),
(176,571,o),
(228,598,o),
(285,598,cs),
(360,598,o),
(385,553,o),
(385,498,c)
);
}
);
};
layerId = m01;
shapes = (
{
closed = 1;
nodes = (
(233,0,ls),
(245,0,o),
(251,3,o),
(251,10,cs),
(251,15,o),
(246,19,o),
(238,20,cs),
(209,22,ls),
(183,25,o),
(176,33,o),
(176,57,cs),
(176,400,ls),
(176,405,o),
(182,410,o),
(190,410,cs),
(371,410,ls),
(379,410,o),
(385,405,o),
(385,400,cs),
(385,57,ls),
(385,33,o),
(378,24,o),
(340,21,cs),
(317,20,ls),
(307,19,o),
(302,14,o),
(302,9,cs),
(302,3,o),
(308,0,o),
(320,0,cs),
(521,0,ls),
(532,0,o),
(538,3,o),
(538,10,cs),
(538,15,o),
(534,19,o),
(526,20,cs),
(497,22,ls),
(470,25,o),
(463,33,o),
(463,57,cs),
(463,400,ls),
(463,405,o),
(469,410,o),
(477,410,cs),
(576,410,ls),
(585,410,o),
(593,414,o),
(593,422,cs),
(593,429,o),
(585,434,o),
(576,434,cs),
(477,434,ls),
(469,434,o),
(463,438,o),
(463,444,cs),
(463,502,ls),
(463,588,o),
(515,615,o),
(573,615,cs),
(647,615,o),
(673,570,o),
(673,515,cs),
(673,57,ls),
(673,33,o),
(658,25,o),
(626,21,cs),
(610,20,ls),
(601,19,o),
(597,14,o),
(597,9,cs),
(597,4,o),
(603,0,o),
(611,0,cs),
(815,0,ls),
(823,0,o),
(829,3,o),
(829,9,cs),
(829,15,o),
(825,19,o),
(816,20,cs),
(790,22,ls),
(758,26,o),
(751,33,o),
(751,57,cs),
(751,615,ls),
(751,625,o),
(746,632,o),
(736,632,cs),
(722,632,o),
(718,626,o),
(708,605,cs),
(705,598,o),
(696,597,o),
(689,603,cs),
(661,624,o),
(626,636,o),
(582,636,cs),
(514,636,o),
(463,613,o),
(430,578,cs),
(424,572,o),
(417,572,o),
(412,578,cs),
(382,606,o),
(344,619,o),
(294,619,cs),
(169,619,o),
(98,539,o),
(98,468,cs),
(98,462,ls),
(98,443,o),
(79,430,o),
(44,428,cs),
(34,427,o),
(30,423,o),
(30,418,cs),
(30,413,o),
(36,410,o),
(44,410,cs),
(70,410,ls),
(87,410,o),
(98,402,o),
(98,389,cs),
(98,57,ls),
(98,33,o),
(91,24,o),
(53,21,cs),
(30,20,ls),
(20,19,o),
(15,14,o),
(15,9,cs),
(15,3,o),
(21,0,o),
(32,0,cs)
);
},
{
closed = 1;
nodes = (
(182,434,o),
(176,438,o),
(176,444,cs),
(176,502,ls),
(176,571,o),
(228,598,o),
(285,598,cs),
(360,598,o),
(385,553,o),
(385,498,cs),
(385,444,ls),
(385,438,o),
(379,434,o),
(371,434,cs),
(190,434,ls)
);
}
);
width = 841;
}
);
metricLeft = f;
metricRight = l;
},
{
glyphname = f_h;
kernLeft = f;
kernRight = n;
lastChange = "2023-02-22 10:41:05 +0000";
layers = (
{
anchors = (
{
name = bottom_1;
pos = (183,0);
},
{
name = bottom_2;
pos = (548,0);
},
{
name = caret_1;
pos = (365.5,0);
},
{
name = top_1;
pos = (183,740);
},
{
name = top_2;
pos = (548,740);
}
);
background = {
shapes = (
{
closed = 1;
nodes = (
(98,33,o),
(91,23,o),
(59,21,cs),
(30,20,ls),
(20,19,o),
(15,14,o),
(15,9,cs),
(15,3,o),
(21,0,o),
(32,0,cs),
(271,0,ls),
(283,0,o),
(289,3,o),
(289,10,cs),
(289,15,o),
(284,19,o),
(276,20,cs),
(215,24,ls),
(183,26,o),
(176,33,o),
(176,57,cs),
(176,400,ls),
(176,405,o),
(182,410,o),
(190,410,cs),
(289,410,ls),
(298,410,o),
(306,414,o),
(306,422,cs),
(306,429,o),
(298,434,o),
(289,434,cs),
(190,434,ls),
(182,434,o),
(176,438,o),
(176,444,cs),
(176,518,ls),
(176,588,o),
(194,609,o),
(225,609,cs),
(283,609,o),
(256,537,o),
(319,537,cs),
(343,537,o),
(359,548,o),
(359,570,cs),
(359,606,o),
(312,636,o),
(251,636,cs),
(152,636,o),
(98,556,o),
(98,468,cs),
(98,462,ls),
(98,443,o),
(79,430,o),
(44,428,cs),
(34,427,o),
(30,423,o),
(30,418,cs),
(30,413,o),
(36,410,o),
(44,410,cs),
(70,410,ls),
(87,410,o),
(98,402,o),
(98,389,cs),
(98,57,ls)
);
},
{
closed = 1;
nodes = (
(564,0,ls),
(572,0,o),
(577,3,o),
(577,9,cs),
(577,15,o),
(573,19,o),
(565,20,cs),
(534,22,ls),
(501,25,o),
(494,33,o),
(494,57,cs),
(494,285,ls),
(494,347,o),
(551,400,o),
(624,400,cs),
(675,400,o),
(704,379,o),
(704,324,cs),
(704,57,ls),
(704,33,o),
(697,25,o),
(665,21,cs),
(649,20,ls),
(641,19,o),
(636,14,o),
(636,9,cs),
(636,4,o),
(641,0,o),
(652,0,cs),
(845,0,ls),
(853,0,o),
(859,3,o),
(859,9,cs),
(859,15,o),
(854,19,o),
(846,20,cs),
(821,22,ls),
(789,26,o),
(782,33,o),
(782,57,cs),
(782,333,ls),
(782,402,o),
(737,439,o),
(666,439,cs),
(616,439,o),
(576,426,o),
(519,387,cs),
(505,377,o),
(494,380,o),
(494,390,cs),
(494,615,ls),
(494,625,o),
(490,629,o),
(482,629,cs),
(475,629,o),
(467,626,o),
(454,620,cs),
(435,611,o),
(406,602,o),
(363,595,cs),
(355,594,o),
(351,590,o),
(351,585,cs),
(351,580,o),
(355,575,o),
(363,575,cs),
(388,572,ls),
(409,570,o),
(416,564,o),
(416,544,cs),
(416,57,ls),
(416,33,o),
(409,25,o),
(377,21,cs),
(361,20,ls),
(353,19,o),
(348,14,o),
(348,9,cs),
(348,4,o),
(354,0,o),
(362,0,cs)
);
}
);
};
layerId = m01;
shapes = (
{
closed = 1;
nodes = (
(233,0,ls),
(245,0,o),
(251,3,o),
(251,10,cs),
(251,15,o),
(246,19,o),
(238,20,cs),
(209,22,ls),
(183,25,o),
(176,33,o),
(176,57,cs),
(176,400,ls),
(176,405,o),
(182,410,o),
(190,410,cs),
(289,410,ls),
(298,410,o),
(306,414,o),
(306,422,cs),
(306,429,o),
(298,434,o),
(289,434,cs),
(190,434,ls),
(182,434,o),
(176,438,o),
(176,444,cs),
(176,502,ls),
(176,588,o),
(228,615,o),
(285,615,cs),
(360,615,o),
(385,570,o),
(385,515,cs),
(385,57,ls),
(385,33,o),
(378,25,o),
(346,21,cs),
(330,20,ls),
(322,19,o),
(317,14,o),
(317,9,cs),
(317,4,o),
(323,0,o),
(331,0,cs),
(532,0,ls),
(540,0,o),
(546,3,o),
(546,9,cs),
(546,15,o),
(542,19,o),
(534,20,cs),
(503,22,ls),
(470,25,o),
(463,33,o),
(463,57,cs),
(463,285,ls),
(463,347,o),
(520,400,o),
(593,400,cs),
(644,400,o),
(673,379,o),
(673,324,cs),
(673,57,ls),
(673,33,o),
(666,25,o),
(634,21,cs),
(618,20,ls),
(610,19,o),
(605,14,o),
(605,9,cs),
(605,4,o),
(610,0,o),
(621,0,cs),
(814,0,ls),
(822,0,o),
(828,3,o),
(828,9,cs),
(828,15,o),
(823,19,o),
(815,20,cs),
(790,22,ls),
(758,26,o),
(751,33,o),
(751,57,cs),
(751,333,ls),
(751,402,o),
(706,439,o),
(635,439,cs),
(585,439,o),
(545,426,o),
(488,387,cs),
(474,377,o),
(463,380,o),
(463,390,cs),
(463,615,ls),
(463,625,o),
(459,632,o),
(448,632,cs),
(435,632,o),
(430,626,o),
(421,605,cs),
(417,598,o),
(408,597,o),
(401,603,cs),
(374,624,o),
(338,636,o),
(294,636,cs),
(169,636,o),
(98,556,o),
(98,468,cs),
(98,462,ls),
(98,443,o),
(79,430,o),
(44,428,cs),
(34,427,o),
(30,423,o),
(30,418,cs),
(30,413,o),
(36,410,o),
(44,410,cs),
(70,410,ls),
(87,410,o),
(98,402,o),
(98,389,cs),
(98,57,ls),
(98,33,o),
(91,24,o),
(53,21,cs),
(30,20,ls),
(20,19,o),
(15,14,o),
(15,9,cs),
(15,3,o),
(21,0,o),
(32,0,cs)
);
}
);
width = 841;
}
);
metricLeft = f;
metricRight = h;
},
{
glyphname = f_i;
kernLeft = f;
kernRight = i;
lastChange = "2023-02-22 10:41:05 +0000";
layers = (
{
anchors = (
{
name = bottom_1;
pos = (119,0);
},
{
name = bottom_2;
pos = (358,0);
},
{
name = caret_1;
pos = (238.5,0);
},
{
name = top_1;
pos = (119,740);
},
{
name = top_2;
pos = (358,740);
}
);
background = {
shapes = (
{
closed = 1;
nodes = (
(98,33,o),
(91,23,o),
(59,21,cs),
(30,20,ls),
(20,19,o),
(15,14,o),
(15,9,cs),
(15,3,o),
(21,0,o),
(32,0,cs),
(271,0,ls),
(283,0,o),
(289,3,o),
(289,10,cs),
(289,15,o),
(284,19,o),
(276,20,cs),
(215,24,ls),
(183,26,o),
(176,33,o),
(176,57,cs),
(176,400,ls),
(176,405,o),
(182,410,o),
(190,410,cs),
(289,410,ls),
(298,410,o),
(306,414,o),
(306,422,cs),
(306,429,o),
(298,434,o),
(289,434,cs),
(190,434,ls),
(182,434,o),
(176,438,o),
(176,444,cs),
(176,518,ls),
(176,588,o),
(194,609,o),
(225,609,cs),
(283,609,o),
(256,537,o),
(319,537,cs),
(343,537,o),
(359,548,o),
(359,570,cs),
(359,606,o),
(312,636,o),
(251,636,cs),
(152,636,o),
(98,556,o),
(98,468,cs),
(98,462,ls),
(98,443,o),
(79,430,o),
(44,428,cs),
(34,427,o),
(30,423,o),
(30,418,cs),
(30,413,o),
(36,410,o),
(44,410,cs),
(70,410,ls),
(87,410,o),
(98,402,o),
(98,389,cs),
(98,57,ls)
);
},
{
closed = 1;
nodes = (
(526,0,ls),
(537,0,o),
(543,3,o),
(543,10,cs),
(543,15,o),
(538,19,o),
(530,20,cs),
(501,22,ls),
(475,25,o),
(468,33,o),
(468,57,c),
(468,426,ls),
(468,433,o),
(465,436,o),
(458,436,cs),
(452,436,o),
(447,434,o),
(440,428,cs),
(413,410,o),
(388,397,o),
(340,392,cs),
(328,390,o),
(322,388,o),
(322,382,cs),
(322,377,o),
(325,374,o),
(337,373,cs),
(361,371,ls),
(383,368,o),
(390,363,o),
(390,343,cs),
(390,57,ls),
(390,33,o),
(383,26,o),
(345,21,cs),
(331,20,ls),
(321,18,o),
(316,14,o),
(316,9,cs),
(316,3,o),
(322,0,o),
(334,0,cs)
);
},
{
closed = 1;
nodes = (
(462,514,o),
(486,533,o),
(486,559,cs),
(486,586,o),
(462,604,o),
(430,604,cs),
(398,604,o),
(373,586,o),
(373,559,cs),
(373,533,o),
(398,514,o),
(430,514,cs)
);
}
);
};
layerId = m01;
shapes = (
{
closed = 1;
nodes = (
(233,0,ls),
(245,0,o),
(251,3,o),
(251,10,cs),
(251,15,o),
(246,19,o),
(238,20,cs),
(209,22,ls),
(183,25,o),
(176,33,o),
(176,57,cs),
(176,400,ls),
(176,405,o),
(182,410,o),
(190,410,cs),
(367,410,ls),
(377,410,o),
(383,405,o),
(383,398,cs),
(383,57,ls),
(383,33,o),
(376,26,o),
(338,21,cs),
(324,20,ls),
(314,18,o),
(309,14,o),
(309,9,cs),
(309,3,o),
(315,0,o),
(327,0,cs),
(519,0,ls),
(530,0,o),
(536,3,o),
(536,10,cs),
(536,15,o),
(531,19,o),
(523,20,cs),
(494,22,ls),
(468,25,o),
(461,33,o),
(461,57,cs),
(461,413,ls),
(461,426,o),
(451,434,o),
(434,434,cs),
(190,434,ls),
(182,434,o),
(176,438,o),
(176,444,cs),
(176,502,ls),
(176,588,o),
(228,611,o),
(285,611,cs),
(374,611,o),
(353,532,o),
(417,532,cs),
(450,532,o),
(463,547,o),
(463,568,cs),
(463,604,o),
(401,636,o),
(308,636,cs),
(169,636,o),
(98,556,o),
(98,468,cs),
(98,462,ls),
(98,443,o),
(79,430,o),
(44,428,cs),
(34,427,o),
(30,423,o),
(30,418,cs),
(30,413,o),
(36,410,o),
(44,410,cs),
(70,410,ls),
(87,410,o),
(98,402,o),
(98,389,cs),
(98,57,ls),
(98,33,o),
(91,24,o),
(53,21,cs),
(30,20,ls),
(20,19,o),
(15,14,o),
(15,9,cs),
(15,3,o),
(21,0,o),
(32,0,cs)
);
}
);
width = 549;
}
);
metricLeft = f;
metricRight = i;
},
{
glyphname = f_l;
kernLeft = f;
kernRight = l;
lastChange = "2023-02-22 10:41:05 +0000";
layers = (
{
anchors = (
{
name = bottom_1;
pos = (120,0);
},
{
name = bottom_2;
pos = (361,0);
},
{
name = caret_1;
pos = (240.5,0);
},
{
name = top_1;
pos = (120,740);
},
{
name = top_2;
pos = (361,740);
}
);
layerId = m01;
shapes = (
{
closed = 1;
nodes = (
(233,0,ls),
(245,0,o),
(251,3,o),
(251,10,cs),
(251,15,o),
(246,19,o),
(238,20,cs),
(209,22,ls),
(183,25,o),
(176,33,o),
(176,57,cs),
(176,400,ls),
(176,405,o),
(182,410,o),
(190,410,cs),
(289,410,ls),
(298,410,o),
(306,414,o),
(306,422,cs),
(306,429,o),
(298,434,o),
(289,434,cs),
(190,434,ls),
(182,434,o),
(176,438,o),
(176,444,cs),
(176,502,ls),
(176,588,o),
(228,615,o),
(285,615,cs),
(360,615,o),
(385,570,o),
(385,515,cs),
(385,57,ls),
(385,33,o),
(370,25,o),
(338,21,cs),
(322,20,ls),
(314,19,o),
(309,14,o),
(309,9,cs),
(309,4,o),
(315,0,o),
(323,0,cs),
(528,0,ls),
(536,0,o),
(542,3,o),
(542,9,cs),
(542,15,o),
(537,19,o),
(529,20,cs),
(503,22,ls),
(470,26,o),
(463,33,o),
(463,57,cs),
(463,615,ls),
(463,625,o),
(459,632,o),
(448,632,cs),
(435,632,o),
(430,626,o),
(421,605,cs),
(417,598,o),
(408,597,o),
(401,603,cs),
(374,624,o),
(338,636,o),
(294,636,cs),
(169,636,o),
(98,556,o),
(98,468,cs),
(98,462,ls),
(98,443,o),
(79,430,o),
(44,428,cs),
(34,427,o),
(30,423,o),
(30,418,cs),
(30,413,o),
(36,410,o),
(44,410,cs),
(70,410,ls),
(87,410,o),
(98,402,o),
(98,389,cs),
(98,57,ls),
(98,33,o),
(91,24,o),
(53,21,cs),
(30,20,ls),
(20,19,o),
(15,14,o),
(15,9,cs),
(15,3,o),
(21,0,o),
(32,0,cs)
);
}
);
width = 553;
}
);
metricLeft = f;
metricRight = l;
},
{
glyphname = q_j;
lastChange = "2023-02-22 10:41:05 +0000";
layers = (
{
anchors = (
{
name = bottom_1;
pos = (164,0);
},
{
name = bottom_2;
pos = (493,0);
},
{
name = caret_1;
pos = (328.5,0);
},
{
name = top_1;
pos = (164,510);
},
{
name = top_2;
pos = (493,510);
}
);
layerId = m01;
shapes = (
{
closed = 1;
nodes = (
(399,-174,ls),
(416,-174,o),
(427,-167,o),
(427,-154,cs),
(427,295,ls),
(427,363,o),
(430,401,o),
(436,427,cs),
(438,434,o),
(435,439,o),
(427,439,cs),
(420,439,o),
(413,436,o),
(398,423,cs),
(384,410,o),
(370,407,o),
(352,416,cs),
(322,432,o),
(298,439,o),
(267,439,cs),
(132,439,o),
(34,340,o),
(34,198,cs),
(34,75,o),
(106,-8,o),
(208,-8,cs),
(256,-8,o),
(286,5,o),
(324,42,cs),
(335,52,o),
(348,48,o),
(348,38,cs),
(348,-117,ls),
(348,-141,o),
(342,-147,o),
(309,-150,cs),
(267,-155,ls),
(259,-156,o),
(254,-159,o),
(254,-164,cs),
(254,-171,o),
(260,-174,o),
(271,-174,cs)
);
},
{
closed = 1;
nodes = (
(162,31,o),
(120,94,o),
(120,210,cs),
(120,337,o),
(177,417,o),
(263,417,cs),
(314,417,o),
(348,386,o),
(348,335,cs),
(348,144,ls),
(348,81,o),
(292,31,o),
(233,31,cs)
);
},
{
closed = 1;
nodes = (
(613,-183,o),
(677,-99,o),
(677,37,cs),
(677,426,ls),
(677,433,o),
(674,436,o),
(667,436,cs),
(661,436,o),
(657,434,o),
(650,428,cs),
(622,410,o),
(597,397,o),
(550,392,cs),
(537,390,o),
(531,388,o),
(531,382,cs),
(531,377,o),
(535,374,o),
(546,373,cs),
(570,371,ls),
(592,368,o),
(599,363,o),
(599,343,cs),
(599,-77,ls),
(599,-122,o),
(583,-149,o),
(554,-149,cs),
(513,-149,o),
(529,-101,o),
(481,-101,cs),
(453,-101,o),
(436,-117,o),
(436,-137,cs),
(436,-164,o),
(468,-183,o),
(513,-183,cs)
);
},
{
closed = 1;
nodes = (
(672,514,o),
(696,533,o),
(696,559,cs),
(696,585,o),
(673,604,o),
(639,604,cs),
(606,604,o),
(582,585,o),
(582,559,cs),
(582,534,o),
(606,514,o),
(639,514,cs)
);
}
);
width = 756;
}
);
metricLeft = q;
metricRight = j;
},
{
glyphname = ordfeminine;
lastChange = "2022-08-18 20:35:28 +0000";
layers = (
{
layerId = m01;
shapes = (
{
closed = 1;
nodes = (
(172,309,o),
(200,322,o),
(230,348,cs),
(238,356,o),
(250,355,o),
(251,348,cs),
(256,326,o),
(274,309,o),
(304,309,cs),
(343,309,o),
(379,332,o),
(379,390,cs),
(379,398,o),
(375,404,o),
(366,404,cs),
(356,404,o),
(352,398,o),
(352,391,cs),
(352,358,o),
(340,345,o),
(324,345,cs),
(313,345,o),
(305,353,o),
(305,371,cs),
(305,552,ls),
(305,598,o),
(273,620,o),
(214,620,cs),
(136,620,o),
(46,571,o),
(46,525,cs),
(46,514,o),
(59,507,o),
(74,507,cs),
(100,507,o),
(114,519,o),
(122,545,cs),
(133,582,o),
(160,598,o),
(191,598,cs),
(222,598,o),
(243,584,o),
(243,546,cs),
(243,500,ls),
(243,496,o),
(239,491,o),
(231,490,cs),
(120,467,o),
(39,421,o),
(39,366,cs),
(39,331,o),
(76,309,o),
(128,309,cs)
);
},
{
closed = 1;
nodes = (
(122,341,o),
(106,355,o),
(106,379,cs),
(106,420,o),
(148,450,o),
(223,468,cs),
(236,471,o),
(243,468,o),
(243,462,cs),
(243,423,ls),
(243,377,o),
(199,341,o),
(153,341,cs)
);
}
);
width = 419;
}
);
unicode = 170;
},
{
glyphname = ordmasculine;
lastChange = "2022-08-18 20:36:01 +0000";
layers = (
{
layerId = m01;
shapes = (
{
closed = 1;
nodes = (
(306,309,o),
(377,377,o),
(377,465,cs),
(377,552,o),
(305,620,o),
(212,620,cs),
(120,620,o),
(46,552,o),
(46,465,cs),
(46,377,o),
(118,309,o),
(212,309,cs)
);
},
{
closed = 1;
nodes = (
(147,329,o),
(116,375,o),
(116,465,cs),
(116,554,o),
(147,600,o),
(212,600,cs),
(276,600,o),
(308,554,o),
(308,465,cs),
(308,375,o),
(277,329,o),
(212,329,cs)
);
}
);
width = 423;
}
);
metricLeft = O;
metricRight = O;
unicode = 186;
},
{
glyphname = zero;
lastChange = "2022-08-31 19:16:14 +0000";
layers = (
{
background = {
shapes = (
{
closed = 1;
nodes = (
(41,306,ls),
(41,83,o),
(167,-8,o),
(263,-8,cs),
(360,-8,o),
(485,83,o),
(485,306,cs),
(485,529,o),
(360,620,o),
(263,620,cs),
(167,620,o),
(41,529,o),
(41,307,cs)
);
},
{
closed = 1;
nodes = (
(135,306,ls),
(135,515,o),
(172,598,o),
(263,598,cs),
(354,598,o),
(392,515,o),
(392,306,cs),
(392,97,o),
(354,14,o),
(263,14,cs),
(172,14,o),
(135,97,o),
(135,305,cs)
);
}
);
};
layerId = m01;
shapes = (
{
closed = 1;
nodes = (
(398,-8,o),
(488,130,o),
(488,307,cs),
(488,483,o),
(398,620,o),
(264,620,cs),
(130,620,o),
(41,483,o),
(41,307,cs),
(41,130,o),
(130,-8,o),
(264,-8,cs)
);
},
{
closed = 1;
nodes = (
(168,15,o),
(124,110,o),
(124,307,cs),
(124,502,o),
(168,598,o),
(264,598,cs),
(361,598,o),
(405,502,o),
(405,307,cs),
(405,110,o),
(361,15,o),
(264,15,cs)
);
}
);
width = 529;
}
);
unicode = 48;
},
{
glyphname = one;
lastChange = "2022-08-31 19:17:48 +0000";
layers = (
{
layerId = m01;
shapes = (
{
closed = 1;
nodes = (
(258,0,ls),
(269,0,o),
(275,3,o),
(275,9,cs),
(275,14,o),
(270,19,o),
(260,20,cs),
(222,23,ls),
(190,26,o),
(181,32,o),
(181,56,cs),
(181,606,ls),
(181,619,o),
(172,625,o),
(156,625,cs),
(138,625,o),
(105,613,o),
(24,603,cs),
(10,601,o),
(6,596,o),
(6,591,cs),
(6,584,o),
(13,579,o),
(26,580,cs),
(68,583,ls),
(91,585,o),
(107,581,o),
(107,561,cs),
(107,56,ls),
(107,32,o),
(98,26,o),
(66,23,cs),
(21,20,ls),
(10,19,o),
(6,14,o),
(6,9,cs),
(6,3,o),
(12,0,o),
(23,0,cs)
);
}
);
width = 529;
}
);
unicode = 49;
},
{
glyphname = two;
lastChange = "2022-08-31 19:14:36 +0000";
layers = (
{
background = {
shapes = (
{
closed = 1;
nodes = (
(415,470,ls),
(415,565,o),
(346,620,o),
(225,620,cs),
(93,620,o),
(28,537,o),
(28,460,cs),
(28,445,o),
(34,444,o),
(41,444,cs),
(52,444,o),
(60,448,o),
(60,462,cs),
(60,508,o),
(101,587,o),
(198,587,cs),
(276,587,o),
(321,547,o),
(321,468,cs),
(321,394,o),
(292,323,o),
(171,187,cs),
(133,144,o),
(95,101,o),
(59,59,cs),
(51,48,o),
(24,22,o),
(24,12,cs),
(24,4,o),
(31,1,o),
(37,1,cs),
(305,1,ls),
(323,1,o),
(340,-1,o),
(359,-2,cs),
(381,-3,o),
(401,-3,o),
(404,-3,cs),
(419,-3,o),
(424,1,o),
(424,19,cs),
(424,150,ls),
(424,175,o),
(419,180,o),
(411,180,cs),
(397,180,o),
(397,169,o),
(389,139,cs),
(376,88,o),
(343,71,o),
(276,63,cs),
(243,60,o),
(198,59,o),
(140,59,cs),
(112,59,o),
(102,60,o),
(102,66,cs),
(102,73,o),
(122,95,o),
(133,109,cs),
(171,152,o),
(216,192,o),
(255,233,cs),
(320,301,o),
(415,382,o),
(415,469,cs)
);
}
);
};
guides = (
{
pos = (82,730);
}
);
layerId = m01;
shapes = (
{
closed = 1;
nodes = (
(392,0,ls),
(409,0,o),
(420,7,o),
(421,20,cs),
(435,179,ls),
(436,189,o),
(429,194,o),
(421,194,cs),
(412,194,o),
(406,190,o),
(404,183,cs),
(393,143,ls),
(374,68,o),
(336,51,o),
(248,51,cs),
(125,51,ls),
(109,51,o),
(99,60,o),
(108,70,cs),
(198,170,ls),
(323,310,o),
(415,398,o),
(415,487,cs),
(415,570,o),
(342,620,o),
(236,620,cs),
(143,620,o),
(45,582,o),
(29,471,cs),
(28,461,o),
(33,454,o),
(44,454,cs),
(53,454,o),
(59,457,o),
(61,468,cs),
(77,550,o),
(145,586,o),
(218,586,cs),
(292,586,o),
(332,547,o),
(332,478,cs),
(332,400,o),
(284,311,o),
(169,182,cs),
(31,26,ls),
(25,20,o),
(23,16,o),
(23,11,cs),
(23,3,o),
(30,0,o),
(44,0,cs)
);
}
);
width = 529;
}
);
unicode = 50;
},
{
glyphname = three;
lastChange = "2022-08-31 19:18:42 +0000";
layers = (
{
background = {
shapes = (
{
closed = 1;
nodes = (
(393,212,ls),
(393,315,o),
(307,375,o),
(214,375,cs),
(192,375,o),
(177,371,o),
(169,371,cs),
(166,371,o),
(164,371,o),
(164,374,cs),
(164,377,o),
(172,381,o),
(185,388,cs),
(202,398,o),
(232,414,o),
(270,439,cs),
(321,471,o),
(346,502,o),
(346,539,cs),
(346,594,o),
(288,620,o),
(215,620,cs),
(87,620,o),
(53,526,o),
(53,506,cs),
(53,499,o),
(56,494,o),
(64,494,cs),
(76,494,o),
(77,514,o),
(92,538,cs),
(112,570,o),
(147,592,o),
(189,592,cs),
(240,592,o),
(263,570,o),
(263,530,cs),
(263,461,o),
(198,423,o),
(131,378,cs),
(107,362,o),
(84,344,o),
(61,327,cs),
(55,323,o),
(49,317,o),
(49,310,cs),
(49,305,o),
(52,303,o),
(59,303,cs),
(64,303,o),
(70,306,o),
(77,309,cs),
(95,320,o),
(123,339,o),
(167,339,cs),
(250,339,o),
(317,284,o),
(317,181,cs),
(317,87,o),
(250,13,o),
(162,13,cs),
(129,13,o),
(114,16,o),
(106,40,cs),
(99,60,o),
(94,82,o),
(60,82,cs),
(41,82,o),
(24,71,o),
(24,49,cs),
(24,20,o),
(64,-8,o),
(140,-8,cs),
(298,-8,o),
(393,112,o),
(393,212,cs)
);
}
);
};
layerId = m01;
shapes = (
{
closed = 1;
nodes = (
(278,-8,o),
(392,92,o),
(392,201,cs),
(392,303,o),
(317,375,o),
(213,375,cs),
(200,375,o),
(185,373,o),
(174,371,cs),
(166,369,o),
(163,375,o),
(169,378,cs),
(195,392,ls),
(297,444,o),
(344,489,o),
(344,535,cs),
(344,586,o),
(293,620,o),
(216,620,cs),
(126,620,o),
(61,575,o),
(51,505,cs),
(49,496,o),
(55,490,o),
(64,490,cs),
(74,490,o),
(80,495,o),
(82,502,cs),
(93,558,o),
(136,592,o),
(194,592,cs),
(239,592,o),
(266,567,o),
(266,525,cs),
(266,487,o),
(236,450,o),
(169,404,cs),
(86,346,ls),
(76,338,o),
(72,331,o),
(77,326,cs),
(83,320,o),
(92,321,o),
(105,328,cs),
(126,339,o),
(152,344,o),
(183,344,cs),
(267,344,o),
(309,289,o),
(309,180,cs),
(309,82,o),
(250,15,o),
(162,15,cs),
(78,15,o),
(122,82,o),
(64,82,cs),
(40,82,o),
(23,70,o),
(23,51,cs),
(23,15,o),
(75,-8,o),
(155,-8,cs)
);
}
);
width = 529;
}
);
unicode = 51;
},
{
glyphname = four;
lastChange = "2022-08-31 19:18:03 +0000";
layers = (
{
background = {
shapes = (
{
closed = 1;
nodes = (
(419,0,ls),
(430,0,o),
(436,3,o),
(436,9,cs),
(436,14,o),
(431,18,o),
(421,20,cs),
(394,23,ls),
(362,27,o),
(355,32,o),
(355,56,cs),
(355,428,ls),
(355,438,o),
(346,440,o),
(336,436,cs),
(293,418,ls),
(286,415,o),
(282,411,o),
(282,405,cs),
(282,56,ls),
(282,34,o),
(275,28,o),
(243,25,cs),
(193,20,ls),
(183,19,o),
(178,14,o),
(178,9,cs),
(178,3,o),
(184,0,o),
(195,0,cs)
);
},
{
closed = 1;
nodes = (
(12,201,l),
(12,178,l),
(436,178,l),
(436,226,l),
(34,226,l)
);
},
{
closed = 1;
nodes = (
(12,201,l),
(46,201,l),
(350,612,l),
(315,612,l)
);
}
);
};
layerId = m01;
shapes = (
{
closed = 1;
nodes = (
(419,0,ls),
(430,0,o),
(436,3,o),
(436,9,cs),
(436,14,o),
(431,18,o),
(421,20,cs),
(394,23,ls),
(362,27,o),
(355,32,o),
(355,56,cs),
(355,167,ls),
(355,174,o),
(361,178,o),
(371,178,cs),
(422,178,ls),
(430,178,o),
(436,183,o),
(436,189,cs),
(436,216,ls),
(436,222,o),
(430,226,o),
(422,226,cs),
(371,226,ls),
(361,226,o),
(355,230,o),
(355,238,cs),
(355,428,ls),
(355,438,o),
(346,440,o),
(336,436,cs),
(293,418,ls),
(286,415,o),
(282,411,o),
(282,405,cs),
(282,238,ls),
(282,230,o),
(276,226,o),
(266,226,cs),
(83,226,ls),
(72,226,o),
(69,231,o),
(74,238,cs),
(350,598,ls),
(355,606,o),
(352,612,o),
(339,612,cs),
(316,612,ls),
(308,612,o),
(301,609,o),
(298,604,cs),
(22,214,ls),
(15,204,o),
(12,199,o),
(12,193,cs),
(12,184,o),
(20,178,o),
(33,178,cs),
(266,178,ls),
(276,178,o),
(282,174,o),
(282,167,cs),
(282,56,ls),
(282,34,o),
(275,28,o),
(243,25,cs),
(193,20,ls),
(183,19,o),
(178,14,o),
(178,9,cs),
(178,3,o),
(184,0,o),
(195,0,cs)
);
}
);
width = 529;
}
);
unicode = 52;
},
{
glyphname = five;
lastChange = "2022-08-31 19:18:50 +0000";
layers = (
{
background = {
shapes = (
{
closed = 1;
nodes = (
(273,-8,o),
(401,66,o),
(401,203,cs),
(401,315,o),
(314,400,o),
(123,409,c),
(128,383,l),
(176,572,l),
(150,612,l),
(83,354,l),
(252,346,o),
(319,298,o),
(319,185,cs),
(319,59,o),
(237,15,o),
(164,15,cs),
(75,15,o),
(102,82,o),
(49,82,cs),
(26,82,o),
(12,70,o),
(12,53,cs),
(12,13,o),
(89,-8,o),
(152,-8,cs)
);
},
{
closed = 1;
nodes = (
(392,561,l),
(409,605,ls),
(414,616,o),
(412,625,o),
(398,625,cs),
(382,625,o),
(370,612,o),
(297,612,cs),
(150,612,l),
(158,561,l)
);
}
);
};
layerId = m01;
shapes = (
{
closed = 1;
nodes = (
(273,-8,o),
(401,66,o),
(401,195,cs),
(401,301,o),
(323,392,o),
(143,407,cs),
(131,408,o),
(126,411,o),
(129,420,cs),
(162,550,ls),
(164,558,o),
(170,561,o),
(179,561,cs),
(369,561,ls),
(378,561,o),
(384,564,o),
(386,571,cs),
(404,615,ls),
(407,625,o),
(406,633,o),
(393,633,cs),
(375,633,o),
(374,612,o),
(336,612,cs),
(155,612,ls),
(146,612,o),
(140,609,o),
(138,601,cs),
(77,366,ls),
(75,358,o),
(80,354,o),
(91,353,cs),
(256,343,o),
(319,285,o),
(319,177,cs),
(319,59,o),
(237,15,o),
(164,15,cs),
(75,15,o),
(102,82,o),
(49,82,cs),
(26,82,o),
(12,70,o),
(12,53,cs),
(12,13,o),
(89,-8,o),
(152,-8,cs)
);
}
);
width = 529;
}
);
unicode = 53;
},
{
glyphname = six;
lastChange = "2022-08-31 19:18:12 +0000";
layers = (
{
background = {
shapes = (
{
closed = 1;
nodes = (
(345,-8,o),
(432,83,o),
(432,195,cs),
(432,306,o),
(352,388,o),
(244,388,cs),
(182,388,o),
(132,363,o),
(106,320,c),
(135,331,l),
(167,475,o),
(252,561,o),
(402,598,cs),
(411,600,o),
(415,604,o),
(415,609,cs),
(415,616,o),
(408,622,o),
(393,620,cs),
(197,585,o),
(41,408,o),
(41,222,cs),
(41,85,o),
(121,-8,o),
(237,-8,cs)
);
},
{
closed = 1;
nodes = (
(162,15,o),
(124,71,o),
(124,185,cs),
(124,304,o),
(164,366,o),
(243,366,cs),
(316,366,o),
(350,311,o),
(350,190,cs),
(350,71,o),
(314,15,o),
(238,15,cs)
);
}
);
};
layerId = m01;
shapes = (
{
closed = 1;
nodes = (
(345,-8,o),
(432,83,o),
(432,195,cs),
(432,306,o),
(352,388,o),
(244,388,cs),
(213,388,o),
(184,382,o),
(160,369,cs),
(151,365,o),
(144,367,o),
(147,376,cs),
(186,493,o),
(268,565,o),
(402,598,cs),
(411,600,o),
(415,604,o),
(415,609,cs),
(415,616,o),
(408,622,o),
(393,620,cs),
(197,585,o),
(41,408,o),
(41,222,cs),
(41,85,o),
(121,-8,o),
(237,-8,cs)
);
},
{
closed = 1;
nodes = (
(156,15,o),
(117,71,o),
(117,185,cs),
(117,304,o),
(159,366,o),
(239,366,cs),
(315,366,o),
(350,311,o),
(350,190,cs),
(350,71,o),
(313,15,o),
(235,15,cs)
);
}
);
width = 529;
}
);
unicode = 54;
},
{
glyphname = seven;
lastChange = "2022-08-31 19:19:00 +0000";
layers = (
{
background = {
shapes = (
{
closed = 1;
nodes = (
(155,0,l),
(414,595,l),
(381,595,l),
(95,0,l)
);
},
{
closed = 1;
nodes = (
(51,540,o),
(52,561,o),
(90,561,cs),
(377,561,l),
(414,595,l),
(414,612,l),
(56,612,ls),
(47,612,o),
(41,609,o),
(39,602,cs),
(22,558,ls),
(18,548,o),
(20,540,o),
(32,540,cs)
);
}
);
};
layerId = m01;
shapes = (
{
closed = 1;
nodes = (
(143,0,ls),
(151,0,o),
(156,3,o),
(159,9,cs),
(405,574,ls),
(412,590,o),
(414,596,o),
(414,602,cs),
(414,608,o),
(409,612,o),
(398,612,cs),
(56,612,ls),
(47,612,o),
(41,609,o),
(39,602,cs),
(22,558,ls),
(18,548,o),
(20,540,o),
(32,540,cs),
(51,540,o),
(52,561,o),
(90,561,cs),
(345,561,ls),
(356,561,o),
(361,556,o),
(358,547,cs),
(101,13,ls),
(98,5,o),
(103,0,o),
(114,0,cs)
);
}
);
width = 529;
}
);
unicode = 55;
},
{
glyphname = eight;
lastChange = "2022-08-31 19:16:02 +0000";
layers = (
{
background = {
shapes = (
{
closed = 1;
nodes = (
(133,15,o),
(95,78,o),
(95,144,cs),
(95,218,o),
(139,274,o),
(229,309,c),
(216,321,l),
(94,284,o),
(22,224,o),
(22,146,cs),
(22,70,o),
(106,-8,o),
(247,-8,cs),
(376,-8,o),
(476,63,o),
(476,158,cs),
(476,230,o),
(422,286,o),
(281,344,cs),
(150,398,o),
(123,446,o),
(123,502,cs),
(123,559,o),
(178,598,o),
(261,598,cs),
(344,598,o),
(384,555,o),
(384,490,cs),
(384,427,o),
(345,373,o),
(271,344,c),
(284,332,l),
(385,364,o),
(455,420,o),
(455,487,cs),
(455,564,o),
(371,620,o),
(264,620,cs),
(151,620,o),
(52,564,o),
(52,479,cs),
(52,416,o),
(110,348,o),
(230,303,cs),
(361,254,o),
(405,195,o),
(405,128,cs),
(405,60,o),
(346,15,o),
(250,15,cs)
);
}
);
};
layerId = m01;
shapes = (
{
closed = 1;
nodes = (
(370,-8,o),
(466,63,o),
(466,158,cs),
(466,224,o),
(423,276,o),
(312,329,cs),
(302,333,o),
(302,339,o),
(312,343,cs),
(393,376,o),
(446,428,o),
(446,487,cs),
(446,564,o),
(366,620,o),
(263,620,cs),
(155,620,o),
(61,564,o),
(61,479,cs),
(61,425,o),
(101,367,o),
(187,324,cs),
(195,320,o),
(195,314,o),
(186,310,cs),
(89,272,o),
(32,217,o),
(32,146,cs),
(32,70,o),
(113,-8,o),
(247,-8,cs)
);
},
{
closed = 1;
nodes = (
(139,15,o),
(102,78,o),
(102,144,cs),
(102,212,o),
(138,264,o),
(208,300,cs),
(218,305,o),
(228,305,o),
(238,300,cs),
(329,261,o),
(398,214,o),
(398,128,cs),
(398,60,o),
(342,15,o),
(250,15,cs)
);
},
{
closed = 1;
nodes = (
(151,403,o),
(129,450,o),
(129,502,cs),
(129,559,o),
(182,598,o),
(261,598,cs),
(339,598,o),
(378,555,o),
(378,490,cs),
(378,434,o),
(347,384,o),
(290,354,cs),
(279,348,o),
(270,348,o),
(260,353,cs)
);
}
);
width = 529;
}
);
unicode = 56;
},
{
glyphname = nine;
lastChange = "2022-08-31 19:19:08 +0000";
layers = (
{
background = {
shapes = (
{
closed = 1;
nodes = (
(277,28,o),
(421,179,o),
(421,391,cs),
(421,528,o),
(342,620,o),
(225,620,cs),
(117,620,o),
(30,530,o),
(30,427,cs),
(30,324,o),
(110,242,o),
(218,242,cs),
(281,242,o),
(330,267,o),
(356,310,c),
(328,299,l),
(305,139,o),
(223,51,o),
(94,15,cs),
(86,13,o),
(82,9,o),
(82,3,cs),
(82,-3,o),
(89,-9,o),
(103,-7,cs)
);
},
{
closed = 1;
nodes = (
(146,264,o),
(113,319,o),
(113,431,cs),
(113,541,o),
(148,598,o),
(224,598,cs),
(300,598,o),
(338,541,o),
(338,436,cs),
(338,326,o),
(298,264,o),
(220,264,cs)
);
}
);
};
layerId = m01;
shapes = (
{
closed = 1;
nodes = (
(277,28,o),
(421,179,o),
(421,391,cs),
(421,528,o),
(342,620,o),
(225,620,cs),
(117,620,o),
(30,530,o),
(30,427,cs),
(30,324,o),
(110,242,o),
(218,242,cs),
(252,242,o),
(282,249,o),
(306,263,cs),
(315,268,o),
(322,265,o),
(320,257,cs),
(290,123,o),
(212,48,o),
(94,15,cs),
(86,13,o),
(82,9,o),
(82,3,cs),
(82,-3,o),
(89,-9,o),
(103,-7,cs)
);
},
{
closed = 1;
nodes = (
(113,541,o),
(148,598,o),
(224,598,cs),
(300,598,o),
(338,541,o),
(338,436,cs),
(338,326,o),
(298,264,o),
(220,264,cs),
(146,264,o),
(113,319,o),
(113,431,cs)
);
}
);
width = 529;
}
);
unicode = 57;
},
{
glyphname = .notdef;
lastChange = "2023-03-17 07:45:31 +0000";
layers = (
{
layerId = m01;
shapes = (
{
closed = 1;
nodes = (
(557,-110,ls),
(562,-110,o),
(566,-108,o),
(566,-104,cs),
(566,665,ls),
(566,669,o),
(562,672,o),
(557,672,cs),
(136,672,ls),
(130,672,o),
(126,669,o),
(126,665,cs),
(126,-104,ls),
(126,-108,o),
(130,-110,o),
(136,-110,cs)
);
},
{
closed = 1;
nodes = (
(163,644,l),
(529,644,l),
(529,-83,l),
(163,-83,l)
);
}
);
width = 692;
}
);
},
{
glyphname = period;
kernLeft = period;
kernRight = period;
lastChange = "2022-08-31 20:12:01 +0000";
layers = (
{
layerId = m01;
shapes = (
{
closed = 1;
nodes = (
(154,-8,o),
(183,10,o),
(183,37,cs),
(183,63,o),
(154,82,o),
(123,82,cs),
(89,82,o),
(62,63,o),
(62,37,cs),
(62,10,o),
(89,-8,o),
(123,-8,cs)
);
}
);
width = 245;
}
);
unicode = 46;
},
{
glyphname = comma;
kernLeft = period;
kernRight = period;
lastChange = "2022-08-31 20:13:38 +0000";
layers = (
{
layerId = m01;
shapes = (
{
closed = 1;
nodes = (
(145,-95,o),
(187,-36,o),
(187,25,cs),
(187,60,o),
(163,82,o),
(125,82,cs),
(93,82,o),
(70,65,o),
(70,42,cs),
(70,2,o),
(130,6,o),
(130,-30,cs),
(130,-60,o),
(114,-87,o),
(69,-120,cs),
(60,-127,o),
(60,-133,o),
(66,-136,cs),
(71,-139,o),
(79,-139,o),
(87,-133,cs)
);
}
);
width = 250;
}
);
unicode = 44;
},
{
glyphname = exclam;
lastChange = "2022-09-01 19:18:34 +0000";
layers = (
{
background = {
shapes = (
{
closed = 1;
nodes = (
(139,152,ls),
(150,152,o),
(152,162,o),
(154,198,cs),
(155,219,o),
(158,252,o),
(161,297,cs),
(179,506,o),
(184,549,o),
(184,570,cs),
(184,618,o),
(177,638,o),
(139,638,cs),
(101,638,o),
(94,618,o),
(94,570,cs),
(94,549,o),
(99,506,o),
(117,297,cs),
(122,246,o),
(123,212,o),
(125,190,cs),
(126,161,o),
(129,152,o),
(138,152,cs)
);
},
{
closed = 1;
nodes = (
(139,-10,ls),
(168,-10,o),
(184,14,o),
(184,37,cs),
(184,60,o),
(168,83,o),
(139,83,cs),
(110,83,o),
(94,60,o),
(94,37,cs),
(94,14,o),
(110,-10,o),
(138,-10,cs)
);
}
);
};
guides = (
{
angle = 90;
pos = (64,192);
},
{
angle = 90;
pos = (169,192);
}
);
layerId = m01;
shapes = (
{
closed = 1;
nodes = (
(144,152,o),
(148,157,o),
(148,166,cs),
(151,314,o),
(187,543,o),
(187,590,cs),
(187,618,o),
(168,638,o),
(135,638,cs),
(101,638,o),
(82,618,o),
(82,590,cs),
(82,543,o),
(118,314,o),
(121,166,cs),
(121,157,o),
(126,152,o),
(135,152,cs)
);
},
{
pos = (10,0);
ref = period;
}
);
width = 273;
}
);
unicode = 33;
},
{
glyphname = exclamdown;
lastChange = "2022-09-01 19:15:39 +0000";
layers = (
{
layerId = m01;
shapes = (
{
closed = 1;
nodes = (
(172,-183,o),
(192,-163,o),
(192,-135,cs),
(192,-88,o),
(155,120,o),
(153,269,cs),
(153,277,o),
(148,282,o),
(139,282,cs),
(131,282,o),
(125,277,o),
(125,269,cs),
(123,120,o),
(86,-88,o),
(86,-135,cs),
(86,-163,o),
(106,-183,o),
(139,-183,cs)
);
},
{
pos = (14,511);
ref = period;
scale = (1,-1);
}
);
width = 273;
}
);
metricLeft = "=|exclam";
metricRight = "=|exclam";
unicode = 161;
},
{
glyphname = question;
lastChange = "2022-09-01 19:14:29 +0000";
layers = (
{
background = {
shapes = (
{
closed = 1;
nodes = (
(36,574,ls),
(36,512,o),
(40,502,o),
(61,502,cs),
(77,502,o),
(85,528,o),
(95,556,cs),
(107,582,o),
(122,610,o),
(152,610,cs),
(189,610,o),
(223,569,o),
(223,506,cs),
(223,449,o),
(176,394,o),
(100,325,cs),
(85,310,o),
(80,307,o),
(80,263,cs),
(80,213,o),
(82,184,o),
(85,167,cs),
(89,149,o),
(93,144,o),
(101,144,cs),
(113,144,o),
(115,147,o),
(115,208,cs),
(115,227,o),
(116,228,o),
(133,249,cs),
(160,281,o),
(186,306,o),
(208,329,cs),
(247,370,o),
(274,406,o),
(274,473,cs),
(274,574,o),
(200,638,o),
(120,638,cs),
(60,638,o),
(41,630,o),
(37,600,cs),
(36,592,o),
(36,584,o),
(36,575,cs)
);
},
{
closed = 1;
nodes = (
(100,-10,ls),
(129,-10,o),
(145,14,o),
(145,37,cs),
(145,60,o),
(129,84,o),
(100,84,cs),
(71,84,o),
(55,60,o),
(55,37,cs),
(55,14,o),
(71,-10,o),
(99,-10,cs)
);
}
);
};
guides = (
{
pos = (192,750);
}
);
layerId = m01;
shapes = (
{
closed = 1;
nodes = (
(152,152,o),
(158,156,o),
(158,166,cs),
(162,290,ls),
(163,319,o),
(168,328,o),
(184,340,cs),
(229,371,ls),
(294,416,o),
(328,455,o),
(328,519,cs),
(328,594,o),
(264,638,o),
(159,638,cs),
(124,638,o),
(72,629,o),
(48,615,cs),
(40,609,o),
(36,605,o),
(36,596,cs),
(32,493,ls),
(32,484,o),
(37,479,o),
(45,479,cs),
(53,479,o),
(56,482,o),
(60,490,cs),
(94,574,o),
(126,612,o),
(192,612,cs),
(230,612,o),
(262,592,o),
(262,536,cs),
(262,479,o),
(235,453,o),
(186,417,cs),
(159,397,ls),
(131,377,o),
(123,355,o),
(124,316,cs),
(129,166,ls),
(129,156,o),
(135,152,o),
(143,152,cs)
);
},
{
pos = (16,0);
ref = period;
}
);
width = 365;
}
);
unicode = 63;
},
{
glyphname = questiondown;
lastChange = "2022-09-01 19:11:10 +0000";
layers = (
{
layerId = m01;
shapes = (
{
closed = 1;
nodes = (
(240,-183,o),
(292,-174,o),
(316,-160,cs),
(324,-155,o),
(329,-150,o),
(329,-141,cs),
(332,-38,ls),
(332,-29,o),
(328,-24,o),
(320,-24,cs),
(312,-24,o),
(308,-27,o),
(305,-36,cs),
(270,-119,o),
(238,-157,o),
(172,-157,cs),
(135,-157,o),
(102,-137,o),
(102,-81,cs),
(102,-24,o),
(130,2,o),
(178,37,cs),
(206,58,ls),
(233,78,o),
(241,99,o),
(240,139,cs),
(236,269,ls),
(236,278,o),
(230,282,o),
(222,282,cs),
(213,282,o),
(207,278,o),
(207,269,cs),
(202,165,ls),
(201,136,o),
(197,127,o),
(181,115,cs),
(136,84,ls),
(70,38,o),
(37,0,o),
(37,-65,cs),
(37,-139,o),
(100,-183,o),
(206,-183,cs)
);
},
{
angle = 180;
pos = (301,511);
ref = period;
}
);
width = 365;
}
);
metricLeft = "=|question";
metricRight = "=|question";
unicode = 191;
},
{
glyphname = asterisk;
kernLeft = asterisk;
kernRight = asterisk;
lastChange = "2022-08-23 20:03:46 +0000";
layers = (
{
background = {
shapes = (
{
closed = 1;
nodes = (
(256,357,ls),
(282,357,o),
(300,367,o),
(300,386,cs),
(300,415,o),
(263,462,o),
(263,475,cs),
(263,479,o),
(266,484,o),
(274,484,cs),
(289,484,o),
(306,467,o),
(323,448,cs),
(342,431,o),
(363,413,o),
(388,413,cs),
(409,413,o),
(428,428,o),
(428,443,cs),
(428,468,o),
(390,476,o),
(352,479,cs),
(315,483,o),
(277,484,o),
(277,496,cs),
(277,510,o),
(315,510,o),
(352,513,cs),
(390,517,o),
(428,524,o),
(428,551,cs),
(428,566,o),
(409,581,o),
(388,581,cs),
(362,581,o),
(339,564,o),
(322,546,cs),
(305,528,o),
(289,510,o),
(274,510,cs),
(267,510,o),
(263,514,o),
(263,518,cs),
(263,531,o),
(300,579,o),
(300,606,cs),
(300,626,o),
(282,637,o),
(256,637,cs),
(231,637,o),
(213,626,o),
(213,607,cs),
(213,579,o),
(250,531,o),
(250,518,cs),
(250,515,o),
(247,510,o),
(239,510,cs),
(224,510,o),
(209,528,o),
(190,545,cs),
(171,564,o),
(151,581,o),
(125,581,cs),
(103,581,o),
(85,566,o),
(85,551,cs),
(85,524,o),
(123,518,o),
(161,514,cs),
(198,511,o),
(236,509,o),
(236,496,cs),
(236,484,o),
(198,483,o),
(161,479,cs),
(123,476,o),
(85,468,o),
(85,443,cs),
(85,428,o),
(103,413,o),
(125,413,cs),
(151,413,o),
(171,431,o),
(191,448,cs),
(209,467,o),
(224,484,o),
(239,484,cs),
(246,484,o),
(250,479,o),
(250,475,cs),
(250,462,o),
(213,415,o),
(213,388,cs),
(213,367,o),
(231,357,o),
(255,357,cs)
);
}
);
};
layerId = m01;
shapes = (
{
closed = 1;
nodes = (
(284,354,o),
(300,370,o),
(300,387,cs),
(300,413,o),
(271,431,o),
(264,474,cs),
(263,481,o),
(270,483,o),
(277,479,cs),
(323,450,o),
(331,425,o),
(361,412,cs),
(381,404,o),
(407,406,o),
(422,424,cs),
(436,443,o),
(425,462,o),
(406,470,cs),
(374,484,o),
(338,473,o),
(285,490,cs),
(276,493,o),
(276,498,o),
(285,501,cs),
(338,518,o),
(374,507,o),
(406,521,cs),
(425,530,o),
(436,548,o),
(422,567,cs),
(407,585,o),
(381,587,o),
(361,579,cs),
(329,565,o),
(323,538,o),
(276,512,cs),
(269,507,o),
(263,510,o),
(264,517,cs),
(271,560,o),
(300,578,o),
(300,604,cs),
(300,621,o),
(284,638,o),
(255,638,cs),
(227,638,o),
(210,621,o),
(210,604,cs),
(210,578,o),
(239,560,o),
(246,517,cs),
(247,510,o),
(241,507,o),
(235,512,cs),
(187,538,o),
(182,565,o),
(150,579,cs),
(130,587,o),
(103,585,o),
(89,567,cs),
(75,548,o),
(85,530,o),
(105,521,cs),
(137,507,o),
(172,518,o),
(225,501,cs),
(235,498,o),
(235,493,o),
(225,490,cs),
(172,473,o),
(137,484,o),
(105,470,cs),
(85,462,o),
(75,443,o),
(89,424,cs),
(103,406,o),
(130,404,o),
(150,412,cs),
(179,425,o),
(187,450,o),
(233,479,cs),
(240,483,o),
(247,481,o),
(246,474,cs),
(239,431,o),
(210,413,o),
(210,387,cs),
(210,370,o),
(227,354,o),
(255,354,cs)
);
}
);
width = 511;
}
);
unicode = 42;
},
{
glyphname = numbersign;
lastChange = "2022-08-11 18:45:18 +0000";
layers = (
{
background = {
shapes = (
{
closed = 1;
nodes = (
(122,0,l),
(159,0,l),
(350,612,l),
(313,612,l)
);
},
{
closed = 1;
nodes = (
(381,0,l),
(417,0,l),
(608,612,l),
(572,612,l)
);
},
{
closed = 1;
nodes = (
(84,391,l),
(707,391,l),
(707,416,l),
(84,416,l)
);
},
{
closed = 1;
nodes = (
(23,196,l),
(646,196,l),
(646,221,l),
(23,221,l)
);
}
);
};
layerId = m01;
shapes = (
{
closed = 1;
nodes = (
(159,0,l),
(215,181,ls),
(218,190,o),
(227,196,o),
(240,196,cs),
(422,196,ls),
(434,196,o),
(439,190,o),
(437,181,cs),
(381,0,l),
(417,0,l),
(474,181,ls),
(477,190,o),
(485,196,o),
(499,196,cs),
(646,196,l),
(646,221,l),
(506,221,ls),
(494,221,o),
(489,226,o),
(491,235,cs),
(535,376,ls),
(538,385,o),
(546,391,o),
(560,391,cs),
(707,391,l),
(707,416,l),
(567,416,ls),
(555,416,o),
(550,422,o),
(552,431,cs),
(608,612,l),
(572,612,l),
(515,431,ls),
(512,422,o),
(504,416,o),
(490,416,cs),
(308,416,ls),
(297,416,o),
(291,422,o),
(293,431,cs),
(350,612,l),
(313,612,l),
(256,431,ls),
(253,422,o),
(245,416,o),
(231,416,cs),
(84,416,l),
(84,391,l),
(224,391,ls),
(236,391,o),
(241,386,o),
(239,377,cs),
(195,236,ls),
(192,227,o),
(184,221,o),
(170,221,cs),
(23,221,l),
(23,196,l),
(163,196,ls),
(175,196,o),
(181,190,o),
(178,181,cs),
(122,0,l)
);
},
{
closed = 1;
nodes = (
(236,221,o),
(230,226,o),
(232,235,cs),
(276,376,ls),
(279,385,o),
(288,391,o),
(301,391,cs),
(483,391,ls),
(494,391,o),
(500,386,o),
(498,377,cs),
(454,236,ls),
(451,227,o),
(443,221,o),
(429,221,cs),
(247,221,ls)
);
}
);
width = 730;
}
);
unicode = 35;
},
{
glyphname = slash;
lastChange = "2022-08-11 18:55:19 +0000";
layers = (
{
layerId = m01;
shapes = (
{
closed = 1;
nodes = (
(34,-110,ls),
(41,-110,o),
(46,-107,o),
(47,-103,cs),
(285,662,ls),
(286,667,o),
(284,672,o),
(276,672,cs),
(262,672,ls),
(255,672,o),
(251,668,o),
(250,664,cs),
(12,-101,ls),
(10,-106,o),
(13,-110,o),
(21,-110,cs)
);
}
);
width = 297;
}
);
unicode = 47;
},
{
glyphname = backslash;
lastChange = "2022-08-11 18:57:07 +0000";
layers = (
{
layerId = m01;
shapes = (
{
closed = 1;
nodes = (
(276,-110,ls),
(284,-110,o),
(286,-106,o),
(285,-101,cs),
(47,664,ls),
(46,668,o),
(41,672,o),
(34,672,cs),
(21,672,ls),
(13,672,o),
(10,667,o),
(12,662,cs),
(250,-103,ls),
(251,-107,o),
(255,-110,o),
(262,-110,cs)
);
}
);
width = 297;
}
);
unicode = 92;
},
{
glyphname = hyphen;
kernLeft = hyphen;
kernRight = hyphen;
lastChange = "2022-08-31 19:46:08 +0000";
layers = (
{
layerId = m01;
shapes = (
{
closed = 1;
nodes = (
(389,220,ls),
(396,220,o),
(400,224,o),
(400,229,cs),
(400,241,ls),
(400,246,o),
(396,249,o),
(389,249,cs),
(106,249,ls),
(99,249,o),
(94,246,o),
(94,241,cs),
(94,229,ls),
(94,224,o),
(99,220,o),
(106,220,cs)
);
}
);
width = 494;
}
);
unicode = 45;
},
{
glyphname = endash;
kernLeft = hyphen;
kernRight = hyphen;
lastChange = "2022-08-23 20:03:55 +0000";
layers = (
{
layerId = m01;
shapes = (
{
closed = 1;
nodes = (
(481,220,ls),
(488,220,o),
(492,224,o),
(492,229,cs),
(492,241,ls),
(492,246,o),
(488,249,o),
(481,249,cs),
(106,249,ls),
(99,249,o),
(94,246,o),
(94,241,cs),
(94,229,ls),
(94,224,o),
(99,220,o),
(106,220,cs)
);
}
);
width = 586;
}
);
unicode = 8211;
},
{
glyphname = emdash;
kernLeft = hyphen;
kernRight = hyphen;
lastChange = "2022-08-23 20:03:55 +0000";
layers = (
{
layerId = m01;
shapes = (
{
closed = 1;
nodes = (
(722,220,ls),
(729,220,o),
(734,224,o),
(734,229,cs),
(734,241,ls),
(734,246,o),
(729,249,o),
(722,249,cs),
(106,249,ls),
(99,249,o),
(94,246,o),
(94,241,cs),
(94,229,ls),
(94,224,o),
(99,220,o),
(106,220,cs)
);
}
);
width = 828;
}
);
unicode = 8212;
},
{
glyphname = underscore;
lastChange = "2022-08-11 19:14:16 +0000";
layers = (
{
layerId = m01;
shapes = (
{
closed = 1;
nodes = (
(404,-93,ls),
(411,-93,o),
(415,-89,o),
(415,-84,cs),
(415,-72,ls),
(415,-67,o),
(411,-64,o),
(404,-64,cs),
(29,-64,ls),
(22,-64,o),
(17,-67,o),
(17,-72,cs),
(17,-84,ls),
(17,-89,o),
(22,-93,o),
(29,-93,cs)
);
}
);
width = 432;
}
);
unicode = 95;
},
{
glyphname = parenleft;
lastChange = "2022-09-01 21:01:08 +0000";
layers = (
{
background = {
shapes = (
{
closed = 1;
nodes = (
(80,273,ls),
(80,42,o),
(317,-96,o),
(346,-96,cs),
(352,-96,o),
(355,-94,o),
(355,-90,cs),
(355,-84,o),
(335,-74,o),
(323,-66,cs),
(197,18,o),
(159,147,o),
(159,273,cs),
(159,399,o),
(197,528,o),
(323,612,cs),
(335,620,o),
(355,630,o),
(355,636,cs),
(355,639,o),
(352,642,o),
(346,642,cs),
(317,642,o),
(80,503,o),
(80,274,cs)
);
}
);
};
layerId = m01;
shapes = (
{
closed = 1;
nodes = (
(344,-92,o),
(347,-88,o),
(347,-85,cs),
(347,-82,o),
(345,-79,o),
(340,-76,cs),
(214,8,o),
(159,135,o),
(159,274,cs),
(159,412,o),
(214,539,o),
(340,623,cs),
(345,626,o),
(347,629,o),
(347,632,cs),
(347,636,o),
(344,639,o),
(337,639,cs),
(334,639,o),
(330,638,o),
(327,637,cs),
(218,580,o),
(80,451,o),
(80,274,cs),
(80,96,o),
(218,-32,o),
(327,-89,cs),
(330,-91,o),
(334,-92,o),
(337,-92,cs)
);
}
);
width = 391;
}
);
unicode = 40;
},
{
glyphname = braceleft;
lastChange = "2022-09-01 21:01:41 +0000";
layers = (
{
background = {
shapes = (
{
closed = 1;
nodes = (
(138,43,ls),
(138,-55,o),
(194,-83,o),
(281,-83,cs),
(291,-83,o),
(297,-80,o),
(297,-74,cs),
(297,-67,o),
(290,-65,o),
(278,-65,cs),
(222,-65,o),
(205,-28,o),
(205,38,cs),
(205,156,ls),
(205,220,o),
(191,256,o),
(114,272,c),
(114,274,l),
(191,290,o),
(205,326,o),
(205,389,cs),
(205,507,ls),
(205,574,o),
(222,610,o),
(278,610,cs),
(290,610,o),
(297,613,o),
(297,620,cs),
(297,626,o),
(291,629,o),
(281,629,cs),
(194,629,o),
(138,601,o),
(138,502,cs),
(138,376,ls),
(138,329,o),
(129,293,o),
(85,287,cs),
(62,284,o),
(51,280,o),
(51,273,cs),
(51,265,o),
(63,262,o),
(85,258,cs),
(129,252,o),
(138,217,o),
(138,170,cs)
);
}
);
};
layerId = m01;
shapes = (
{
closed = 1;
nodes = (
(291,-82,o),
(297,-77,o),
(297,-71,cs),
(297,-65,o),
(291,-61,o),
(283,-61,cs),
(229,-61,o),
(205,-32,o),
(205,31,cs),
(205,151,ls),
(205,227,o),
(179,257,o),
(120,274,c),
(179,291,o),
(205,320,o),
(205,396,cs),
(205,517,ls),
(205,580,o),
(229,609,o),
(283,609,cs),
(291,609,o),
(297,613,o),
(297,619,cs),
(297,625,o),
(291,629,o),
(283,629,cs),
(189,629,o),
(138,592,o),
(138,513,cs),
(138,393,ls),
(138,313,o),
(114,284,o),
(60,284,cs),
(52,284,o),
(46,280,o),
(46,274,cs),
(46,268,o),
(52,264,o),
(60,264,cs),
(114,264,o),
(138,235,o),
(138,155,cs),
(138,34,ls),
(138,-44,o),
(189,-82,o),
(283,-82,cs)
);
}
);
width = 366;
}
);
unicode = 123;
},
{
glyphname = bracketleft;
lastChange = "2022-09-01 21:02:14 +0000";
layers = (
{
background = {
shapes = (
{
pos = (10,0);
ref = parenleft;
}
);
};
guides = (
{
pos = (156,-108);
}
);
layerId = m01;
shapes = (
{
closed = 1;
nodes = (
(289,-83,ls),
(299,-83,o),
(305,-79,o),
(305,-73,cs),
(305,-67,o),
(299,-63,o),
(289,-63,cs),
(179,-63,ls),
(171,-63,o),
(166,-59,o),
(166,-53,cs),
(166,598,ls),
(166,604,o),
(171,609,o),
(179,609,cs),
(289,609,ls),
(299,609,o),
(305,613,o),
(305,619,cs),
(305,625,o),
(299,629,o),
(289,629,cs),
(126,629,ls),
(109,629,o),
(99,621,o),
(99,609,cs),
(99,-63,ls),
(99,-76,o),
(109,-83,o),
(126,-83,cs)
);
}
);
width = 374;
}
);
unicode = 91;
},
{
glyphname = quoteleft;
kernLeft = quoteleft;
kernRight = quoteleft;
lastChange = "2023-03-17 07:42:45 +0000";
layers = (
{
layerId = m01;
shapes = (
{
closed = 1;
nodes = (
(124,478,o),
(145,495,o),
(145,515,cs),
(145,555,o),
(85,547,o),
(85,588,cs),
(85,608,o),
(94,620,o),
(146,654,cs),
(156,660,o),
(155,666,o),
(150,670,cs),
(144,673,o),
(137,672,o),
(128,666,cs),
(56,629,o),
(28,586,o),
(28,535,cs),
(28,500,o),
(52,478,o),
(90,478,cs)
);
}
);
width = 191;
}
);
metricLeft = "=|quoteright";
metricRight = "=|quoteright";
unicode = 8216;
},
{
glyphname = quoteright;
kernLeft = quoteright;
kernRight = quoteright;
lastChange = "2022-09-19 13:28:36 +0000";
layers = (
{
layerId = m01;
shapes = (
{
closed = 1;
nodes = (
(135,469,o),
(163,512,o),
(163,564,cs),
(163,598,o),
(139,620,o),
(101,620,cs),
(67,620,o),
(46,604,o),
(46,583,cs),
(46,543,o),
(106,551,o),
(106,510,cs),
(106,496,o),
(97,478,o),
(45,445,cs),
(34,439,o),
(36,432,o),
(41,428,cs),
(47,425,o),
(54,427,o),
(63,432,cs)
);
}
);
width = 191;
}
);
unicode = 8217;
},
{
glyphname = guilsinglleft;
kernLeft = guilleft;
kernRight = guilleft;
lastChange = "2022-08-23 20:04:35 +0000";
layers = (
{
layerId = m01;
shapes = (
{
closed = 1;
nodes = (
(194,69,o),
(200,66,o),
(207,66,cs),
(218,66,o),
(221,74,o),
(217,79,cs),
(138,206,ls),
(135,211,o),
(135,216,o),
(138,221,cs),
(217,348,ls),
(221,353,o),
(218,360,o),
(207,360,cs),
(200,360,o),
(194,358,o),
(185,348,cs),
(69,228,ls),
(60,218,o),
(60,209,o),
(69,199,cs),
(185,79,ls)
);
}
);
width = 301;
}
);
unicode = 8249;
},
{
glyphname = guilsinglright;
kernLeft = guilright;
kernRight = guilright;
lastChange = "2022-08-23 20:04:44 +0000";
layers = (
{
background = {
shapes = (
{
closed = 1;
nodes = (
(124,66,l),
(267,213,l),
(124,360,l),
(97,360,l),
(186,213,l),
(97,66,l)
);
}
);
};
layerId = m01;
shapes = (
{
pos = (262,0);
ref = guilsinglleft;
scale = (-1,1);
}
);
width = 301;
}
);
metricLeft = "=|guilsinglleft";
metricRight = "=|guilsinglleft";
unicode = 8250;
},
{
glyphname = quotesingle;
kernLeft = quotesingle;
kernRight = quotesingle;
lastChange = "2022-09-01 20:16:30 +0000";
layers = (
{
background = {
shapes = (
{
pos = (-14,0);
ref = quoteright;
}
);
};
layerId = m01;
shapes = (
{
closed = 1;
nodes = (
(143,416,o),
(147,421,o),
(147,430,cs),
(151,508,o),
(185,547,o),
(185,579,cs),
(185,603,o),
(168,621,o),
(133,621,cs),
(100,621,o),
(83,603,o),
(83,579,cs),
(83,547,o),
(116,508,o),
(120,430,cs),
(120,421,o),
(125,416,o),
(133,416,cs)
);
}
);
width = 268;
}
);
unicode = 39;
},
{
glyphname = at;
kernLeft = o;
kernRight = o;
lastChange = "2022-08-23 20:05:05 +0000";
layers = (
{
layerId = m01;
shapes = (
{
closed = 1;
nodes = (
(482,-69,o),
(553,-53,o),
(606,-22,cs),
(616,-16,o),
(618,-10,o),
(612,-3,cs),
(606,3,o),
(596,3,o),
(583,-5,cs),
(536,-31,o),
(473,-44,o),
(398,-44,cs),
(218,-44,o),
(122,36,o),
(122,183,cs),
(122,352,o),
(252,470,o),
(437,470,cs),
(580,470,o),
(668,394,o),
(668,274,cs),
(668,175,o),
(596,80,o),
(520,80,cs),
(488,80,o),
(478,104,o),
(493,150,cs),
(557,351,ls),
(560,361,o),
(555,368,o),
(545,368,cs),
(537,368,o),
(529,363,o),
(524,354,cs),
(522,349,o),
(519,348,o),
(515,348,cs),
(511,348,o),
(508,349,o),
(505,354,cs),
(494,366,o),
(475,372,o),
(452,372,cs),
(346,372,o),
(225,242,o),
(225,128,cs),
(225,80,o),
(247,54,o),
(288,54,cs),
(335,54,o),
(384,89,o),
(439,163,cs),
(443,168,o),
(450,167,o),
(447,162,cs),
(446,158,o),
(445,155,o),
(444,151,cs),
(423,91,o),
(448,54,o),
(508,54,cs),
(615,54,o),
(713,157,o),
(713,271,cs),
(713,404,o),
(604,493,o),
(442,493,cs),
(231,493,o),
(46,349,o),
(46,185,cs),
(46,38,o),
(175,-69,o),
(400,-69,cs)
);
},
{
closed = 1;
nodes = (
(292,85,o),
(285,95,o),
(285,122,cs),
(285,219,o),
(377,349,o),
(447,349,cs),
(469,349,o),
(482,337,o),
(482,314,cs),
(482,236,o),
(367,85,o),
(308,85,cs)
);
}
);
width = 759;
}
);
metricLeft = O;
metricRight = O;
unicode = 64;
},
{
glyphname = ampersand;
lastChange = "2022-08-27 16:49:40 +0000";
layers = (
{
background = {
shapes = (
{
closed = 1;
nodes = (
(583,312,o),
(613,325,o),
(646,327,cs),
(668,329,ls),
(680,330,o),
(683,334,o),
(683,339,cs),
(683,345,o),
(677,348,o),
(667,348,cs),
(466,348,ls),
(455,348,o),
(450,345,o),
(450,340,cs),
(450,334,o),
(454,331,o),
(465,330,cs),
(505,326,ls),
(536,322,o),
(544,307,o),
(529,274,cs),
(444,86,o),
(347,32,o),
(252,32,cs),
(156,32,o),
(113,89,o),
(113,160,cs),
(113,230,o),
(147,288,o),
(221,326,cs),
(230,332,o),
(238,329,o),
(244,323,cs),
(437,98,l),
(509,14,ls),
(518,4,o),
(528,0,o),
(543,0,cs),
(660,0,ls),
(670,0,o),
(676,3,o),
(676,9,cs),
(676,15,o),
(672,19,o),
(662,20,cs),
(612,23,ls),
(593,24,o),
(584,33,o),
(569,50,cs),
(313,355,ls),
(307,362,o),
(309,367,o),
(319,371,cs),
(427,413,o),
(474,460,o),
(474,518,cs),
(474,566,o),
(421,623,o),
(324,623,cs),
(215,623,o),
(143,567,o),
(143,498,cs),
(143,454,o),
(166,416,o),
(210,362,cs),
(216,355,o),
(215,350,o),
(206,346,cs),
(105,299,o),
(37,228,o),
(37,143,cs),
(37,62,o),
(109,-8,o),
(237,-8,cs),
(355,-8,o),
(467,63,o),
(562,268,cs)
);
},
{
closed = 1;
nodes = (
(292,385,o),
(284,387,o),
(279,394,c),
(230,451,o),
(215,479,o),
(215,516,cs),
(215,558,o),
(255,600,o),
(319,600,cs),
(389,600,o),
(406,555,o),
(406,514,cs),
(406,470,o),
(371,421,o),
(301,389,cs)
);
}
);
};
guides = (
{
angle = 121.4641;
pos = (434,159);
},
{
angle = -57.6671;
pos = (272,286);
},
{
pos = (640,388);
}
);
layerId = m01;
shapes = (
{
closed = 1;
nodes = (
(305,-8,o),
(371,15,o),
(435,76,cs),
(442,82,o),
(450,82,o),
(457,75,cs),
(509,14,ls),
(518,4,o),
(528,0,o),
(543,0,cs),
(660,0,ls),
(670,0,o),
(676,3,o),
(676,9,cs),
(676,15,o),
(672,19,o),
(662,20,cs),
(612,23,ls),
(593,24,o),
(584,33,o),
(569,50,cs),
(503,129,ls),
(494,139,o),
(494,147,o),
(501,157,cs),
(522,189,o),
(544,226,o),
(558,251,cs),
(582,293,o),
(613,306,o),
(646,309,cs),
(668,310,ls),
(680,311,o),
(683,315,o),
(683,320,cs),
(683,326,o),
(677,330,o),
(667,330,cs),
(466,330,ls),
(455,330,o),
(450,326,o),
(450,321,cs),
(450,315,o),
(454,312,o),
(465,311,cs),
(505,307,ls),
(536,303,o),
(542,289,o),
(524,257,cs),
(515,240,o),
(498,209,o),
(481,183,cs),
(475,174,o),
(466,174,o),
(459,182,cs),
(313,355,ls),
(307,362,o),
(309,367,o),
(319,371,cs),
(427,413,o),
(474,460,o),
(474,518,cs),
(474,566,o),
(421,623,o),
(324,623,cs),
(215,623,o),
(143,567,o),
(143,498,cs),
(143,454,o),
(166,416,o),
(210,362,cs),
(216,355,o),
(215,350,o),
(206,346,cs),
(105,299,o),
(37,228,o),
(37,143,cs),
(37,62,o),
(109,-8,o),
(237,-8,cs)
);
},
{
closed = 1;
nodes = (
(156,32,o),
(113,89,o),
(113,160,cs),
(113,230,o),
(147,288,o),
(221,326,cs),
(230,332,o),
(238,329,o),
(244,323,cs),
(413,126,ls),
(421,116,o),
(421,107,o),
(412,97,cs),
(359,49,o),
(306,32,o),
(252,32,cs)
);
},
{
closed = 1;
nodes = (
(292,385,o),
(284,387,o),
(279,394,c),
(230,451,o),
(215,479,o),
(215,516,cs),
(215,558,o),
(255,600,o),
(319,600,cs),
(389,600,o),
(406,555,o),
(406,514,cs),
(406,470,o),
(371,421,o),
(301,389,cs)
);
}
);
width = 666;
}
);
unicode = 38;
},
{
glyphname = paragraph;
lastChange = "2022-08-13 19:12:03 +0000";
layers = (
{
layerId = m01;
shapes = (
{
closed = 1;
nodes = (
(330,-110,ls),
(340,-110,o),
(346,-106,o),
(346,-99,cs),
(346,566,ls),
(346,579,o),
(356,586,o),
(374,586,cs),
(400,586,ls),
(417,586,o),
(428,579,o),
(428,566,cs),
(428,-99,ls),
(428,-106,o),
(434,-110,o),
(444,-110,cs),
(475,-110,ls),
(485,-110,o),
(491,-106,o),
(491,-99,cs),
(491,556,ls),
(491,580,o),
(498,585,o),
(530,589,cs),
(557,592,ls),
(567,594,o),
(572,597,o),
(572,603,cs),
(572,609,o),
(566,612,o),
(554,612,cs),
(256,612,ls),
(121,612,o),
(28,542,o),
(28,442,cs),
(28,345,o),
(121,277,o),
(253,277,cs),
(267,277,ls),
(277,277,o),
(283,273,o),
(283,265,cs),
(283,-99,ls),
(283,-106,o),
(289,-110,o),
(299,-110,cs)
);
}
);
width = 593;
}
);
metricLeft = "=|P";
metricRight = "=|P";
unicode = 182;
},
